G04*
G04 #@! TF.GenerationSoftware,Altium Limited,Altium Designer,21.3.2 (30)*
G04*
G04 Layer_Physical_Order=1*
G04 Layer_Color=5064179*
%FSAX43Y43*%
%MOMM*%
G71*
G04*
G04 #@! TF.SameCoordinates,DF0D33FC-6E62-41E1-A360-C572148188B0*
G04*
G04*
G04 #@! TF.FilePolarity,Positive*
G04*
G01*
G75*
%ADD11C,0.200*%
%ADD16C,0.400*%
%ADD17C,1.000*%
%ADD18C,0.150*%
%ADD19C,0.400*%
%ADD20C,5.000*%
G36*
X0338000Y0182518D02*
X0338000Y0117249D01*
X0338000Y0117068D01*
X0337968Y0116708D01*
X0337905Y0116352D01*
X0337811Y0116003D01*
X0337687Y0115664D01*
X0337534Y0115337D01*
X0337353Y0115024D01*
X0337144Y0114729D01*
X0337028Y0114591D01*
X0337028D01*
X0337028Y0114591D01*
X0336920Y0114463D01*
X0336678Y0114232D01*
X0336412Y0114029D01*
X0336126Y0113856D01*
X0335822Y0113716D01*
X0335505Y0113608D01*
X0335179Y0113536D01*
X0334846Y0113500D01*
X0334679Y0113500D01*
X0326000D01*
X0318000Y0121500D01*
Y0189000D01*
X0332944D01*
X0338000Y0182518D01*
D02*
G37*
%LPC*%
G36*
X0327000Y0186658D02*
X0326584Y0186625D01*
X0326179Y0186528D01*
X0325793Y0186368D01*
X0325438Y0186150D01*
X0325120Y0185880D01*
X0324849Y0185562D01*
X0324632Y0185207D01*
X0324472Y0184821D01*
X0324374Y0184416D01*
X0324342Y0184000D01*
X0324374Y0183584D01*
X0324472Y0183179D01*
X0324632Y0182793D01*
X0324849Y0182437D01*
X0325120Y0182120D01*
X0325438Y0181849D01*
X0325793Y0181631D01*
X0326179Y0181472D01*
X0326584Y0181374D01*
X0327000Y0181342D01*
X0327416Y0181374D01*
X0327821Y0181472D01*
X0328207Y0181631D01*
X0328562Y0181849D01*
X0328880Y0182120D01*
X0329150Y0182437D01*
X0329368Y0182793D01*
X0329528Y0183179D01*
X0329625Y0183584D01*
X0329658Y0184000D01*
X0329625Y0184416D01*
X0329528Y0184821D01*
X0329368Y0185207D01*
X0329150Y0185562D01*
X0328880Y0185880D01*
X0328562Y0186150D01*
X0328207Y0186368D01*
X0327821Y0186528D01*
X0327416Y0186625D01*
X0327000Y0186658D01*
D02*
G37*
G36*
X0330048Y0179083D02*
X0329817Y0179053D01*
X0329602Y0178964D01*
X0329417Y0178822D01*
X0329275Y0178637D01*
X0329186Y0178422D01*
X0329155Y0178191D01*
X0329186Y0177960D01*
X0329275Y0177744D01*
X0329417Y0177559D01*
X0329602Y0177418D01*
X0329817Y0177328D01*
X0330048Y0177298D01*
X0330279Y0177328D01*
X0330494Y0177418D01*
X0330679Y0177559D01*
X0330821Y0177744D01*
X0330910Y0177960D01*
X0330941Y0178191D01*
X0330910Y0178422D01*
X0330821Y0178637D01*
X0330679Y0178822D01*
X0330494Y0178964D01*
X0330279Y0179053D01*
X0330048Y0179083D01*
D02*
G37*
G36*
X0323925Y0176797D02*
Y0176509D01*
X0324213D01*
X0324202Y0176566D01*
X0324113Y0176698D01*
X0323981Y0176786D01*
X0323925Y0176797D01*
D02*
G37*
G36*
X0323725D02*
X0323669Y0176786D01*
X0323537Y0176698D01*
X0323448Y0176566D01*
X0323437Y0176509D01*
X0323725D01*
Y0176797D01*
D02*
G37*
G36*
X0329003Y0176785D02*
Y0176498D01*
X0329290D01*
X0329279Y0176554D01*
X0329191Y0176686D01*
X0329059Y0176774D01*
X0329003Y0176785D01*
D02*
G37*
G36*
X0328803D02*
X0328746Y0176774D01*
X0328614Y0176686D01*
X0328526Y0176554D01*
X0328515Y0176498D01*
X0328803D01*
Y0176785D01*
D02*
G37*
G36*
X0322024Y0176777D02*
Y0176489D01*
X0322312D01*
X0322301Y0176545D01*
X0322212Y0176677D01*
X0322080Y0176766D01*
X0322024Y0176777D01*
D02*
G37*
G36*
X0321824D02*
X0321768Y0176766D01*
X0321635Y0176677D01*
X0321547Y0176545D01*
X0321536Y0176489D01*
X0321824D01*
Y0176777D01*
D02*
G37*
G36*
X0330175Y0176766D02*
X0330038Y0176739D01*
X0329923Y0176662D01*
X0329845Y0176546D01*
X0329818Y0176409D01*
X0329845Y0176273D01*
X0329923Y0176157D01*
X0330038Y0176080D01*
X0330175Y0176053D01*
X0330312Y0176080D01*
X0330427Y0176157D01*
X0330505Y0176273D01*
X0330532Y0176409D01*
X0330505Y0176546D01*
X0330427Y0176662D01*
X0330312Y0176739D01*
X0330175Y0176766D01*
D02*
G37*
G36*
X0327635D02*
X0327498Y0176739D01*
X0327383Y0176662D01*
X0327305Y0176546D01*
X0327278Y0176409D01*
X0327305Y0176273D01*
X0327383Y0176157D01*
X0327498Y0176080D01*
X0327635Y0176053D01*
X0327772Y0176080D01*
X0327887Y0176157D01*
X0327965Y0176273D01*
X0327992Y0176409D01*
X0327965Y0176546D01*
X0327887Y0176662D01*
X0327772Y0176739D01*
X0327635Y0176766D01*
D02*
G37*
G36*
X0325095D02*
X0324958Y0176739D01*
X0324843Y0176662D01*
X0324765Y0176546D01*
X0324738Y0176409D01*
X0324765Y0176273D01*
X0324843Y0176157D01*
X0324958Y0176080D01*
X0325095Y0176053D01*
X0325232Y0176080D01*
X0325347Y0176157D01*
X0325425Y0176273D01*
X0325452Y0176409D01*
X0325425Y0176546D01*
X0325347Y0176662D01*
X0325232Y0176739D01*
X0325095Y0176766D01*
D02*
G37*
G36*
X0333339Y0176743D02*
X0333202Y0176716D01*
X0333087Y0176639D01*
X0333009Y0176523D01*
X0332982Y0176386D01*
X0333009Y0176250D01*
X0333087Y0176134D01*
X0333202Y0176056D01*
X0333339Y0176029D01*
X0333475Y0176056D01*
X0333591Y0176134D01*
X0333669Y0176250D01*
X0333696Y0176386D01*
X0333669Y0176523D01*
X0333591Y0176639D01*
X0333475Y0176716D01*
X0333339Y0176743D01*
D02*
G37*
G36*
X0324213Y0176309D02*
X0323925D01*
Y0176022D01*
X0323981Y0176033D01*
X0324113Y0176121D01*
X0324202Y0176253D01*
X0324213Y0176309D01*
D02*
G37*
G36*
X0323725D02*
X0323437D01*
X0323448Y0176253D01*
X0323537Y0176121D01*
X0323669Y0176033D01*
X0323725Y0176022D01*
Y0176309D01*
D02*
G37*
G36*
X0329290Y0176298D02*
X0329003D01*
Y0176010D01*
X0329059Y0176021D01*
X0329191Y0176109D01*
X0329279Y0176241D01*
X0329290Y0176298D01*
D02*
G37*
G36*
X0328803D02*
X0328515D01*
X0328526Y0176241D01*
X0328614Y0176109D01*
X0328746Y0176021D01*
X0328803Y0176010D01*
Y0176298D01*
D02*
G37*
G36*
X0322312Y0176289D02*
X0322024D01*
Y0176001D01*
X0322080Y0176012D01*
X0322212Y0176100D01*
X0322301Y0176233D01*
X0322312Y0176289D01*
D02*
G37*
G36*
X0321824D02*
X0321536D01*
X0321547Y0176233D01*
X0321635Y0176100D01*
X0321768Y0176012D01*
X0321824Y0176001D01*
Y0176289D01*
D02*
G37*
G36*
X0330906Y0175529D02*
Y0175241D01*
X0331194D01*
X0331183Y0175297D01*
X0331095Y0175430D01*
X0330962Y0175518D01*
X0330906Y0175529D01*
D02*
G37*
G36*
X0330706D02*
X0330650Y0175518D01*
X0330518Y0175430D01*
X0330429Y0175297D01*
X0330418Y0175241D01*
X0330706D01*
Y0175529D01*
D02*
G37*
G36*
X0325826D02*
Y0175241D01*
X0326114D01*
X0326103Y0175297D01*
X0326015Y0175430D01*
X0325882Y0175518D01*
X0325826Y0175529D01*
D02*
G37*
G36*
X0325626D02*
X0325570Y0175518D01*
X0325438Y0175430D01*
X0325349Y0175297D01*
X0325338Y0175241D01*
X0325626D01*
Y0175529D01*
D02*
G37*
G36*
X0328374Y0175507D02*
Y0175219D01*
X0328662D01*
X0328651Y0175275D01*
X0328562Y0175407D01*
X0328430Y0175496D01*
X0328374Y0175507D01*
D02*
G37*
G36*
X0328174D02*
X0328118Y0175496D01*
X0327985Y0175407D01*
X0327897Y0175275D01*
X0327886Y0175219D01*
X0328174D01*
Y0175507D01*
D02*
G37*
G36*
X0331194Y0175041D02*
X0330906D01*
Y0174753D01*
X0330962Y0174764D01*
X0331095Y0174853D01*
X0331183Y0174985D01*
X0331194Y0175041D01*
D02*
G37*
G36*
X0330706D02*
X0330418D01*
X0330429Y0174985D01*
X0330518Y0174853D01*
X0330650Y0174764D01*
X0330706Y0174753D01*
Y0175041D01*
D02*
G37*
G36*
X0326114D02*
X0325826D01*
Y0174753D01*
X0325882Y0174764D01*
X0326015Y0174853D01*
X0326103Y0174985D01*
X0326114Y0175041D01*
D02*
G37*
G36*
X0325626D02*
X0325338D01*
X0325349Y0174985D01*
X0325438Y0174853D01*
X0325570Y0174764D01*
X0325626Y0174753D01*
Y0175041D01*
D02*
G37*
G36*
X0328662Y0175019D02*
X0328374D01*
Y0174731D01*
X0328430Y0174742D01*
X0328562Y0174830D01*
X0328651Y0174963D01*
X0328662Y0175019D01*
D02*
G37*
G36*
X0328174D02*
X0327886D01*
X0327897Y0174963D01*
X0327985Y0174830D01*
X0328118Y0174742D01*
X0328174Y0174731D01*
Y0175019D01*
D02*
G37*
G36*
X0332176Y0174252D02*
Y0173964D01*
X0332464D01*
X0332453Y0174020D01*
X0332365Y0174152D01*
X0332232Y0174240D01*
X0332176Y0174252D01*
D02*
G37*
G36*
X0331976D02*
X0331920Y0174240D01*
X0331788Y0174152D01*
X0331699Y0174020D01*
X0331688Y0173964D01*
X0331976D01*
Y0174252D01*
D02*
G37*
G36*
X0325835Y0174243D02*
Y0173955D01*
X0326123D01*
X0326112Y0174011D01*
X0326023Y0174143D01*
X0325891Y0174232D01*
X0325835Y0174243D01*
D02*
G37*
G36*
X0325635D02*
X0325579Y0174232D01*
X0325447Y0174143D01*
X0325358Y0174011D01*
X0325347Y0173955D01*
X0325635D01*
Y0174243D01*
D02*
G37*
G36*
X0323295D02*
Y0173955D01*
X0323583D01*
X0323572Y0174011D01*
X0323483Y0174143D01*
X0323351Y0174232D01*
X0323295Y0174243D01*
D02*
G37*
G36*
X0323095D02*
X0323039Y0174232D01*
X0322907Y0174143D01*
X0322818Y0174011D01*
X0322807Y0173955D01*
X0323095D01*
Y0174243D01*
D02*
G37*
G36*
X0329644Y0174237D02*
Y0173949D01*
X0329932D01*
X0329921Y0174005D01*
X0329832Y0174137D01*
X0329700Y0174226D01*
X0329644Y0174237D01*
D02*
G37*
G36*
X0329444D02*
X0329388Y0174226D01*
X0329255Y0174137D01*
X0329167Y0174005D01*
X0329156Y0173949D01*
X0329444D01*
Y0174237D01*
D02*
G37*
G36*
X0332464Y0173764D02*
X0332176D01*
Y0173476D01*
X0332232Y0173487D01*
X0332365Y0173575D01*
X0332453Y0173708D01*
X0332464Y0173764D01*
D02*
G37*
G36*
X0331976D02*
X0331688D01*
X0331699Y0173708D01*
X0331788Y0173575D01*
X0331920Y0173487D01*
X0331976Y0173476D01*
Y0173764D01*
D02*
G37*
G36*
X0326123Y0173755D02*
X0325835D01*
Y0173467D01*
X0325891Y0173478D01*
X0326023Y0173567D01*
X0326112Y0173699D01*
X0326123Y0173755D01*
D02*
G37*
G36*
X0325635D02*
X0325347D01*
X0325358Y0173699D01*
X0325447Y0173567D01*
X0325579Y0173478D01*
X0325635Y0173467D01*
Y0173755D01*
D02*
G37*
G36*
X0323583D02*
X0323295D01*
Y0173467D01*
X0323351Y0173478D01*
X0323483Y0173567D01*
X0323572Y0173699D01*
X0323583Y0173755D01*
D02*
G37*
G36*
X0323095D02*
X0322807D01*
X0322818Y0173699D01*
X0322907Y0173567D01*
X0323039Y0173478D01*
X0323095Y0173467D01*
Y0173755D01*
D02*
G37*
G36*
X0329932Y0173749D02*
X0329644D01*
Y0173461D01*
X0329700Y0173472D01*
X0329832Y0173560D01*
X0329921Y0173693D01*
X0329932Y0173749D01*
D02*
G37*
G36*
X0329444D02*
X0329156D01*
X0329167Y0173693D01*
X0329255Y0173560D01*
X0329388Y0173472D01*
X0329444Y0173461D01*
Y0173749D01*
D02*
G37*
G36*
X0321385Y0171698D02*
Y0171410D01*
X0321673D01*
X0321662Y0171467D01*
X0321573Y0171599D01*
X0321441Y0171687D01*
X0321385Y0171698D01*
D02*
G37*
G36*
X0321185D02*
X0321129Y0171687D01*
X0320997Y0171599D01*
X0320908Y0171467D01*
X0320897Y0171410D01*
X0321185D01*
Y0171698D01*
D02*
G37*
G36*
X0325800Y0171688D02*
Y0171400D01*
X0326088D01*
X0326077Y0171456D01*
X0325988Y0171588D01*
X0325856Y0171677D01*
X0325800Y0171688D01*
D02*
G37*
G36*
X0325600D02*
X0325544Y0171677D01*
X0325412Y0171588D01*
X0325323Y0171456D01*
X0325312Y0171400D01*
X0325600D01*
Y0171688D01*
D02*
G37*
G36*
X0333339Y0171673D02*
X0333202Y0171646D01*
X0333087Y0171568D01*
X0333009Y0171453D01*
X0332982Y0171316D01*
X0333009Y0171180D01*
X0333087Y0171064D01*
X0333202Y0170986D01*
X0333339Y0170959D01*
X0333475Y0170986D01*
X0333591Y0171064D01*
X0333669Y0171180D01*
X0333696Y0171316D01*
X0333669Y0171453D01*
X0333591Y0171568D01*
X0333475Y0171646D01*
X0333339Y0171673D01*
D02*
G37*
G36*
X0321673Y0171210D02*
X0321385D01*
Y0170923D01*
X0321441Y0170934D01*
X0321573Y0171022D01*
X0321662Y0171154D01*
X0321673Y0171210D01*
D02*
G37*
G36*
X0321185D02*
X0320897D01*
X0320908Y0171154D01*
X0320997Y0171022D01*
X0321129Y0170934D01*
X0321185Y0170923D01*
Y0171210D01*
D02*
G37*
G36*
X0326088Y0171200D02*
X0325800D01*
Y0170912D01*
X0325856Y0170923D01*
X0325988Y0171012D01*
X0326077Y0171144D01*
X0326088Y0171200D01*
D02*
G37*
G36*
X0325600D02*
X0325312D01*
X0325323Y0171144D01*
X0325412Y0171012D01*
X0325544Y0170923D01*
X0325600Y0170912D01*
Y0171200D01*
D02*
G37*
G36*
X0323200Y0171657D02*
X0323063Y0171630D01*
X0322948Y0171552D01*
X0322870Y0171437D01*
X0322843Y0171300D01*
X0322844Y0171296D01*
X0322816Y0171081D01*
X0322731Y0170878D01*
X0322597Y0170703D01*
X0322422Y0170569D01*
X0322219Y0170484D01*
X0322004Y0170456D01*
X0322000Y0170457D01*
X0321800D01*
Y0170459D01*
X0321437Y0170423D01*
X0321089Y0170317D01*
X0320767Y0170146D01*
X0320486Y0169914D01*
X0320254Y0169633D01*
X0320083Y0169311D01*
X0319977Y0168963D01*
X0319941Y0168600D01*
X0319943D01*
Y0125500D01*
X0319942D01*
X0319974Y0125252D01*
X0320070Y0125021D01*
X0320222Y0124822D01*
X0320421Y0124670D01*
X0320652Y0124574D01*
X0320900Y0124542D01*
Y0124543D01*
X0326312D01*
X0326350Y0124416D01*
X0326227Y0124256D01*
X0326138Y0124040D01*
X0326107Y0123809D01*
X0326138Y0123578D01*
X0326227Y0123363D01*
X0326369Y0123178D01*
X0326554Y0123036D01*
X0326769Y0122947D01*
X0327000Y0122917D01*
X0327231Y0122947D01*
X0327446Y0123036D01*
X0327631Y0123178D01*
X0327773Y0123363D01*
X0327862Y0123578D01*
X0327893Y0123809D01*
X0327862Y0124040D01*
X0327773Y0124256D01*
X0327650Y0124416D01*
X0327688Y0124543D01*
X0330103D01*
Y0124541D01*
X0330376Y0124577D01*
X0330630Y0124682D01*
X0330849Y0124850D01*
X0331017Y0125069D01*
X0331122Y0125323D01*
X0331158Y0125596D01*
X0331156D01*
X0331129Y0125733D01*
X0331051Y0125848D01*
X0330935Y0125926D01*
X0330799Y0125953D01*
X0330662Y0125926D01*
X0330547Y0125848D01*
X0330469Y0125733D01*
X0330442Y0125596D01*
X0330442Y0125594D01*
X0330417Y0125466D01*
X0330343Y0125356D01*
X0330233Y0125282D01*
X0330104Y0125257D01*
X0330103Y0125257D01*
X0329316D01*
X0329248Y0125384D01*
X0329282Y0125434D01*
X0329293Y0125490D01*
X0328517D01*
X0328528Y0125434D01*
X0328562Y0125384D01*
X0328494Y0125257D01*
X0326776D01*
X0326708Y0125384D01*
X0326742Y0125434D01*
X0326753Y0125490D01*
X0325977D01*
X0325988Y0125434D01*
X0326022Y0125384D01*
X0325954Y0125257D01*
X0324236D01*
X0324168Y0125384D01*
X0324202Y0125434D01*
X0324213Y0125490D01*
X0323437D01*
X0323448Y0125434D01*
X0323482Y0125384D01*
X0323414Y0125257D01*
X0321696D01*
X0321628Y0125384D01*
X0321662Y0125434D01*
X0321673Y0125490D01*
X0320897D01*
X0320908Y0125434D01*
X0320942Y0125384D01*
X0320921Y0125321D01*
X0320869Y0125264D01*
X0320807Y0125276D01*
X0320729Y0125329D01*
X0320676Y0125407D01*
X0320658Y0125500D01*
X0320657D01*
Y0168600D01*
X0320654Y0168612D01*
X0320692Y0168897D01*
X0320807Y0169174D01*
X0320989Y0169411D01*
X0321226Y0169593D01*
X0321503Y0169708D01*
X0321788Y0169746D01*
X0321800Y0169743D01*
X0322000D01*
Y0169743D01*
X0322304Y0169772D01*
X0322596Y0169861D01*
X0322704Y0169919D01*
X0322819Y0169865D01*
X0322823Y0169844D01*
X0322912Y0169712D01*
X0323044Y0169623D01*
X0323100Y0169612D01*
Y0170000D01*
X0323200D01*
Y0170100D01*
X0323588D01*
X0323577Y0170156D01*
X0323488Y0170288D01*
X0323392Y0170353D01*
X0323355Y0170384D01*
X0323335Y0170510D01*
X0323439Y0170704D01*
X0323528Y0170996D01*
X0323557Y0171300D01*
X0323557D01*
X0323530Y0171437D01*
X0323452Y0171552D01*
X0323337Y0171630D01*
X0323200Y0171657D01*
D02*
G37*
G36*
X0325841Y0170442D02*
Y0170154D01*
X0326129D01*
X0326118Y0170210D01*
X0326030Y0170342D01*
X0325897Y0170431D01*
X0325841Y0170442D01*
D02*
G37*
G36*
X0325641D02*
X0325585Y0170431D01*
X0325453Y0170342D01*
X0325364Y0170210D01*
X0325353Y0170154D01*
X0325641D01*
Y0170442D01*
D02*
G37*
G36*
X0328332Y0170439D02*
Y0170151D01*
X0328620D01*
X0328609Y0170207D01*
X0328520Y0170339D01*
X0328388Y0170427D01*
X0328332Y0170439D01*
D02*
G37*
G36*
X0328132D02*
X0328076Y0170427D01*
X0327943Y0170339D01*
X0327855Y0170207D01*
X0327844Y0170151D01*
X0328132D01*
Y0170439D01*
D02*
G37*
G36*
X0332184Y0170427D02*
Y0170139D01*
X0332472D01*
X0332461Y0170195D01*
X0332372Y0170327D01*
X0332240Y0170416D01*
X0332184Y0170427D01*
D02*
G37*
G36*
X0331984D02*
X0331928Y0170416D01*
X0331795Y0170327D01*
X0331707Y0170195D01*
X0331696Y0170139D01*
X0331984D01*
Y0170427D01*
D02*
G37*
G36*
X0333339Y0170393D02*
X0333202Y0170366D01*
X0333087Y0170289D01*
X0333009Y0170173D01*
X0332982Y0170036D01*
X0333009Y0169900D01*
X0333087Y0169784D01*
X0333202Y0169706D01*
X0333339Y0169679D01*
X0333475Y0169706D01*
X0333591Y0169784D01*
X0333669Y0169900D01*
X0333696Y0170036D01*
X0333669Y0170173D01*
X0333591Y0170289D01*
X0333475Y0170366D01*
X0333339Y0170393D01*
D02*
G37*
G36*
X0326129Y0169954D02*
X0325841D01*
Y0169666D01*
X0325897Y0169677D01*
X0326030Y0169765D01*
X0326118Y0169898D01*
X0326129Y0169954D01*
D02*
G37*
G36*
X0325641D02*
X0325353D01*
X0325364Y0169898D01*
X0325453Y0169765D01*
X0325585Y0169677D01*
X0325641Y0169666D01*
Y0169954D01*
D02*
G37*
G36*
X0328620Y0169951D02*
X0328332D01*
Y0169663D01*
X0328388Y0169674D01*
X0328520Y0169762D01*
X0328609Y0169895D01*
X0328620Y0169951D01*
D02*
G37*
G36*
X0328132D02*
X0327844D01*
X0327855Y0169895D01*
X0327943Y0169762D01*
X0328076Y0169674D01*
X0328132Y0169663D01*
Y0169951D01*
D02*
G37*
G36*
X0332472Y0169939D02*
X0332184D01*
Y0169651D01*
X0332240Y0169662D01*
X0332372Y0169750D01*
X0332461Y0169883D01*
X0332472Y0169939D01*
D02*
G37*
G36*
X0331984D02*
X0331696D01*
X0331707Y0169883D01*
X0331795Y0169750D01*
X0331928Y0169662D01*
X0331984Y0169651D01*
Y0169939D01*
D02*
G37*
G36*
X0323588Y0169900D02*
X0323300D01*
Y0169612D01*
X0323356Y0169623D01*
X0323488Y0169712D01*
X0323577Y0169844D01*
X0323588Y0169900D01*
D02*
G37*
G36*
X0322000Y0169188D02*
Y0168900D01*
X0322288D01*
X0322277Y0168956D01*
X0322188Y0169088D01*
X0322056Y0169177D01*
X0322000Y0169188D01*
D02*
G37*
G36*
X0321800D02*
X0321744Y0169177D01*
X0321612Y0169088D01*
X0321523Y0168956D01*
X0321512Y0168900D01*
X0321800D01*
Y0169188D01*
D02*
G37*
G36*
X0323200Y0169157D02*
X0323063Y0169130D01*
X0322948Y0169052D01*
X0322870Y0168937D01*
X0322843Y0168800D01*
X0322870Y0168663D01*
X0322948Y0168548D01*
X0323063Y0168470D01*
X0323200Y0168443D01*
X0323337Y0168470D01*
X0323452Y0168548D01*
X0323530Y0168663D01*
X0323557Y0168800D01*
X0323530Y0168937D01*
X0323452Y0169052D01*
X0323337Y0169130D01*
X0323200Y0169157D01*
D02*
G37*
G36*
X0322288Y0168700D02*
X0322000D01*
Y0168412D01*
X0322056Y0168423D01*
X0322188Y0168512D01*
X0322277Y0168644D01*
X0322288Y0168700D01*
D02*
G37*
G36*
X0321800D02*
X0321512D01*
X0321523Y0168644D01*
X0321612Y0168512D01*
X0321744Y0168423D01*
X0321800Y0168412D01*
Y0168700D01*
D02*
G37*
G36*
X0333333Y0169122D02*
X0333196Y0169095D01*
X0333080Y0169017D01*
X0333003Y0168901D01*
X0332976Y0168765D01*
X0333003Y0168628D01*
X0333080Y0168513D01*
X0333196Y0168435D01*
X0333333Y0168408D01*
X0333469Y0168435D01*
X0333585Y0168513D01*
X0333662Y0168628D01*
X0333690Y0168765D01*
X0333662Y0168901D01*
X0333585Y0169017D01*
X0333469Y0169095D01*
X0333333Y0169122D01*
D02*
G37*
G36*
X0332069Y0167863D02*
X0331932Y0167836D01*
X0331817Y0167758D01*
X0331739Y0167643D01*
X0331712Y0167506D01*
X0331739Y0167370D01*
X0331817Y0167254D01*
X0331932Y0167176D01*
X0332069Y0167149D01*
X0332205Y0167176D01*
X0332321Y0167254D01*
X0332399Y0167370D01*
X0332426Y0167506D01*
X0332399Y0167643D01*
X0332321Y0167758D01*
X0332205Y0167836D01*
X0332069Y0167863D01*
D02*
G37*
G36*
X0330809Y0167853D02*
X0330672Y0167826D01*
X0330556Y0167749D01*
X0330479Y0167633D01*
X0330452Y0167496D01*
X0330479Y0167360D01*
X0330556Y0167244D01*
X0330672Y0167166D01*
X0330809Y0167139D01*
X0330945Y0167166D01*
X0331061Y0167244D01*
X0331139Y0167360D01*
X0331166Y0167496D01*
X0331139Y0167633D01*
X0331061Y0167749D01*
X0330945Y0167826D01*
X0330809Y0167853D01*
D02*
G37*
G36*
X0329645Y0166633D02*
Y0166345D01*
X0329933D01*
X0329922Y0166401D01*
X0329833Y0166533D01*
X0329701Y0166622D01*
X0329645Y0166633D01*
D02*
G37*
G36*
X0329445D02*
X0329389Y0166622D01*
X0329257Y0166533D01*
X0329168Y0166401D01*
X0329157Y0166345D01*
X0329445D01*
Y0166633D01*
D02*
G37*
G36*
X0332175Y0166623D02*
Y0166335D01*
X0332463D01*
X0332452Y0166391D01*
X0332363Y0166523D01*
X0332231Y0166612D01*
X0332175Y0166623D01*
D02*
G37*
G36*
X0331975D02*
X0331919Y0166612D01*
X0331787Y0166523D01*
X0331698Y0166391D01*
X0331687Y0166335D01*
X0331975D01*
Y0166623D01*
D02*
G37*
G36*
X0325835D02*
Y0166335D01*
X0326123D01*
X0326112Y0166391D01*
X0326023Y0166523D01*
X0325891Y0166612D01*
X0325835Y0166623D01*
D02*
G37*
G36*
X0325635D02*
X0325579Y0166612D01*
X0325447Y0166523D01*
X0325358Y0166391D01*
X0325347Y0166335D01*
X0325635D01*
Y0166623D01*
D02*
G37*
G36*
X0323925Y0166618D02*
Y0166330D01*
X0324213D01*
X0324202Y0166387D01*
X0324113Y0166519D01*
X0323981Y0166607D01*
X0323925Y0166618D01*
D02*
G37*
G36*
X0323725D02*
X0323669Y0166607D01*
X0323537Y0166519D01*
X0323448Y0166387D01*
X0323437Y0166330D01*
X0323725D01*
Y0166618D01*
D02*
G37*
G36*
X0321385D02*
Y0166330D01*
X0321673D01*
X0321662Y0166387D01*
X0321573Y0166519D01*
X0321441Y0166607D01*
X0321385Y0166618D01*
D02*
G37*
G36*
X0321185D02*
X0321129Y0166607D01*
X0320997Y0166519D01*
X0320908Y0166387D01*
X0320897Y0166330D01*
X0321185D01*
Y0166618D01*
D02*
G37*
G36*
X0329933Y0166145D02*
X0329645D01*
Y0165857D01*
X0329701Y0165868D01*
X0329833Y0165957D01*
X0329922Y0166089D01*
X0329933Y0166145D01*
D02*
G37*
G36*
X0329445D02*
X0329157D01*
X0329168Y0166089D01*
X0329257Y0165957D01*
X0329389Y0165868D01*
X0329445Y0165857D01*
Y0166145D01*
D02*
G37*
G36*
X0332463Y0166135D02*
X0332175D01*
Y0165847D01*
X0332231Y0165858D01*
X0332363Y0165947D01*
X0332452Y0166079D01*
X0332463Y0166135D01*
D02*
G37*
G36*
X0331975D02*
X0331687D01*
X0331698Y0166079D01*
X0331787Y0165947D01*
X0331919Y0165858D01*
X0331975Y0165847D01*
Y0166135D01*
D02*
G37*
G36*
X0326123D02*
X0325835D01*
Y0165847D01*
X0325891Y0165858D01*
X0326023Y0165947D01*
X0326112Y0166079D01*
X0326123Y0166135D01*
D02*
G37*
G36*
X0325635D02*
X0325347D01*
X0325358Y0166079D01*
X0325447Y0165947D01*
X0325579Y0165858D01*
X0325635Y0165847D01*
Y0166135D01*
D02*
G37*
G36*
X0324213Y0166130D02*
X0323925D01*
Y0165843D01*
X0323981Y0165854D01*
X0324113Y0165942D01*
X0324202Y0166074D01*
X0324213Y0166130D01*
D02*
G37*
G36*
X0323725D02*
X0323437D01*
X0323448Y0166074D01*
X0323537Y0165942D01*
X0323669Y0165854D01*
X0323725Y0165843D01*
Y0166130D01*
D02*
G37*
G36*
X0321673D02*
X0321385D01*
Y0165843D01*
X0321441Y0165854D01*
X0321573Y0165942D01*
X0321662Y0166074D01*
X0321673Y0166130D01*
D02*
G37*
G36*
X0321185D02*
X0320897D01*
X0320908Y0166074D01*
X0320997Y0165942D01*
X0321129Y0165854D01*
X0321185Y0165843D01*
Y0166130D01*
D02*
G37*
G36*
X0333339Y0165323D02*
X0333202Y0165296D01*
X0333087Y0165218D01*
X0333009Y0165103D01*
X0332982Y0164966D01*
X0333009Y0164830D01*
X0333087Y0164714D01*
X0333202Y0164636D01*
X0333339Y0164609D01*
X0333475Y0164636D01*
X0333591Y0164714D01*
X0333669Y0164830D01*
X0333696Y0164966D01*
X0333669Y0165103D01*
X0333591Y0165218D01*
X0333475Y0165296D01*
X0333339Y0165323D01*
D02*
G37*
G36*
X0322655Y0164097D02*
Y0163809D01*
X0322943D01*
X0322932Y0163866D01*
X0322843Y0163998D01*
X0322711Y0164086D01*
X0322655Y0164097D01*
D02*
G37*
G36*
X0322455D02*
X0322399Y0164086D01*
X0322267Y0163998D01*
X0322178Y0163866D01*
X0322167Y0163809D01*
X0322455D01*
Y0164097D01*
D02*
G37*
G36*
X0329645Y0164083D02*
Y0163795D01*
X0329933D01*
X0329922Y0163851D01*
X0329833Y0163983D01*
X0329701Y0164072D01*
X0329645Y0164083D01*
D02*
G37*
G36*
X0329445D02*
X0329389Y0164072D01*
X0329257Y0163983D01*
X0329168Y0163851D01*
X0329157Y0163795D01*
X0329445D01*
Y0164083D01*
D02*
G37*
G36*
X0332069Y0164053D02*
X0331932Y0164026D01*
X0331817Y0163948D01*
X0331739Y0163833D01*
X0331712Y0163696D01*
X0331739Y0163560D01*
X0331817Y0163444D01*
X0331932Y0163366D01*
X0332069Y0163339D01*
X0332205Y0163366D01*
X0332321Y0163444D01*
X0332399Y0163560D01*
X0332426Y0163696D01*
X0332399Y0163833D01*
X0332321Y0163948D01*
X0332205Y0164026D01*
X0332069Y0164053D01*
D02*
G37*
G36*
X0324449D02*
X0324312Y0164026D01*
X0324197Y0163948D01*
X0324119Y0163833D01*
X0324092Y0163696D01*
X0324119Y0163560D01*
X0324197Y0163444D01*
X0324312Y0163366D01*
X0324449Y0163339D01*
X0324585Y0163366D01*
X0324701Y0163444D01*
X0324779Y0163560D01*
X0324806Y0163696D01*
X0324779Y0163833D01*
X0324701Y0163948D01*
X0324585Y0164026D01*
X0324449Y0164053D01*
D02*
G37*
G36*
X0330809Y0164043D02*
X0330672Y0164016D01*
X0330556Y0163939D01*
X0330479Y0163823D01*
X0330452Y0163686D01*
X0330479Y0163550D01*
X0330556Y0163434D01*
X0330672Y0163356D01*
X0330809Y0163329D01*
X0330945Y0163356D01*
X0331061Y0163434D01*
X0331139Y0163550D01*
X0331166Y0163686D01*
X0331139Y0163823D01*
X0331061Y0163939D01*
X0330945Y0164016D01*
X0330809Y0164043D01*
D02*
G37*
G36*
X0322943Y0163609D02*
X0322655D01*
Y0163322D01*
X0322711Y0163333D01*
X0322843Y0163421D01*
X0322932Y0163553D01*
X0322943Y0163609D01*
D02*
G37*
G36*
X0322455D02*
X0322167D01*
X0322178Y0163553D01*
X0322267Y0163421D01*
X0322399Y0163333D01*
X0322455Y0163322D01*
Y0163609D01*
D02*
G37*
G36*
X0329933Y0163595D02*
X0329645D01*
Y0163307D01*
X0329701Y0163318D01*
X0329833Y0163407D01*
X0329922Y0163539D01*
X0329933Y0163595D01*
D02*
G37*
G36*
X0329445D02*
X0329157D01*
X0329168Y0163539D01*
X0329257Y0163407D01*
X0329389Y0163318D01*
X0329445Y0163307D01*
Y0163595D01*
D02*
G37*
G36*
X0333339Y0164053D02*
X0333202Y0164026D01*
X0333087Y0163948D01*
X0333009Y0163833D01*
X0332982Y0163696D01*
X0333009Y0163560D01*
X0333087Y0163444D01*
X0333047Y0163317D01*
X0332983Y0163221D01*
X0332972Y0163165D01*
X0333747D01*
X0333736Y0163221D01*
X0333659Y0163336D01*
X0333591Y0163444D01*
X0333669Y0163560D01*
X0333696Y0163696D01*
X0333669Y0163833D01*
X0333591Y0163948D01*
X0333475Y0164026D01*
X0333339Y0164053D01*
D02*
G37*
G36*
X0333747Y0162965D02*
X0333460D01*
Y0162677D01*
X0333516Y0162688D01*
X0333648Y0162777D01*
X0333736Y0162909D01*
X0333747Y0162965D01*
D02*
G37*
G36*
X0333260D02*
X0332972D01*
X0332983Y0162909D01*
X0333071Y0162777D01*
X0333203Y0162688D01*
X0333260Y0162677D01*
Y0162965D01*
D02*
G37*
G36*
X0324449Y0162783D02*
X0324312Y0162756D01*
X0324197Y0162678D01*
X0324119Y0162563D01*
X0324092Y0162426D01*
X0324119Y0162290D01*
X0324197Y0162174D01*
X0324312Y0162096D01*
X0324449Y0162069D01*
X0324585Y0162096D01*
X0324701Y0162174D01*
X0324779Y0162290D01*
X0324806Y0162426D01*
X0324779Y0162563D01*
X0324701Y0162678D01*
X0324585Y0162756D01*
X0324449Y0162783D01*
D02*
G37*
G36*
X0332175Y0161553D02*
Y0161265D01*
X0332463D01*
X0332452Y0161321D01*
X0332363Y0161453D01*
X0332231Y0161542D01*
X0332175Y0161553D01*
D02*
G37*
G36*
X0331975D02*
X0331919Y0161542D01*
X0331787Y0161453D01*
X0331698Y0161321D01*
X0331687Y0161265D01*
X0331975D01*
Y0161553D01*
D02*
G37*
G36*
X0329635D02*
Y0161265D01*
X0329923D01*
X0329912Y0161321D01*
X0329823Y0161453D01*
X0329691Y0161542D01*
X0329635Y0161553D01*
D02*
G37*
G36*
X0329435D02*
X0329379Y0161542D01*
X0329247Y0161453D01*
X0329158Y0161321D01*
X0329147Y0161265D01*
X0329435D01*
Y0161553D01*
D02*
G37*
G36*
X0325825Y0161543D02*
Y0161255D01*
X0326113D01*
X0326102Y0161311D01*
X0326013Y0161443D01*
X0325881Y0161532D01*
X0325825Y0161543D01*
D02*
G37*
G36*
X0325625D02*
X0325569Y0161532D01*
X0325437Y0161443D01*
X0325348Y0161311D01*
X0325337Y0161255D01*
X0325625D01*
Y0161543D01*
D02*
G37*
G36*
X0323925Y0161538D02*
Y0161250D01*
X0324213D01*
X0324202Y0161307D01*
X0324113Y0161439D01*
X0323981Y0161527D01*
X0323925Y0161538D01*
D02*
G37*
G36*
X0323725D02*
X0323669Y0161527D01*
X0323537Y0161439D01*
X0323448Y0161307D01*
X0323437Y0161250D01*
X0323725D01*
Y0161538D01*
D02*
G37*
G36*
X0321385D02*
Y0161250D01*
X0321673D01*
X0321662Y0161307D01*
X0321573Y0161439D01*
X0321441Y0161527D01*
X0321385Y0161538D01*
D02*
G37*
G36*
X0321185D02*
X0321129Y0161527D01*
X0320997Y0161439D01*
X0320908Y0161307D01*
X0320897Y0161250D01*
X0321185D01*
Y0161538D01*
D02*
G37*
G36*
X0333339Y0161513D02*
X0333202Y0161486D01*
X0333087Y0161408D01*
X0333009Y0161293D01*
X0332982Y0161156D01*
X0333009Y0161020D01*
X0333087Y0160904D01*
X0333202Y0160826D01*
X0333339Y0160799D01*
X0333475Y0160826D01*
X0333591Y0160904D01*
X0333669Y0161020D01*
X0333696Y0161156D01*
X0333669Y0161293D01*
X0333591Y0161408D01*
X0333475Y0161486D01*
X0333339Y0161513D01*
D02*
G37*
G36*
X0332463Y0161065D02*
X0332175D01*
Y0160777D01*
X0332231Y0160788D01*
X0332363Y0160877D01*
X0332452Y0161009D01*
X0332463Y0161065D01*
D02*
G37*
G36*
X0331975D02*
X0331687D01*
X0331698Y0161009D01*
X0331787Y0160877D01*
X0331919Y0160788D01*
X0331975Y0160777D01*
Y0161065D01*
D02*
G37*
G36*
X0329923D02*
X0329635D01*
Y0160777D01*
X0329691Y0160788D01*
X0329823Y0160877D01*
X0329912Y0161009D01*
X0329923Y0161065D01*
D02*
G37*
G36*
X0329435D02*
X0329147D01*
X0329158Y0161009D01*
X0329247Y0160877D01*
X0329379Y0160788D01*
X0329435Y0160777D01*
Y0161065D01*
D02*
G37*
G36*
X0326113Y0161055D02*
X0325825D01*
Y0160767D01*
X0325881Y0160778D01*
X0326013Y0160867D01*
X0326102Y0160999D01*
X0326113Y0161055D01*
D02*
G37*
G36*
X0325625D02*
X0325337D01*
X0325348Y0160999D01*
X0325437Y0160867D01*
X0325569Y0160778D01*
X0325625Y0160767D01*
Y0161055D01*
D02*
G37*
G36*
X0324213Y0161050D02*
X0323925D01*
Y0160763D01*
X0323981Y0160774D01*
X0324113Y0160862D01*
X0324202Y0160994D01*
X0324213Y0161050D01*
D02*
G37*
G36*
X0323725D02*
X0323437D01*
X0323448Y0160994D01*
X0323537Y0160862D01*
X0323669Y0160774D01*
X0323725Y0160763D01*
Y0161050D01*
D02*
G37*
G36*
X0321673D02*
X0321385D01*
Y0160763D01*
X0321441Y0160774D01*
X0321573Y0160862D01*
X0321662Y0160994D01*
X0321673Y0161050D01*
D02*
G37*
G36*
X0321185D02*
X0320897D01*
X0320908Y0160994D01*
X0320997Y0160862D01*
X0321129Y0160774D01*
X0321185Y0160763D01*
Y0161050D01*
D02*
G37*
G36*
X0333339Y0160243D02*
X0333202Y0160216D01*
X0333087Y0160138D01*
X0333009Y0160023D01*
X0332982Y0159886D01*
X0333009Y0159750D01*
X0333087Y0159634D01*
X0333202Y0159556D01*
X0333339Y0159529D01*
X0333475Y0159556D01*
X0333591Y0159634D01*
X0333669Y0159750D01*
X0333696Y0159886D01*
X0333669Y0160023D01*
X0333591Y0160138D01*
X0333475Y0160216D01*
X0333339Y0160243D01*
D02*
G37*
G36*
X0332069D02*
X0331932Y0160216D01*
X0331817Y0160138D01*
X0331739Y0160023D01*
X0331712Y0159886D01*
X0331739Y0159750D01*
X0331817Y0159634D01*
X0331932Y0159556D01*
X0332069Y0159529D01*
X0332205Y0159556D01*
X0332321Y0159634D01*
X0332399Y0159750D01*
X0332426Y0159886D01*
X0332399Y0160023D01*
X0332321Y0160138D01*
X0332205Y0160216D01*
X0332069Y0160243D01*
D02*
G37*
G36*
X0330809Y0160233D02*
X0330672Y0160206D01*
X0330556Y0160129D01*
X0330479Y0160013D01*
X0330452Y0159876D01*
X0330479Y0159740D01*
X0330556Y0159624D01*
X0330672Y0159546D01*
X0330809Y0159519D01*
X0330945Y0159546D01*
X0331061Y0159624D01*
X0331139Y0159740D01*
X0331166Y0159876D01*
X0331139Y0160013D01*
X0331061Y0160129D01*
X0330945Y0160206D01*
X0330809Y0160233D01*
D02*
G37*
G36*
X0324449D02*
X0324312Y0160206D01*
X0324197Y0160129D01*
X0324119Y0160013D01*
X0324092Y0159876D01*
X0324119Y0159740D01*
X0324197Y0159624D01*
X0324312Y0159546D01*
X0324449Y0159519D01*
X0324585Y0159546D01*
X0324701Y0159624D01*
X0324779Y0159740D01*
X0324806Y0159876D01*
X0324779Y0160013D01*
X0324701Y0160129D01*
X0324585Y0160206D01*
X0324449Y0160233D01*
D02*
G37*
G36*
X0322655Y0159017D02*
Y0158729D01*
X0322943D01*
X0322932Y0158786D01*
X0322843Y0158918D01*
X0322711Y0159006D01*
X0322655Y0159017D01*
D02*
G37*
G36*
X0322455D02*
X0322399Y0159006D01*
X0322267Y0158918D01*
X0322178Y0158786D01*
X0322167Y0158729D01*
X0322455D01*
Y0159017D01*
D02*
G37*
G36*
X0332175Y0159003D02*
Y0158715D01*
X0332463D01*
X0332452Y0158771D01*
X0332363Y0158903D01*
X0332231Y0158992D01*
X0332175Y0159003D01*
D02*
G37*
G36*
X0331975D02*
X0331919Y0158992D01*
X0331787Y0158903D01*
X0331698Y0158771D01*
X0331687Y0158715D01*
X0331975D01*
Y0159003D01*
D02*
G37*
G36*
X0329635D02*
Y0158715D01*
X0329923D01*
X0329912Y0158771D01*
X0329823Y0158903D01*
X0329691Y0158992D01*
X0329635Y0159003D01*
D02*
G37*
G36*
X0329435D02*
X0329379Y0158992D01*
X0329247Y0158903D01*
X0329158Y0158771D01*
X0329147Y0158715D01*
X0329435D01*
Y0159003D01*
D02*
G37*
G36*
X0334800Y0159057D02*
X0334663Y0159030D01*
X0334548Y0158952D01*
X0334470Y0158837D01*
X0334443Y0158700D01*
X0334470Y0158563D01*
X0334548Y0158448D01*
X0334663Y0158370D01*
X0334800Y0158343D01*
X0334937Y0158370D01*
X0335052Y0158448D01*
X0335130Y0158563D01*
X0335157Y0158700D01*
X0335130Y0158837D01*
X0335052Y0158952D01*
X0334937Y0159030D01*
X0334800Y0159057D01*
D02*
G37*
G36*
X0333900D02*
X0333763Y0159030D01*
X0333648Y0158952D01*
X0333570Y0158837D01*
X0333543Y0158700D01*
X0333570Y0158563D01*
X0333648Y0158448D01*
X0333763Y0158370D01*
X0333900Y0158343D01*
X0334037Y0158370D01*
X0334152Y0158448D01*
X0334230Y0158563D01*
X0334257Y0158700D01*
X0334230Y0158837D01*
X0334152Y0158952D01*
X0334037Y0159030D01*
X0333900Y0159057D01*
D02*
G37*
G36*
X0325719Y0158973D02*
X0325582Y0158946D01*
X0325467Y0158868D01*
X0325389Y0158753D01*
X0325362Y0158616D01*
X0325389Y0158480D01*
X0325467Y0158364D01*
X0325582Y0158286D01*
X0325719Y0158259D01*
X0325855Y0158286D01*
X0325971Y0158364D01*
X0326049Y0158480D01*
X0326076Y0158616D01*
X0326049Y0158753D01*
X0325971Y0158868D01*
X0325855Y0158946D01*
X0325719Y0158973D01*
D02*
G37*
G36*
X0324459Y0158963D02*
X0324322Y0158936D01*
X0324207Y0158859D01*
X0324129Y0158743D01*
X0324102Y0158606D01*
X0324129Y0158470D01*
X0324207Y0158354D01*
X0324322Y0158276D01*
X0324459Y0158249D01*
X0324595Y0158276D01*
X0324711Y0158354D01*
X0324789Y0158470D01*
X0324816Y0158606D01*
X0324789Y0158743D01*
X0324711Y0158859D01*
X0324595Y0158936D01*
X0324459Y0158963D01*
D02*
G37*
G36*
X0322943Y0158529D02*
X0322655D01*
Y0158242D01*
X0322711Y0158253D01*
X0322843Y0158341D01*
X0322932Y0158473D01*
X0322943Y0158529D01*
D02*
G37*
G36*
X0322455D02*
X0322167D01*
X0322178Y0158473D01*
X0322267Y0158341D01*
X0322399Y0158253D01*
X0322455Y0158242D01*
Y0158529D01*
D02*
G37*
G36*
X0332463Y0158515D02*
X0332175D01*
Y0158227D01*
X0332231Y0158238D01*
X0332363Y0158327D01*
X0332452Y0158459D01*
X0332463Y0158515D01*
D02*
G37*
G36*
X0331975D02*
X0331687D01*
X0331698Y0158459D01*
X0331787Y0158327D01*
X0331919Y0158238D01*
X0331975Y0158227D01*
Y0158515D01*
D02*
G37*
G36*
X0329923D02*
X0329635D01*
Y0158227D01*
X0329691Y0158238D01*
X0329823Y0158327D01*
X0329912Y0158459D01*
X0329923Y0158515D01*
D02*
G37*
G36*
X0329435D02*
X0329147D01*
X0329158Y0158459D01*
X0329247Y0158327D01*
X0329379Y0158238D01*
X0329435Y0158227D01*
Y0158515D01*
D02*
G37*
G36*
X0328259Y0157703D02*
X0328122Y0157676D01*
X0328007Y0157598D01*
X0327929Y0157483D01*
X0327902Y0157346D01*
X0327929Y0157210D01*
X0328007Y0157094D01*
X0328122Y0157016D01*
X0328259Y0156989D01*
X0328395Y0157016D01*
X0328511Y0157094D01*
X0328589Y0157210D01*
X0328616Y0157346D01*
X0328589Y0157483D01*
X0328511Y0157598D01*
X0328395Y0157676D01*
X0328259Y0157703D01*
D02*
G37*
G36*
X0324551Y0157103D02*
Y0156815D01*
X0324838D01*
X0324827Y0156871D01*
X0324739Y0157003D01*
X0324607Y0157092D01*
X0324551Y0157103D01*
D02*
G37*
G36*
X0324351D02*
X0324294Y0157092D01*
X0324162Y0157003D01*
X0324074Y0156871D01*
X0324063Y0156815D01*
X0324351D01*
Y0157103D01*
D02*
G37*
G36*
Y0156615D02*
X0324063D01*
X0324074Y0156559D01*
X0324099Y0156521D01*
X0324007Y0156430D01*
X0323981Y0156447D01*
X0323925Y0156458D01*
Y0156170D01*
X0324213D01*
X0324202Y0156227D01*
X0324177Y0156264D01*
X0324268Y0156356D01*
X0324294Y0156338D01*
X0324351Y0156327D01*
Y0156615D01*
D02*
G37*
G36*
X0324838D02*
X0324551D01*
Y0156327D01*
X0324607Y0156338D01*
X0324739Y0156427D01*
X0324827Y0156559D01*
X0324838Y0156615D01*
D02*
G37*
G36*
X0323725Y0156458D02*
X0323669Y0156447D01*
X0323537Y0156359D01*
X0323448Y0156227D01*
X0323437Y0156170D01*
X0323725D01*
Y0156458D01*
D02*
G37*
G36*
X0321385D02*
Y0156170D01*
X0321673D01*
X0321662Y0156227D01*
X0321573Y0156359D01*
X0321441Y0156447D01*
X0321385Y0156458D01*
D02*
G37*
G36*
X0321185D02*
X0321129Y0156447D01*
X0320997Y0156359D01*
X0320908Y0156227D01*
X0320897Y0156170D01*
X0321185D01*
Y0156458D01*
D02*
G37*
G36*
X0332069Y0156433D02*
X0331932Y0156406D01*
X0331817Y0156328D01*
X0331739Y0156213D01*
X0331712Y0156076D01*
X0331739Y0155940D01*
X0331817Y0155824D01*
X0331932Y0155746D01*
X0332069Y0155719D01*
X0332205Y0155746D01*
X0332321Y0155824D01*
X0332399Y0155940D01*
X0332426Y0156076D01*
X0332399Y0156213D01*
X0332321Y0156328D01*
X0332205Y0156406D01*
X0332069Y0156433D01*
D02*
G37*
G36*
X0329529D02*
X0329392Y0156406D01*
X0329277Y0156328D01*
X0329199Y0156213D01*
X0329172Y0156076D01*
X0329199Y0155940D01*
X0329277Y0155824D01*
X0329392Y0155746D01*
X0329529Y0155719D01*
X0329665Y0155746D01*
X0329781Y0155824D01*
X0329859Y0155940D01*
X0329886Y0156076D01*
X0329859Y0156213D01*
X0329781Y0156328D01*
X0329665Y0156406D01*
X0329529Y0156433D01*
D02*
G37*
G36*
X0328259D02*
X0328122Y0156406D01*
X0328007Y0156328D01*
X0327929Y0156213D01*
X0327902Y0156076D01*
X0327929Y0155940D01*
X0328007Y0155824D01*
X0328122Y0155746D01*
X0328259Y0155719D01*
X0328395Y0155746D01*
X0328511Y0155824D01*
X0328589Y0155940D01*
X0328616Y0156076D01*
X0328589Y0156213D01*
X0328511Y0156328D01*
X0328395Y0156406D01*
X0328259Y0156433D01*
D02*
G37*
G36*
X0326989D02*
X0326852Y0156406D01*
X0326737Y0156328D01*
X0326659Y0156213D01*
X0326632Y0156076D01*
X0326659Y0155940D01*
X0326737Y0155824D01*
X0326852Y0155746D01*
X0326989Y0155719D01*
X0327125Y0155746D01*
X0327241Y0155824D01*
X0327319Y0155940D01*
X0327346Y0156076D01*
X0327319Y0156213D01*
X0327241Y0156328D01*
X0327125Y0156406D01*
X0326989Y0156433D01*
D02*
G37*
G36*
X0330809Y0156423D02*
X0330672Y0156396D01*
X0330556Y0156319D01*
X0330479Y0156203D01*
X0330452Y0156066D01*
X0330479Y0155930D01*
X0330556Y0155814D01*
X0330672Y0155736D01*
X0330809Y0155709D01*
X0330945Y0155736D01*
X0331061Y0155814D01*
X0331139Y0155930D01*
X0331166Y0156066D01*
X0331139Y0156203D01*
X0331061Y0156319D01*
X0330945Y0156396D01*
X0330809Y0156423D01*
D02*
G37*
G36*
X0324213Y0155970D02*
X0323925D01*
Y0155683D01*
X0323981Y0155694D01*
X0324113Y0155782D01*
X0324202Y0155914D01*
X0324213Y0155970D01*
D02*
G37*
G36*
X0323725D02*
X0323437D01*
X0323448Y0155914D01*
X0323537Y0155782D01*
X0323669Y0155694D01*
X0323725Y0155683D01*
Y0155970D01*
D02*
G37*
G36*
X0321673D02*
X0321385D01*
Y0155683D01*
X0321441Y0155694D01*
X0321573Y0155782D01*
X0321662Y0155914D01*
X0321673Y0155970D01*
D02*
G37*
G36*
X0321185D02*
X0320897D01*
X0320908Y0155914D01*
X0320997Y0155782D01*
X0321129Y0155694D01*
X0321185Y0155683D01*
Y0155970D01*
D02*
G37*
G36*
X0330905Y0155203D02*
Y0154915D01*
X0331193D01*
X0331182Y0154971D01*
X0331093Y0155103D01*
X0330961Y0155192D01*
X0330905Y0155203D01*
D02*
G37*
G36*
X0330705D02*
X0330649Y0155192D01*
X0330517Y0155103D01*
X0330428Y0154971D01*
X0330417Y0154915D01*
X0330705D01*
Y0155203D01*
D02*
G37*
G36*
X0332175Y0155193D02*
Y0154905D01*
X0332463D01*
X0332452Y0154961D01*
X0332363Y0155093D01*
X0332231Y0155182D01*
X0332175Y0155193D01*
D02*
G37*
G36*
X0331975D02*
X0331919Y0155182D01*
X0331787Y0155093D01*
X0331698Y0154961D01*
X0331687Y0154905D01*
X0331975D01*
Y0155193D01*
D02*
G37*
G36*
X0329529Y0155163D02*
X0329392Y0155136D01*
X0329277Y0155058D01*
X0329199Y0154943D01*
X0329172Y0154806D01*
X0329199Y0154670D01*
X0329277Y0154554D01*
X0329392Y0154476D01*
X0329529Y0154449D01*
X0329665Y0154476D01*
X0329781Y0154554D01*
X0329859Y0154670D01*
X0329886Y0154806D01*
X0329859Y0154943D01*
X0329781Y0155058D01*
X0329665Y0155136D01*
X0329529Y0155163D01*
D02*
G37*
G36*
X0326989D02*
X0326852Y0155136D01*
X0326737Y0155058D01*
X0326659Y0154943D01*
X0326632Y0154806D01*
X0326659Y0154670D01*
X0326737Y0154554D01*
X0326852Y0154476D01*
X0326989Y0154449D01*
X0327125Y0154476D01*
X0327241Y0154554D01*
X0327319Y0154670D01*
X0327346Y0154806D01*
X0327319Y0154943D01*
X0327241Y0155058D01*
X0327125Y0155136D01*
X0326989Y0155163D01*
D02*
G37*
G36*
X0325719D02*
X0325582Y0155136D01*
X0325467Y0155058D01*
X0325389Y0154943D01*
X0325362Y0154806D01*
X0325389Y0154670D01*
X0325467Y0154554D01*
X0325582Y0154476D01*
X0325719Y0154449D01*
X0325855Y0154476D01*
X0325971Y0154554D01*
X0326049Y0154670D01*
X0326076Y0154806D01*
X0326049Y0154943D01*
X0325971Y0155058D01*
X0325855Y0155136D01*
X0325719Y0155163D01*
D02*
G37*
G36*
X0331193Y0154715D02*
X0330905D01*
Y0154427D01*
X0330961Y0154438D01*
X0331093Y0154527D01*
X0331182Y0154659D01*
X0331193Y0154715D01*
D02*
G37*
G36*
X0330705D02*
X0330417D01*
X0330428Y0154659D01*
X0330517Y0154527D01*
X0330649Y0154438D01*
X0330705Y0154427D01*
Y0154715D01*
D02*
G37*
G36*
X0332463Y0154705D02*
X0332175D01*
Y0154417D01*
X0332231Y0154428D01*
X0332363Y0154517D01*
X0332452Y0154649D01*
X0332463Y0154705D01*
D02*
G37*
G36*
X0331975D02*
X0331687D01*
X0331698Y0154649D01*
X0331787Y0154517D01*
X0331919Y0154428D01*
X0331975Y0154417D01*
Y0154705D01*
D02*
G37*
G36*
X0322655Y0153937D02*
Y0153649D01*
X0322943D01*
X0322932Y0153706D01*
X0322843Y0153838D01*
X0322711Y0153926D01*
X0322655Y0153937D01*
D02*
G37*
G36*
X0322455D02*
X0322399Y0153926D01*
X0322267Y0153838D01*
X0322178Y0153706D01*
X0322167Y0153649D01*
X0322455D01*
Y0153937D01*
D02*
G37*
G36*
X0329635Y0153933D02*
Y0153645D01*
X0329923D01*
X0329912Y0153701D01*
X0329823Y0153833D01*
X0329691Y0153922D01*
X0329635Y0153933D01*
D02*
G37*
G36*
X0329435D02*
X0329379Y0153922D01*
X0329247Y0153833D01*
X0329158Y0153701D01*
X0329147Y0153645D01*
X0329435D01*
Y0153933D01*
D02*
G37*
G36*
X0327095D02*
Y0153645D01*
X0327383D01*
X0327372Y0153701D01*
X0327283Y0153833D01*
X0327151Y0153922D01*
X0327095Y0153933D01*
D02*
G37*
G36*
X0326895D02*
X0326839Y0153922D01*
X0326707Y0153833D01*
X0326618Y0153701D01*
X0326607Y0153645D01*
X0326895D01*
Y0153933D01*
D02*
G37*
G36*
X0328259Y0153893D02*
X0328122Y0153866D01*
X0328007Y0153788D01*
X0327929Y0153673D01*
X0327902Y0153536D01*
X0327929Y0153400D01*
X0328007Y0153284D01*
X0328122Y0153206D01*
X0328259Y0153179D01*
X0328395Y0153206D01*
X0328511Y0153284D01*
X0328589Y0153400D01*
X0328616Y0153536D01*
X0328589Y0153673D01*
X0328511Y0153788D01*
X0328395Y0153866D01*
X0328259Y0153893D01*
D02*
G37*
G36*
X0325719D02*
X0325582Y0153866D01*
X0325467Y0153788D01*
X0325389Y0153673D01*
X0325362Y0153536D01*
X0325389Y0153400D01*
X0325467Y0153284D01*
X0325582Y0153206D01*
X0325719Y0153179D01*
X0325855Y0153206D01*
X0325971Y0153284D01*
X0326049Y0153400D01*
X0326076Y0153536D01*
X0326049Y0153673D01*
X0325971Y0153788D01*
X0325855Y0153866D01*
X0325719Y0153893D01*
D02*
G37*
G36*
X0322943Y0153449D02*
X0322655D01*
Y0153162D01*
X0322711Y0153173D01*
X0322843Y0153261D01*
X0322932Y0153393D01*
X0322943Y0153449D01*
D02*
G37*
G36*
X0322455D02*
X0322167D01*
X0322178Y0153393D01*
X0322267Y0153261D01*
X0322399Y0153173D01*
X0322455Y0153162D01*
Y0153449D01*
D02*
G37*
G36*
X0329923Y0153445D02*
X0329635D01*
Y0153157D01*
X0329691Y0153168D01*
X0329823Y0153257D01*
X0329912Y0153389D01*
X0329923Y0153445D01*
D02*
G37*
G36*
X0329435D02*
X0329147D01*
X0329158Y0153389D01*
X0329247Y0153257D01*
X0329379Y0153168D01*
X0329435Y0153157D01*
Y0153445D01*
D02*
G37*
G36*
X0327383D02*
X0327095D01*
Y0153157D01*
X0327151Y0153168D01*
X0327283Y0153257D01*
X0327372Y0153389D01*
X0327383Y0153445D01*
D02*
G37*
G36*
X0326895D02*
X0326607D01*
X0326618Y0153389D01*
X0326707Y0153257D01*
X0326839Y0153168D01*
X0326895Y0153157D01*
Y0153445D01*
D02*
G37*
G36*
X0328259Y0152623D02*
X0328122Y0152596D01*
X0328007Y0152518D01*
X0327929Y0152403D01*
X0327902Y0152266D01*
X0327929Y0152130D01*
X0328007Y0152014D01*
X0328122Y0151936D01*
X0328259Y0151909D01*
X0328395Y0151936D01*
X0328511Y0152014D01*
X0328589Y0152130D01*
X0328616Y0152266D01*
X0328589Y0152403D01*
X0328511Y0152518D01*
X0328395Y0152596D01*
X0328259Y0152623D01*
D02*
G37*
G36*
X0326989D02*
X0326852Y0152596D01*
X0326737Y0152518D01*
X0326659Y0152403D01*
X0326632Y0152266D01*
X0326659Y0152130D01*
X0326737Y0152014D01*
X0326852Y0151936D01*
X0326989Y0151909D01*
X0327125Y0151936D01*
X0327241Y0152014D01*
X0327319Y0152130D01*
X0327346Y0152266D01*
X0327319Y0152403D01*
X0327241Y0152518D01*
X0327125Y0152596D01*
X0326989Y0152623D01*
D02*
G37*
G36*
X0323925Y0151378D02*
Y0151090D01*
X0324213D01*
X0324202Y0151147D01*
X0324113Y0151279D01*
X0323981Y0151367D01*
X0323925Y0151378D01*
D02*
G37*
G36*
X0323725D02*
X0323669Y0151367D01*
X0323537Y0151279D01*
X0323448Y0151147D01*
X0323437Y0151090D01*
X0323725D01*
Y0151378D01*
D02*
G37*
G36*
X0321385D02*
Y0151090D01*
X0321673D01*
X0321662Y0151147D01*
X0321573Y0151279D01*
X0321441Y0151367D01*
X0321385Y0151378D01*
D02*
G37*
G36*
X0321185D02*
X0321129Y0151367D01*
X0320997Y0151279D01*
X0320908Y0151147D01*
X0320897Y0151090D01*
X0321185D01*
Y0151378D01*
D02*
G37*
G36*
X0332184Y0151377D02*
Y0151089D01*
X0332472D01*
X0332461Y0151145D01*
X0332372Y0151277D01*
X0332240Y0151366D01*
X0332184Y0151377D01*
D02*
G37*
G36*
X0331984D02*
X0331928Y0151366D01*
X0331795Y0151277D01*
X0331707Y0151145D01*
X0331696Y0151089D01*
X0331984D01*
Y0151377D01*
D02*
G37*
G36*
X0329644D02*
Y0151089D01*
X0329932D01*
X0329921Y0151145D01*
X0329832Y0151277D01*
X0329700Y0151366D01*
X0329644Y0151377D01*
D02*
G37*
G36*
X0329444D02*
X0329388Y0151366D01*
X0329255Y0151277D01*
X0329167Y0151145D01*
X0329156Y0151089D01*
X0329444D01*
Y0151377D01*
D02*
G37*
G36*
X0326989Y0151353D02*
X0326852Y0151326D01*
X0326737Y0151248D01*
X0326659Y0151133D01*
X0326632Y0150996D01*
X0326659Y0150860D01*
X0326737Y0150744D01*
X0326852Y0150666D01*
X0326989Y0150639D01*
X0327125Y0150666D01*
X0327241Y0150744D01*
X0327319Y0150860D01*
X0327346Y0150996D01*
X0327319Y0151133D01*
X0327241Y0151248D01*
X0327125Y0151326D01*
X0326989Y0151353D01*
D02*
G37*
G36*
X0324213Y0150890D02*
X0323925D01*
Y0150603D01*
X0323981Y0150614D01*
X0324113Y0150702D01*
X0324202Y0150834D01*
X0324213Y0150890D01*
D02*
G37*
G36*
X0323725D02*
X0323437D01*
X0323448Y0150834D01*
X0323537Y0150702D01*
X0323669Y0150614D01*
X0323725Y0150603D01*
Y0150890D01*
D02*
G37*
G36*
X0321673D02*
X0321385D01*
Y0150603D01*
X0321441Y0150614D01*
X0321573Y0150702D01*
X0321662Y0150834D01*
X0321673Y0150890D01*
D02*
G37*
G36*
X0321185D02*
X0320897D01*
X0320908Y0150834D01*
X0320997Y0150702D01*
X0321129Y0150614D01*
X0321185Y0150603D01*
Y0150890D01*
D02*
G37*
G36*
X0332472Y0150889D02*
X0332184D01*
Y0150601D01*
X0332240Y0150612D01*
X0332372Y0150700D01*
X0332461Y0150833D01*
X0332472Y0150889D01*
D02*
G37*
G36*
X0331984D02*
X0331696D01*
X0331707Y0150833D01*
X0331795Y0150700D01*
X0331928Y0150612D01*
X0331984Y0150601D01*
Y0150889D01*
D02*
G37*
G36*
X0329932D02*
X0329644D01*
Y0150601D01*
X0329700Y0150612D01*
X0329832Y0150700D01*
X0329921Y0150833D01*
X0329932Y0150889D01*
D02*
G37*
G36*
X0329444D02*
X0329156D01*
X0329167Y0150833D01*
X0329255Y0150700D01*
X0329388Y0150612D01*
X0329444Y0150601D01*
Y0150889D01*
D02*
G37*
G36*
X0327089Y0150114D02*
Y0149826D01*
X0327377D01*
X0327366Y0149882D01*
X0327277Y0150015D01*
X0327145Y0150103D01*
X0327089Y0150114D01*
D02*
G37*
G36*
X0326889D02*
X0326833Y0150103D01*
X0326701Y0150015D01*
X0326612Y0149882D01*
X0326601Y0149826D01*
X0326889D01*
Y0150114D01*
D02*
G37*
G36*
X0332100Y0150057D02*
X0331963Y0150030D01*
X0331848Y0149952D01*
X0331770Y0149837D01*
X0331743Y0149700D01*
X0331770Y0149563D01*
X0331848Y0149448D01*
X0331963Y0149370D01*
X0332100Y0149343D01*
X0332237Y0149370D01*
X0332352Y0149448D01*
X0332430Y0149563D01*
X0332457Y0149700D01*
X0332430Y0149837D01*
X0332352Y0149952D01*
X0332237Y0150030D01*
X0332100Y0150057D01*
D02*
G37*
G36*
X0327377Y0149626D02*
X0327089D01*
Y0149338D01*
X0327145Y0149349D01*
X0327277Y0149438D01*
X0327366Y0149570D01*
X0327377Y0149626D01*
D02*
G37*
G36*
X0326889D02*
X0326601D01*
X0326612Y0149570D01*
X0326701Y0149438D01*
X0326833Y0149349D01*
X0326889Y0149338D01*
Y0149626D01*
D02*
G37*
G36*
X0324556Y0148859D02*
Y0148571D01*
X0324844D01*
X0324833Y0148627D01*
X0324745Y0148760D01*
X0324612Y0148848D01*
X0324556Y0148859D01*
D02*
G37*
G36*
X0324356D02*
X0324300Y0148848D01*
X0324168Y0148760D01*
X0324079Y0148627D01*
X0324068Y0148571D01*
X0324356D01*
Y0148859D01*
D02*
G37*
G36*
X0322655Y0148857D02*
Y0148569D01*
X0322943D01*
X0322932Y0148626D01*
X0322843Y0148758D01*
X0322711Y0148846D01*
X0322655Y0148857D01*
D02*
G37*
G36*
X0322455D02*
X0322399Y0148846D01*
X0322267Y0148758D01*
X0322178Y0148626D01*
X0322167Y0148569D01*
X0322455D01*
Y0148857D01*
D02*
G37*
G36*
X0332100Y0148857D02*
X0331963Y0148830D01*
X0331848Y0148752D01*
X0331770Y0148637D01*
X0331743Y0148500D01*
X0331770Y0148363D01*
X0331848Y0148248D01*
X0331963Y0148170D01*
X0332100Y0148143D01*
X0332237Y0148170D01*
X0332352Y0148248D01*
X0332430Y0148363D01*
X0332457Y0148500D01*
X0332430Y0148637D01*
X0332352Y0148752D01*
X0332237Y0148830D01*
X0332100Y0148857D01*
D02*
G37*
G36*
X0324844Y0148371D02*
X0324556D01*
Y0148083D01*
X0324612Y0148094D01*
X0324745Y0148183D01*
X0324833Y0148315D01*
X0324844Y0148371D01*
D02*
G37*
G36*
X0324356D02*
X0324068D01*
X0324079Y0148315D01*
X0324168Y0148183D01*
X0324300Y0148094D01*
X0324356Y0148083D01*
Y0148371D01*
D02*
G37*
G36*
X0322943Y0148369D02*
X0322655D01*
Y0148082D01*
X0322711Y0148093D01*
X0322843Y0148181D01*
X0322932Y0148313D01*
X0322943Y0148369D01*
D02*
G37*
G36*
X0322455D02*
X0322167D01*
X0322178Y0148313D01*
X0322267Y0148181D01*
X0322399Y0148093D01*
X0322455Y0148082D01*
Y0148369D01*
D02*
G37*
G36*
X0333460Y0148182D02*
Y0147894D01*
X0333747D01*
X0333736Y0147950D01*
X0333648Y0148082D01*
X0333516Y0148171D01*
X0333460Y0148182D01*
D02*
G37*
G36*
X0333260D02*
X0333203Y0148171D01*
X0333071Y0148082D01*
X0332983Y0147950D01*
X0332972Y0147894D01*
X0333260D01*
Y0148182D01*
D02*
G37*
G36*
X0333747Y0147694D02*
X0333460D01*
Y0147406D01*
X0333516Y0147417D01*
X0333648Y0147506D01*
X0333736Y0147638D01*
X0333747Y0147694D01*
D02*
G37*
G36*
X0333260D02*
X0332972D01*
X0332983Y0147638D01*
X0333071Y0147506D01*
X0333203Y0147417D01*
X0333260Y0147406D01*
Y0147694D01*
D02*
G37*
G36*
X0330900Y0147588D02*
Y0147300D01*
X0331188D01*
X0331177Y0147356D01*
X0331088Y0147488D01*
X0330956Y0147577D01*
X0330900Y0147588D01*
D02*
G37*
G36*
X0330700D02*
X0330644Y0147577D01*
X0330512Y0147488D01*
X0330423Y0147356D01*
X0330412Y0147300D01*
X0330700D01*
Y0147588D01*
D02*
G37*
G36*
X0329644Y0147567D02*
Y0147279D01*
X0329932D01*
X0329921Y0147335D01*
X0329832Y0147467D01*
X0329700Y0147556D01*
X0329644Y0147567D01*
D02*
G37*
G36*
X0329444D02*
X0329388Y0147556D01*
X0329255Y0147467D01*
X0329167Y0147335D01*
X0329156Y0147279D01*
X0329444D01*
Y0147567D01*
D02*
G37*
G36*
X0327104D02*
Y0147279D01*
X0327392D01*
X0327381Y0147335D01*
X0327292Y0147467D01*
X0327160Y0147556D01*
X0327104Y0147567D01*
D02*
G37*
G36*
X0326904D02*
X0326848Y0147556D01*
X0326715Y0147467D01*
X0326627Y0147335D01*
X0326616Y0147279D01*
X0326904D01*
Y0147567D01*
D02*
G37*
G36*
X0331188Y0147100D02*
X0330900D01*
Y0146812D01*
X0330956Y0146823D01*
X0331088Y0146912D01*
X0331177Y0147044D01*
X0331188Y0147100D01*
D02*
G37*
G36*
X0330700D02*
X0330412D01*
X0330423Y0147044D01*
X0330512Y0146912D01*
X0330644Y0146823D01*
X0330700Y0146812D01*
Y0147100D01*
D02*
G37*
G36*
X0329932Y0147079D02*
X0329644D01*
Y0146791D01*
X0329700Y0146802D01*
X0329832Y0146890D01*
X0329921Y0147023D01*
X0329932Y0147079D01*
D02*
G37*
G36*
X0329444D02*
X0329156D01*
X0329167Y0147023D01*
X0329255Y0146890D01*
X0329388Y0146802D01*
X0329444Y0146791D01*
Y0147079D01*
D02*
G37*
G36*
X0327392D02*
X0327104D01*
Y0146791D01*
X0327160Y0146802D01*
X0327292Y0146890D01*
X0327381Y0147023D01*
X0327392Y0147079D01*
D02*
G37*
G36*
X0326904D02*
X0326616D01*
X0326627Y0147023D01*
X0326715Y0146890D01*
X0326848Y0146802D01*
X0326904Y0146791D01*
Y0147079D01*
D02*
G37*
G36*
X0323925Y0146298D02*
Y0146010D01*
X0324213D01*
X0324202Y0146067D01*
X0324113Y0146199D01*
X0323981Y0146287D01*
X0323925Y0146298D01*
D02*
G37*
G36*
X0323725D02*
X0323669Y0146287D01*
X0323537Y0146199D01*
X0323448Y0146067D01*
X0323437Y0146010D01*
X0323725D01*
Y0146298D01*
D02*
G37*
G36*
X0321385D02*
Y0146010D01*
X0321673D01*
X0321662Y0146067D01*
X0321573Y0146199D01*
X0321441Y0146287D01*
X0321385Y0146298D01*
D02*
G37*
G36*
X0321185D02*
X0321129Y0146287D01*
X0320997Y0146199D01*
X0320908Y0146067D01*
X0320897Y0146010D01*
X0321185D01*
Y0146298D01*
D02*
G37*
G36*
X0333339Y0146273D02*
X0333202Y0146246D01*
X0333087Y0146168D01*
X0333009Y0146053D01*
X0332982Y0145916D01*
X0333009Y0145780D01*
X0333087Y0145664D01*
X0333202Y0145586D01*
X0333339Y0145559D01*
X0333475Y0145586D01*
X0333591Y0145664D01*
X0333669Y0145780D01*
X0333696Y0145916D01*
X0333669Y0146053D01*
X0333591Y0146168D01*
X0333475Y0146246D01*
X0333339Y0146273D01*
D02*
G37*
G36*
X0323725Y0145810D02*
X0323437D01*
X0323448Y0145754D01*
X0323537Y0145622D01*
X0323669Y0145534D01*
X0323725Y0145523D01*
Y0145810D01*
D02*
G37*
G36*
X0321673D02*
X0321385D01*
Y0145523D01*
X0321441Y0145534D01*
X0321573Y0145622D01*
X0321662Y0145754D01*
X0321673Y0145810D01*
D02*
G37*
G36*
X0321185D02*
X0320897D01*
X0320908Y0145754D01*
X0320997Y0145622D01*
X0321129Y0145534D01*
X0321185Y0145523D01*
Y0145810D01*
D02*
G37*
G36*
X0324570Y0145673D02*
Y0145385D01*
X0324857D01*
X0324846Y0145441D01*
X0324758Y0145573D01*
X0324626Y0145662D01*
X0324570Y0145673D01*
D02*
G37*
G36*
X0324213Y0145810D02*
X0323925D01*
Y0145523D01*
X0323981Y0145534D01*
X0324019Y0145559D01*
X0324110Y0145467D01*
X0324093Y0145441D01*
X0324082Y0145385D01*
X0324370D01*
Y0145673D01*
X0324313Y0145662D01*
X0324276Y0145637D01*
X0324184Y0145728D01*
X0324202Y0145754D01*
X0324213Y0145810D01*
D02*
G37*
G36*
X0324857Y0145185D02*
X0324570D01*
Y0144897D01*
X0324626Y0144908D01*
X0324758Y0144997D01*
X0324846Y0145129D01*
X0324857Y0145185D01*
D02*
G37*
G36*
X0324370D02*
X0324082D01*
X0324093Y0145129D01*
X0324181Y0144997D01*
X0324313Y0144908D01*
X0324370Y0144897D01*
Y0145185D01*
D02*
G37*
G36*
X0333339Y0145003D02*
X0333202Y0144976D01*
X0333087Y0144898D01*
X0333009Y0144783D01*
X0332982Y0144646D01*
X0333009Y0144510D01*
X0333087Y0144394D01*
X0333202Y0144316D01*
X0333339Y0144289D01*
X0333475Y0144316D01*
X0333591Y0144394D01*
X0333669Y0144510D01*
X0333696Y0144646D01*
X0333669Y0144783D01*
X0333591Y0144898D01*
X0333475Y0144976D01*
X0333339Y0145003D01*
D02*
G37*
G36*
X0332069D02*
X0331932Y0144976D01*
X0331817Y0144898D01*
X0331739Y0144783D01*
X0331712Y0144646D01*
X0331739Y0144510D01*
X0331817Y0144394D01*
X0331932Y0144316D01*
X0332069Y0144289D01*
X0332205Y0144316D01*
X0332321Y0144394D01*
X0332399Y0144510D01*
X0332426Y0144646D01*
X0332399Y0144783D01*
X0332321Y0144898D01*
X0332205Y0144976D01*
X0332069Y0145003D01*
D02*
G37*
G36*
X0330809Y0144993D02*
X0330672Y0144966D01*
X0330556Y0144889D01*
X0330479Y0144773D01*
X0330452Y0144636D01*
X0330479Y0144500D01*
X0330556Y0144384D01*
X0330672Y0144306D01*
X0330809Y0144279D01*
X0330945Y0144306D01*
X0331061Y0144384D01*
X0331139Y0144500D01*
X0331166Y0144636D01*
X0331139Y0144773D01*
X0331061Y0144889D01*
X0330945Y0144966D01*
X0330809Y0144993D01*
D02*
G37*
G36*
X0322655Y0143777D02*
Y0143489D01*
X0322943D01*
X0322932Y0143546D01*
X0322843Y0143678D01*
X0322711Y0143766D01*
X0322655Y0143777D01*
D02*
G37*
G36*
X0322455D02*
X0322399Y0143766D01*
X0322267Y0143678D01*
X0322178Y0143546D01*
X0322167Y0143489D01*
X0322455D01*
Y0143777D01*
D02*
G37*
G36*
X0332184Y0143757D02*
Y0143469D01*
X0332472D01*
X0332461Y0143525D01*
X0332372Y0143657D01*
X0332240Y0143746D01*
X0332184Y0143757D01*
D02*
G37*
G36*
X0331984D02*
X0331928Y0143746D01*
X0331795Y0143657D01*
X0331707Y0143525D01*
X0331696Y0143469D01*
X0331984D01*
Y0143757D01*
D02*
G37*
G36*
X0329644D02*
Y0143469D01*
X0329932D01*
X0329921Y0143525D01*
X0329832Y0143657D01*
X0329700Y0143746D01*
X0329644Y0143757D01*
D02*
G37*
G36*
X0329444D02*
X0329388Y0143746D01*
X0329255Y0143657D01*
X0329167Y0143525D01*
X0329156Y0143469D01*
X0329444D01*
Y0143757D01*
D02*
G37*
G36*
X0327104D02*
Y0143469D01*
X0327392D01*
X0327381Y0143525D01*
X0327292Y0143657D01*
X0327160Y0143746D01*
X0327104Y0143757D01*
D02*
G37*
G36*
X0326904D02*
X0326848Y0143746D01*
X0326715Y0143657D01*
X0326627Y0143525D01*
X0326616Y0143469D01*
X0326904D01*
Y0143757D01*
D02*
G37*
G36*
X0325719Y0143733D02*
X0325582Y0143706D01*
X0325467Y0143628D01*
X0325389Y0143513D01*
X0325362Y0143376D01*
X0325389Y0143240D01*
X0325467Y0143124D01*
X0325582Y0143046D01*
X0325719Y0143019D01*
X0325855Y0143046D01*
X0325971Y0143124D01*
X0326049Y0143240D01*
X0326076Y0143376D01*
X0326049Y0143513D01*
X0325971Y0143628D01*
X0325855Y0143706D01*
X0325719Y0143733D01*
D02*
G37*
G36*
X0324459Y0143723D02*
X0324322Y0143696D01*
X0324207Y0143619D01*
X0324129Y0143503D01*
X0324102Y0143366D01*
X0324129Y0143230D01*
X0324207Y0143114D01*
X0324322Y0143036D01*
X0324459Y0143009D01*
X0324595Y0143036D01*
X0324711Y0143114D01*
X0324789Y0143230D01*
X0324816Y0143366D01*
X0324789Y0143503D01*
X0324711Y0143619D01*
X0324595Y0143696D01*
X0324459Y0143723D01*
D02*
G37*
G36*
X0322943Y0143289D02*
X0322655D01*
Y0143002D01*
X0322711Y0143013D01*
X0322843Y0143101D01*
X0322932Y0143233D01*
X0322943Y0143289D01*
D02*
G37*
G36*
X0322455D02*
X0322167D01*
X0322178Y0143233D01*
X0322267Y0143101D01*
X0322399Y0143013D01*
X0322455Y0143002D01*
Y0143289D01*
D02*
G37*
G36*
X0332472Y0143269D02*
X0332184D01*
Y0142981D01*
X0332240Y0142992D01*
X0332372Y0143080D01*
X0332461Y0143213D01*
X0332472Y0143269D01*
D02*
G37*
G36*
X0331984D02*
X0331696D01*
X0331707Y0143213D01*
X0331795Y0143080D01*
X0331928Y0142992D01*
X0331984Y0142981D01*
Y0143269D01*
D02*
G37*
G36*
X0329932D02*
X0329644D01*
Y0142981D01*
X0329700Y0142992D01*
X0329832Y0143080D01*
X0329921Y0143213D01*
X0329932Y0143269D01*
D02*
G37*
G36*
X0329444D02*
X0329156D01*
X0329167Y0143213D01*
X0329255Y0143080D01*
X0329388Y0142992D01*
X0329444Y0142981D01*
Y0143269D01*
D02*
G37*
G36*
X0327392D02*
X0327104D01*
Y0142981D01*
X0327160Y0142992D01*
X0327292Y0143080D01*
X0327381Y0143213D01*
X0327392Y0143269D01*
D02*
G37*
G36*
X0326904D02*
X0326616D01*
X0326627Y0143213D01*
X0326715Y0143080D01*
X0326848Y0142992D01*
X0326904Y0142981D01*
Y0143269D01*
D02*
G37*
G36*
X0335000Y0143857D02*
X0334863Y0143830D01*
X0334748Y0143752D01*
X0334670Y0143637D01*
X0334643Y0143500D01*
X0334670Y0143363D01*
X0334721Y0143287D01*
X0334738Y0143200D01*
X0334721Y0143113D01*
X0334670Y0143037D01*
X0334643Y0142900D01*
X0334670Y0142763D01*
X0334748Y0142648D01*
X0334863Y0142570D01*
X0335000Y0142543D01*
X0335137Y0142570D01*
X0335252Y0142648D01*
X0335330Y0142763D01*
X0335357Y0142900D01*
X0335330Y0143037D01*
X0335279Y0143113D01*
X0335262Y0143200D01*
X0335279Y0143287D01*
X0335330Y0143363D01*
X0335357Y0143500D01*
X0335330Y0143637D01*
X0335252Y0143752D01*
X0335137Y0143830D01*
X0335000Y0143857D01*
D02*
G37*
G36*
X0328259Y0142463D02*
X0328122Y0142436D01*
X0328007Y0142358D01*
X0327929Y0142243D01*
X0327902Y0142106D01*
X0327929Y0141970D01*
X0328007Y0141854D01*
X0328122Y0141776D01*
X0328259Y0141749D01*
X0328395Y0141776D01*
X0328511Y0141854D01*
X0328589Y0141970D01*
X0328616Y0142106D01*
X0328589Y0142243D01*
X0328511Y0142358D01*
X0328395Y0142436D01*
X0328259Y0142463D01*
D02*
G37*
G36*
X0324555Y0141223D02*
Y0140935D01*
X0324843D01*
X0324832Y0140991D01*
X0324743Y0141123D01*
X0324611Y0141212D01*
X0324555Y0141223D01*
D02*
G37*
G36*
X0324355D02*
X0324299Y0141212D01*
X0324167Y0141123D01*
X0324078Y0140991D01*
X0324067Y0140935D01*
X0324355D01*
Y0141223D01*
D02*
G37*
G36*
X0321385Y0141218D02*
Y0140930D01*
X0321673D01*
X0321662Y0140987D01*
X0321573Y0141119D01*
X0321441Y0141207D01*
X0321385Y0141218D01*
D02*
G37*
G36*
X0321185D02*
X0321129Y0141207D01*
X0320997Y0141119D01*
X0320908Y0140987D01*
X0320897Y0140930D01*
X0321185D01*
Y0141218D01*
D02*
G37*
G36*
X0332069Y0141193D02*
X0331932Y0141166D01*
X0331817Y0141088D01*
X0331739Y0140973D01*
X0331712Y0140836D01*
X0331739Y0140700D01*
X0331817Y0140584D01*
X0331932Y0140506D01*
X0332069Y0140479D01*
X0332205Y0140506D01*
X0332321Y0140584D01*
X0332399Y0140700D01*
X0332426Y0140836D01*
X0332399Y0140973D01*
X0332321Y0141088D01*
X0332205Y0141166D01*
X0332069Y0141193D01*
D02*
G37*
G36*
X0328259D02*
X0328122Y0141166D01*
X0328007Y0141088D01*
X0327929Y0140973D01*
X0327902Y0140836D01*
X0327929Y0140700D01*
X0328007Y0140584D01*
X0328122Y0140506D01*
X0328259Y0140479D01*
X0328395Y0140506D01*
X0328511Y0140584D01*
X0328589Y0140700D01*
X0328616Y0140836D01*
X0328589Y0140973D01*
X0328511Y0141088D01*
X0328395Y0141166D01*
X0328259Y0141193D01*
D02*
G37*
G36*
X0326989D02*
X0326852Y0141166D01*
X0326737Y0141088D01*
X0326659Y0140973D01*
X0326632Y0140836D01*
X0326659Y0140700D01*
X0326737Y0140584D01*
X0326852Y0140506D01*
X0326989Y0140479D01*
X0327125Y0140506D01*
X0327241Y0140584D01*
X0327319Y0140700D01*
X0327346Y0140836D01*
X0327319Y0140973D01*
X0327241Y0141088D01*
X0327125Y0141166D01*
X0326989Y0141193D01*
D02*
G37*
G36*
X0330809Y0141183D02*
X0330672Y0141156D01*
X0330556Y0141079D01*
X0330479Y0140963D01*
X0330452Y0140826D01*
X0330479Y0140690D01*
X0330556Y0140574D01*
X0330672Y0140496D01*
X0330809Y0140469D01*
X0330945Y0140496D01*
X0331061Y0140574D01*
X0331139Y0140690D01*
X0331166Y0140826D01*
X0331139Y0140963D01*
X0331061Y0141079D01*
X0330945Y0141156D01*
X0330809Y0141183D01*
D02*
G37*
G36*
X0324843Y0140735D02*
X0324555D01*
Y0140447D01*
X0324611Y0140458D01*
X0324743Y0140547D01*
X0324832Y0140679D01*
X0324843Y0140735D01*
D02*
G37*
G36*
X0324355D02*
X0324067D01*
X0324078Y0140679D01*
X0324167Y0140547D01*
X0324299Y0140458D01*
X0324355Y0140447D01*
Y0140735D01*
D02*
G37*
G36*
X0321673Y0140730D02*
X0321385D01*
Y0140443D01*
X0321441Y0140454D01*
X0321573Y0140542D01*
X0321662Y0140674D01*
X0321673Y0140730D01*
D02*
G37*
G36*
X0321185D02*
X0320897D01*
X0320908Y0140674D01*
X0320997Y0140542D01*
X0321129Y0140454D01*
X0321185Y0140443D01*
Y0140730D01*
D02*
G37*
G36*
X0329645Y0139963D02*
Y0139675D01*
X0329933D01*
X0329922Y0139731D01*
X0329833Y0139863D01*
X0329701Y0139952D01*
X0329645Y0139963D01*
D02*
G37*
G36*
X0329445D02*
X0329389Y0139952D01*
X0329257Y0139863D01*
X0329168Y0139731D01*
X0329157Y0139675D01*
X0329445D01*
Y0139963D01*
D02*
G37*
G36*
X0328365D02*
Y0139675D01*
X0328653D01*
X0328642Y0139731D01*
X0328553Y0139863D01*
X0328421Y0139952D01*
X0328365Y0139963D01*
D02*
G37*
G36*
X0328165D02*
X0328109Y0139952D01*
X0327977Y0139863D01*
X0327888Y0139731D01*
X0327877Y0139675D01*
X0328165D01*
Y0139963D01*
D02*
G37*
G36*
X0326989Y0139923D02*
X0326852Y0139896D01*
X0326737Y0139818D01*
X0326659Y0139703D01*
X0326632Y0139566D01*
X0326659Y0139430D01*
X0326737Y0139314D01*
X0326852Y0139236D01*
X0326989Y0139209D01*
X0327125Y0139236D01*
X0327241Y0139314D01*
X0327319Y0139430D01*
X0327346Y0139566D01*
X0327319Y0139703D01*
X0327241Y0139818D01*
X0327125Y0139896D01*
X0326989Y0139923D01*
D02*
G37*
G36*
X0325719D02*
X0325582Y0139896D01*
X0325467Y0139818D01*
X0325389Y0139703D01*
X0325362Y0139566D01*
X0325389Y0139430D01*
X0325467Y0139314D01*
X0325582Y0139236D01*
X0325719Y0139209D01*
X0325855Y0139236D01*
X0325971Y0139314D01*
X0326049Y0139430D01*
X0326076Y0139566D01*
X0326049Y0139703D01*
X0325971Y0139818D01*
X0325855Y0139896D01*
X0325719Y0139923D01*
D02*
G37*
G36*
X0324459Y0139913D02*
X0324322Y0139886D01*
X0324207Y0139809D01*
X0324129Y0139693D01*
X0324102Y0139556D01*
X0324129Y0139420D01*
X0324207Y0139304D01*
X0324322Y0139226D01*
X0324459Y0139199D01*
X0324595Y0139226D01*
X0324711Y0139304D01*
X0324789Y0139420D01*
X0324816Y0139556D01*
X0324789Y0139693D01*
X0324711Y0139809D01*
X0324595Y0139886D01*
X0324459Y0139913D01*
D02*
G37*
G36*
X0329933Y0139475D02*
X0329645D01*
Y0139187D01*
X0329701Y0139198D01*
X0329833Y0139287D01*
X0329922Y0139419D01*
X0329933Y0139475D01*
D02*
G37*
G36*
X0329445D02*
X0329157D01*
X0329168Y0139419D01*
X0329257Y0139287D01*
X0329389Y0139198D01*
X0329445Y0139187D01*
Y0139475D01*
D02*
G37*
G36*
X0328653D02*
X0328365D01*
Y0139187D01*
X0328421Y0139198D01*
X0328553Y0139287D01*
X0328642Y0139419D01*
X0328653Y0139475D01*
D02*
G37*
G36*
X0328165D02*
X0327877D01*
X0327888Y0139419D01*
X0327977Y0139287D01*
X0328109Y0139198D01*
X0328165Y0139187D01*
Y0139475D01*
D02*
G37*
G36*
X0322655Y0138697D02*
Y0138409D01*
X0322943D01*
X0322932Y0138466D01*
X0322843Y0138598D01*
X0322711Y0138686D01*
X0322655Y0138697D01*
D02*
G37*
G36*
X0322455D02*
X0322399Y0138686D01*
X0322267Y0138598D01*
X0322178Y0138466D01*
X0322167Y0138409D01*
X0322455D01*
Y0138697D01*
D02*
G37*
G36*
X0330915Y0138693D02*
Y0138405D01*
X0331203D01*
X0331192Y0138461D01*
X0331103Y0138593D01*
X0330971Y0138682D01*
X0330915Y0138693D01*
D02*
G37*
G36*
X0330715D02*
X0330659Y0138682D01*
X0330527Y0138593D01*
X0330438Y0138461D01*
X0330427Y0138405D01*
X0330715D01*
Y0138693D01*
D02*
G37*
G36*
X0325834Y0138677D02*
Y0138389D01*
X0326122D01*
X0326111Y0138445D01*
X0326022Y0138577D01*
X0325890Y0138666D01*
X0325834Y0138677D01*
D02*
G37*
G36*
X0325634D02*
X0325578Y0138666D01*
X0325445Y0138577D01*
X0325357Y0138445D01*
X0325346Y0138389D01*
X0325634D01*
Y0138677D01*
D02*
G37*
G36*
X0332091Y0138653D02*
X0331955Y0138626D01*
X0331839Y0138548D01*
X0331761Y0138433D01*
X0331734Y0138296D01*
X0331761Y0138160D01*
X0331839Y0138044D01*
X0331955Y0137966D01*
X0332091Y0137939D01*
X0332228Y0137966D01*
X0332343Y0138044D01*
X0332421Y0138160D01*
X0332448Y0138296D01*
X0332421Y0138433D01*
X0332343Y0138548D01*
X0332228Y0138626D01*
X0332091Y0138653D01*
D02*
G37*
G36*
X0328259D02*
X0328122Y0138626D01*
X0328007Y0138548D01*
X0327929Y0138433D01*
X0327902Y0138296D01*
X0327929Y0138160D01*
X0328007Y0138044D01*
X0328122Y0137966D01*
X0328259Y0137939D01*
X0328395Y0137966D01*
X0328511Y0138044D01*
X0328589Y0138160D01*
X0328616Y0138296D01*
X0328589Y0138433D01*
X0328511Y0138548D01*
X0328395Y0138626D01*
X0328259Y0138653D01*
D02*
G37*
G36*
X0333351Y0138643D02*
X0333215Y0138616D01*
X0333099Y0138539D01*
X0333021Y0138423D01*
X0332994Y0138286D01*
X0333021Y0138150D01*
X0333099Y0138034D01*
X0333215Y0137956D01*
X0333351Y0137929D01*
X0333488Y0137956D01*
X0333604Y0138034D01*
X0333681Y0138150D01*
X0333708Y0138286D01*
X0333681Y0138423D01*
X0333604Y0138539D01*
X0333488Y0138616D01*
X0333351Y0138643D01*
D02*
G37*
G36*
X0329529D02*
X0329392Y0138616D01*
X0329277Y0138539D01*
X0329199Y0138423D01*
X0329172Y0138286D01*
X0329199Y0138150D01*
X0329277Y0138034D01*
X0329392Y0137956D01*
X0329529Y0137929D01*
X0329665Y0137956D01*
X0329781Y0138034D01*
X0329859Y0138150D01*
X0329886Y0138286D01*
X0329859Y0138423D01*
X0329781Y0138539D01*
X0329665Y0138616D01*
X0329529Y0138643D01*
D02*
G37*
G36*
X0322943Y0138209D02*
X0322655D01*
Y0137922D01*
X0322711Y0137933D01*
X0322843Y0138021D01*
X0322932Y0138153D01*
X0322943Y0138209D01*
D02*
G37*
G36*
X0322455D02*
X0322167D01*
X0322178Y0138153D01*
X0322267Y0138021D01*
X0322399Y0137933D01*
X0322455Y0137922D01*
Y0138209D01*
D02*
G37*
G36*
X0331203Y0138205D02*
X0330915D01*
Y0137917D01*
X0330971Y0137928D01*
X0331103Y0138017D01*
X0331192Y0138149D01*
X0331203Y0138205D01*
D02*
G37*
G36*
X0330715D02*
X0330427D01*
X0330438Y0138149D01*
X0330527Y0138017D01*
X0330659Y0137928D01*
X0330715Y0137917D01*
Y0138205D01*
D02*
G37*
G36*
X0326122Y0138189D02*
X0325834D01*
Y0137901D01*
X0325890Y0137912D01*
X0326022Y0138000D01*
X0326111Y0138133D01*
X0326122Y0138189D01*
D02*
G37*
G36*
X0325634D02*
X0325346D01*
X0325357Y0138133D01*
X0325445Y0138000D01*
X0325578Y0137912D01*
X0325634Y0137901D01*
Y0138189D01*
D02*
G37*
G36*
X0333454Y0137407D02*
Y0137119D01*
X0333742D01*
X0333731Y0137175D01*
X0333642Y0137307D01*
X0333510Y0137396D01*
X0333454Y0137407D01*
D02*
G37*
G36*
X0333254D02*
X0333198Y0137396D01*
X0333065Y0137307D01*
X0332977Y0137175D01*
X0332966Y0137119D01*
X0333254D01*
Y0137407D01*
D02*
G37*
G36*
X0332069Y0137383D02*
X0331932Y0137356D01*
X0331817Y0137278D01*
X0331739Y0137163D01*
X0331712Y0137026D01*
X0331739Y0136890D01*
X0331817Y0136774D01*
X0331932Y0136696D01*
X0332069Y0136669D01*
X0332205Y0136696D01*
X0332321Y0136774D01*
X0332399Y0136890D01*
X0332426Y0137026D01*
X0332399Y0137163D01*
X0332321Y0137278D01*
X0332205Y0137356D01*
X0332069Y0137383D01*
D02*
G37*
G36*
X0328259D02*
X0328122Y0137356D01*
X0328007Y0137278D01*
X0327929Y0137163D01*
X0327902Y0137026D01*
X0327929Y0136890D01*
X0328007Y0136774D01*
X0328122Y0136696D01*
X0328259Y0136669D01*
X0328395Y0136696D01*
X0328511Y0136774D01*
X0328589Y0136890D01*
X0328616Y0137026D01*
X0328589Y0137163D01*
X0328511Y0137278D01*
X0328395Y0137356D01*
X0328259Y0137383D01*
D02*
G37*
G36*
X0326989D02*
X0326852Y0137356D01*
X0326737Y0137278D01*
X0326659Y0137163D01*
X0326632Y0137026D01*
X0326659Y0136890D01*
X0326737Y0136774D01*
X0326852Y0136696D01*
X0326989Y0136669D01*
X0327125Y0136696D01*
X0327241Y0136774D01*
X0327319Y0136890D01*
X0327346Y0137026D01*
X0327319Y0137163D01*
X0327241Y0137278D01*
X0327125Y0137356D01*
X0326989Y0137383D01*
D02*
G37*
G36*
X0330809Y0137373D02*
X0330672Y0137346D01*
X0330556Y0137269D01*
X0330479Y0137153D01*
X0330452Y0137016D01*
X0330479Y0136880D01*
X0330556Y0136764D01*
X0330672Y0136686D01*
X0330809Y0136659D01*
X0330945Y0136686D01*
X0331061Y0136764D01*
X0331139Y0136880D01*
X0331166Y0137016D01*
X0331139Y0137153D01*
X0331061Y0137269D01*
X0330945Y0137346D01*
X0330809Y0137373D01*
D02*
G37*
G36*
X0329529D02*
X0329392Y0137346D01*
X0329277Y0137269D01*
X0329199Y0137153D01*
X0329172Y0137016D01*
X0329199Y0136880D01*
X0329277Y0136764D01*
X0329392Y0136686D01*
X0329529Y0136659D01*
X0329665Y0136686D01*
X0329781Y0136764D01*
X0329859Y0136880D01*
X0329886Y0137016D01*
X0329859Y0137153D01*
X0329781Y0137269D01*
X0329665Y0137346D01*
X0329529Y0137373D01*
D02*
G37*
G36*
X0333742Y0136919D02*
X0333454D01*
Y0136631D01*
X0333510Y0136642D01*
X0333642Y0136730D01*
X0333731Y0136863D01*
X0333742Y0136919D01*
D02*
G37*
G36*
X0333254D02*
X0332966D01*
X0332977Y0136863D01*
X0333065Y0136730D01*
X0333198Y0136642D01*
X0333254Y0136631D01*
Y0136919D01*
D02*
G37*
G36*
X0328365Y0136153D02*
Y0135865D01*
X0328653D01*
X0328642Y0135921D01*
X0328553Y0136053D01*
X0328421Y0136142D01*
X0328365Y0136153D01*
D02*
G37*
G36*
X0328165D02*
X0328109Y0136142D01*
X0327977Y0136053D01*
X0327888Y0135921D01*
X0327877Y0135865D01*
X0328165D01*
Y0136153D01*
D02*
G37*
G36*
X0325835Y0136143D02*
Y0135855D01*
X0326123D01*
X0326112Y0135911D01*
X0326023Y0136043D01*
X0325891Y0136132D01*
X0325835Y0136143D01*
D02*
G37*
G36*
X0325635D02*
X0325579Y0136132D01*
X0325447Y0136043D01*
X0325358Y0135911D01*
X0325347Y0135855D01*
X0325635D01*
Y0136143D01*
D02*
G37*
G36*
X0323925Y0136138D02*
Y0135850D01*
X0324213D01*
X0324202Y0135907D01*
X0324113Y0136039D01*
X0323981Y0136127D01*
X0323925Y0136138D01*
D02*
G37*
G36*
X0323725D02*
X0323669Y0136127D01*
X0323537Y0136039D01*
X0323448Y0135907D01*
X0323437Y0135850D01*
X0323725D01*
Y0136138D01*
D02*
G37*
G36*
X0321385D02*
Y0135850D01*
X0321673D01*
X0321662Y0135907D01*
X0321573Y0136039D01*
X0321441Y0136127D01*
X0321385Y0136138D01*
D02*
G37*
G36*
X0321185D02*
X0321129Y0136127D01*
X0320997Y0136039D01*
X0320908Y0135907D01*
X0320897Y0135850D01*
X0321185D01*
Y0136138D01*
D02*
G37*
G36*
X0326989Y0136113D02*
X0326852Y0136086D01*
X0326737Y0136008D01*
X0326659Y0135893D01*
X0326632Y0135756D01*
X0326659Y0135620D01*
X0326737Y0135504D01*
X0326852Y0135426D01*
X0326989Y0135399D01*
X0327125Y0135426D01*
X0327241Y0135504D01*
X0327319Y0135620D01*
X0327346Y0135756D01*
X0327319Y0135893D01*
X0327241Y0136008D01*
X0327125Y0136086D01*
X0326989Y0136113D01*
D02*
G37*
G36*
X0328653Y0135665D02*
X0328365D01*
Y0135377D01*
X0328421Y0135388D01*
X0328553Y0135477D01*
X0328642Y0135609D01*
X0328653Y0135665D01*
D02*
G37*
G36*
X0328165D02*
X0327877D01*
X0327888Y0135609D01*
X0327977Y0135477D01*
X0328109Y0135388D01*
X0328165Y0135377D01*
Y0135665D01*
D02*
G37*
G36*
X0326123Y0135655D02*
X0325835D01*
Y0135367D01*
X0325891Y0135378D01*
X0326023Y0135467D01*
X0326112Y0135599D01*
X0326123Y0135655D01*
D02*
G37*
G36*
X0325635D02*
X0325347D01*
X0325358Y0135599D01*
X0325447Y0135467D01*
X0325579Y0135378D01*
X0325635Y0135367D01*
Y0135655D01*
D02*
G37*
G36*
X0324213Y0135650D02*
X0323925D01*
Y0135363D01*
X0323981Y0135374D01*
X0324113Y0135462D01*
X0324202Y0135594D01*
X0324213Y0135650D01*
D02*
G37*
G36*
X0323725D02*
X0323437D01*
X0323448Y0135594D01*
X0323537Y0135462D01*
X0323669Y0135374D01*
X0323725Y0135363D01*
Y0135650D01*
D02*
G37*
G36*
X0321673D02*
X0321385D01*
Y0135363D01*
X0321441Y0135374D01*
X0321573Y0135462D01*
X0321662Y0135594D01*
X0321673Y0135650D01*
D02*
G37*
G36*
X0321185D02*
X0320897D01*
X0320908Y0135594D01*
X0320997Y0135462D01*
X0321129Y0135374D01*
X0321185Y0135363D01*
Y0135650D01*
D02*
G37*
G36*
X0328296Y0134888D02*
Y0134600D01*
X0328584D01*
X0328573Y0134656D01*
X0328484Y0134789D01*
X0328352Y0134877D01*
X0328296Y0134888D01*
D02*
G37*
G36*
X0328096D02*
X0328040Y0134877D01*
X0327908Y0134789D01*
X0327819Y0134656D01*
X0327808Y0134600D01*
X0328096D01*
Y0134888D01*
D02*
G37*
G36*
X0332175Y0134883D02*
Y0134595D01*
X0332463D01*
X0332452Y0134651D01*
X0332363Y0134783D01*
X0332231Y0134872D01*
X0332175Y0134883D01*
D02*
G37*
G36*
X0331975D02*
X0331919Y0134872D01*
X0331787Y0134783D01*
X0331698Y0134651D01*
X0331687Y0134595D01*
X0331975D01*
Y0134883D01*
D02*
G37*
G36*
X0328584Y0134400D02*
X0328296D01*
Y0134112D01*
X0328352Y0134124D01*
X0328484Y0134212D01*
X0328573Y0134344D01*
X0328584Y0134400D01*
D02*
G37*
G36*
X0328096D02*
X0327808D01*
X0327819Y0134344D01*
X0327908Y0134212D01*
X0328040Y0134124D01*
X0328096Y0134112D01*
Y0134400D01*
D02*
G37*
G36*
X0332463Y0134395D02*
X0332175D01*
Y0134107D01*
X0332231Y0134118D01*
X0332363Y0134207D01*
X0332452Y0134339D01*
X0332463Y0134395D01*
D02*
G37*
G36*
X0331975D02*
X0331687D01*
X0331698Y0134339D01*
X0331787Y0134207D01*
X0331919Y0134118D01*
X0331975Y0134107D01*
Y0134395D01*
D02*
G37*
G36*
X0333600Y0135122D02*
X0333463Y0135095D01*
X0333348Y0135017D01*
X0333270Y0134902D01*
X0333243Y0134765D01*
X0333270Y0134628D01*
X0333298Y0134587D01*
X0333338Y0134490D01*
X0333298Y0134393D01*
X0333270Y0134352D01*
X0333243Y0134215D01*
X0333270Y0134078D01*
X0333348Y0133963D01*
X0333463Y0133885D01*
X0333600Y0133858D01*
X0333737Y0133885D01*
X0333852Y0133963D01*
X0333930Y0134078D01*
X0333957Y0134215D01*
X0333930Y0134352D01*
X0333902Y0134393D01*
X0333862Y0134490D01*
X0333902Y0134587D01*
X0333930Y0134628D01*
X0333957Y0134765D01*
X0333930Y0134902D01*
X0333852Y0135017D01*
X0333737Y0135095D01*
X0333600Y0135122D01*
D02*
G37*
G36*
X0325195Y0133617D02*
Y0133329D01*
X0325483D01*
X0325472Y0133386D01*
X0325383Y0133518D01*
X0325251Y0133606D01*
X0325195Y0133617D01*
D02*
G37*
G36*
X0324995D02*
X0324939Y0133606D01*
X0324807Y0133518D01*
X0324718Y0133386D01*
X0324707Y0133329D01*
X0324995D01*
Y0133617D01*
D02*
G37*
G36*
X0322655D02*
Y0133329D01*
X0322943D01*
X0322932Y0133386D01*
X0322843Y0133518D01*
X0322711Y0133606D01*
X0322655Y0133617D01*
D02*
G37*
G36*
X0322455D02*
X0322399Y0133606D01*
X0322267Y0133518D01*
X0322178Y0133386D01*
X0322167Y0133329D01*
X0322455D01*
Y0133617D01*
D02*
G37*
G36*
X0327111Y0133612D02*
Y0133324D01*
X0327399D01*
X0327388Y0133380D01*
X0327300Y0133512D01*
X0327167Y0133601D01*
X0327111Y0133612D01*
D02*
G37*
G36*
X0326911D02*
X0326855Y0133601D01*
X0326723Y0133512D01*
X0326634Y0133380D01*
X0326623Y0133324D01*
X0326911D01*
Y0133612D01*
D02*
G37*
G36*
X0332069Y0133573D02*
X0331932Y0133546D01*
X0331817Y0133468D01*
X0331739Y0133353D01*
X0331712Y0133216D01*
X0331739Y0133080D01*
X0331817Y0132964D01*
X0331932Y0132886D01*
X0332069Y0132859D01*
X0332205Y0132886D01*
X0332321Y0132964D01*
X0332399Y0133080D01*
X0332426Y0133216D01*
X0332399Y0133353D01*
X0332321Y0133468D01*
X0332205Y0133546D01*
X0332069Y0133573D01*
D02*
G37*
G36*
X0329529D02*
X0329392Y0133546D01*
X0329277Y0133468D01*
X0329199Y0133353D01*
X0329172Y0133216D01*
X0329199Y0133080D01*
X0329277Y0132964D01*
X0329392Y0132886D01*
X0329529Y0132859D01*
X0329665Y0132886D01*
X0329781Y0132964D01*
X0329859Y0133080D01*
X0329886Y0133216D01*
X0329859Y0133353D01*
X0329781Y0133468D01*
X0329665Y0133546D01*
X0329529Y0133573D01*
D02*
G37*
G36*
X0330809Y0133563D02*
X0330672Y0133536D01*
X0330556Y0133459D01*
X0330479Y0133343D01*
X0330452Y0133206D01*
X0330479Y0133070D01*
X0330556Y0132954D01*
X0330672Y0132876D01*
X0330809Y0132849D01*
X0330945Y0132876D01*
X0331061Y0132954D01*
X0331139Y0133070D01*
X0331166Y0133206D01*
X0331139Y0133343D01*
X0331061Y0133459D01*
X0330945Y0133536D01*
X0330809Y0133563D01*
D02*
G37*
G36*
X0328269D02*
X0328132Y0133536D01*
X0328017Y0133459D01*
X0327939Y0133343D01*
X0327912Y0133206D01*
X0327939Y0133070D01*
X0328017Y0132954D01*
X0328132Y0132876D01*
X0328269Y0132849D01*
X0328405Y0132876D01*
X0328521Y0132954D01*
X0328599Y0133070D01*
X0328626Y0133206D01*
X0328599Y0133343D01*
X0328521Y0133459D01*
X0328405Y0133536D01*
X0328269Y0133563D01*
D02*
G37*
G36*
X0325483Y0133129D02*
X0325195D01*
Y0132842D01*
X0325251Y0132853D01*
X0325383Y0132941D01*
X0325472Y0133073D01*
X0325483Y0133129D01*
D02*
G37*
G36*
X0324995D02*
X0324707D01*
X0324718Y0133073D01*
X0324807Y0132941D01*
X0324939Y0132853D01*
X0324995Y0132842D01*
Y0133129D01*
D02*
G37*
G36*
X0322943D02*
X0322655D01*
Y0132842D01*
X0322711Y0132853D01*
X0322843Y0132941D01*
X0322932Y0133073D01*
X0322943Y0133129D01*
D02*
G37*
G36*
X0322455D02*
X0322167D01*
X0322178Y0133073D01*
X0322267Y0132941D01*
X0322399Y0132853D01*
X0322455Y0132842D01*
Y0133129D01*
D02*
G37*
G36*
X0327399Y0133124D02*
X0327111D01*
Y0132836D01*
X0327167Y0132847D01*
X0327300Y0132935D01*
X0327388Y0133068D01*
X0327399Y0133124D01*
D02*
G37*
G36*
X0326911D02*
X0326623D01*
X0326634Y0133068D01*
X0326723Y0132935D01*
X0326855Y0132847D01*
X0326911Y0132836D01*
Y0133124D01*
D02*
G37*
G36*
X0333460Y0132973D02*
Y0132685D01*
X0333747D01*
X0333736Y0132741D01*
X0333648Y0132873D01*
X0333516Y0132962D01*
X0333460Y0132973D01*
D02*
G37*
G36*
X0333260D02*
X0333203Y0132962D01*
X0333071Y0132873D01*
X0332983Y0132741D01*
X0332972Y0132685D01*
X0333260D01*
Y0132973D01*
D02*
G37*
G36*
X0333747Y0132485D02*
X0333460D01*
Y0132197D01*
X0333516Y0132208D01*
X0333648Y0132297D01*
X0333736Y0132429D01*
X0333747Y0132485D01*
D02*
G37*
G36*
X0333260D02*
X0332972D01*
X0332983Y0132429D01*
X0333071Y0132297D01*
X0333203Y0132208D01*
X0333260Y0132197D01*
Y0132485D01*
D02*
G37*
G36*
X0330899Y0132334D02*
Y0132046D01*
X0331187D01*
X0331176Y0132102D01*
X0331087Y0132235D01*
X0330955Y0132323D01*
X0330899Y0132334D01*
D02*
G37*
G36*
X0330699D02*
X0330643Y0132323D01*
X0330510Y0132235D01*
X0330422Y0132102D01*
X0330411Y0132046D01*
X0330699D01*
Y0132334D01*
D02*
G37*
G36*
X0331187Y0131846D02*
X0330899D01*
Y0131558D01*
X0330955Y0131569D01*
X0331087Y0131658D01*
X0331176Y0131790D01*
X0331187Y0131846D01*
D02*
G37*
G36*
X0330699D02*
X0330411D01*
X0330422Y0131790D01*
X0330510Y0131658D01*
X0330643Y0131569D01*
X0330699Y0131558D01*
Y0131846D01*
D02*
G37*
G36*
X0331545Y0131058D02*
Y0130770D01*
X0331833D01*
X0331822Y0130827D01*
X0331733Y0130959D01*
X0331601Y0131047D01*
X0331545Y0131058D01*
D02*
G37*
G36*
X0331345D02*
X0331289Y0131047D01*
X0331157Y0130959D01*
X0331068Y0130827D01*
X0331057Y0130770D01*
X0331345D01*
Y0131058D01*
D02*
G37*
G36*
X0329005D02*
Y0130770D01*
X0329293D01*
X0329282Y0130827D01*
X0329193Y0130959D01*
X0329061Y0131047D01*
X0329005Y0131058D01*
D02*
G37*
G36*
X0328805D02*
X0328749Y0131047D01*
X0328617Y0130959D01*
X0328528Y0130827D01*
X0328517Y0130770D01*
X0328805D01*
Y0131058D01*
D02*
G37*
G36*
X0326465D02*
Y0130770D01*
X0326753D01*
X0326742Y0130827D01*
X0326653Y0130959D01*
X0326521Y0131047D01*
X0326465Y0131058D01*
D02*
G37*
G36*
X0326265D02*
X0326209Y0131047D01*
X0326077Y0130959D01*
X0325988Y0130827D01*
X0325977Y0130770D01*
X0326265D01*
Y0131058D01*
D02*
G37*
G36*
X0323925D02*
Y0130770D01*
X0324213D01*
X0324202Y0130827D01*
X0324113Y0130959D01*
X0323981Y0131047D01*
X0323925Y0131058D01*
D02*
G37*
G36*
X0323725D02*
X0323669Y0131047D01*
X0323537Y0130959D01*
X0323448Y0130827D01*
X0323437Y0130770D01*
X0323725D01*
Y0131058D01*
D02*
G37*
G36*
X0321385D02*
Y0130770D01*
X0321673D01*
X0321662Y0130827D01*
X0321573Y0130959D01*
X0321441Y0131047D01*
X0321385Y0131058D01*
D02*
G37*
G36*
X0321185D02*
X0321129Y0131047D01*
X0320997Y0130959D01*
X0320908Y0130827D01*
X0320897Y0130770D01*
X0321185D01*
Y0131058D01*
D02*
G37*
G36*
X0331833Y0130570D02*
X0331545D01*
Y0130283D01*
X0331601Y0130294D01*
X0331733Y0130382D01*
X0331822Y0130514D01*
X0331833Y0130570D01*
D02*
G37*
G36*
X0331345D02*
X0331057D01*
X0331068Y0130514D01*
X0331157Y0130382D01*
X0331289Y0130294D01*
X0331345Y0130283D01*
Y0130570D01*
D02*
G37*
G36*
X0329293D02*
X0329005D01*
Y0130283D01*
X0329061Y0130294D01*
X0329193Y0130382D01*
X0329282Y0130514D01*
X0329293Y0130570D01*
D02*
G37*
G36*
X0328805D02*
X0328517D01*
X0328528Y0130514D01*
X0328617Y0130382D01*
X0328749Y0130294D01*
X0328805Y0130283D01*
Y0130570D01*
D02*
G37*
G36*
X0326753D02*
X0326465D01*
Y0130283D01*
X0326521Y0130294D01*
X0326653Y0130382D01*
X0326742Y0130514D01*
X0326753Y0130570D01*
D02*
G37*
G36*
X0326265D02*
X0325977D01*
X0325988Y0130514D01*
X0326077Y0130382D01*
X0326209Y0130294D01*
X0326265Y0130283D01*
Y0130570D01*
D02*
G37*
G36*
X0324213D02*
X0323925D01*
Y0130283D01*
X0323981Y0130294D01*
X0324113Y0130382D01*
X0324202Y0130514D01*
X0324213Y0130570D01*
D02*
G37*
G36*
X0323725D02*
X0323437D01*
X0323448Y0130514D01*
X0323537Y0130382D01*
X0323669Y0130294D01*
X0323725Y0130283D01*
Y0130570D01*
D02*
G37*
G36*
X0321673D02*
X0321385D01*
Y0130283D01*
X0321441Y0130294D01*
X0321573Y0130382D01*
X0321662Y0130514D01*
X0321673Y0130570D01*
D02*
G37*
G36*
X0321185D02*
X0320897D01*
X0320908Y0130514D01*
X0320997Y0130382D01*
X0321129Y0130294D01*
X0321185Y0130283D01*
Y0130570D01*
D02*
G37*
G36*
X0332100Y0129757D02*
X0331963Y0129730D01*
X0331848Y0129652D01*
X0331770Y0129537D01*
X0331743Y0129400D01*
X0331770Y0129263D01*
X0331848Y0129148D01*
X0331963Y0129070D01*
X0332100Y0129043D01*
X0332237Y0129070D01*
X0332352Y0129148D01*
X0332430Y0129263D01*
X0332457Y0129400D01*
X0332430Y0129537D01*
X0332352Y0129652D01*
X0332237Y0129730D01*
X0332100Y0129757D01*
D02*
G37*
G36*
X0329636Y0128539D02*
Y0128251D01*
X0329924D01*
X0329913Y0128307D01*
X0329825Y0128440D01*
X0329692Y0128528D01*
X0329636Y0128539D01*
D02*
G37*
G36*
X0329436D02*
X0329380Y0128528D01*
X0329248Y0128440D01*
X0329159Y0128307D01*
X0329148Y0128251D01*
X0329436D01*
Y0128539D01*
D02*
G37*
G36*
X0332815Y0128537D02*
Y0128249D01*
X0333103D01*
X0333092Y0128306D01*
X0333003Y0128438D01*
X0332871Y0128526D01*
X0332815Y0128537D01*
D02*
G37*
G36*
X0327735D02*
Y0128249D01*
X0328023D01*
X0328012Y0128306D01*
X0327923Y0128438D01*
X0327791Y0128526D01*
X0327735Y0128537D01*
D02*
G37*
G36*
X0327535D02*
X0327479Y0128526D01*
X0327347Y0128438D01*
X0327258Y0128306D01*
X0327247Y0128249D01*
X0327535D01*
Y0128537D01*
D02*
G37*
G36*
X0325195D02*
Y0128249D01*
X0325483D01*
X0325472Y0128306D01*
X0325383Y0128438D01*
X0325251Y0128526D01*
X0325195Y0128537D01*
D02*
G37*
G36*
X0324995D02*
X0324939Y0128526D01*
X0324807Y0128438D01*
X0324718Y0128306D01*
X0324707Y0128249D01*
X0324995D01*
Y0128537D01*
D02*
G37*
G36*
X0322655D02*
Y0128249D01*
X0322943D01*
X0322932Y0128306D01*
X0322843Y0128438D01*
X0322711Y0128526D01*
X0322655Y0128537D01*
D02*
G37*
G36*
X0322455D02*
X0322399Y0128526D01*
X0322267Y0128438D01*
X0322178Y0128306D01*
X0322167Y0128249D01*
X0322455D01*
Y0128537D01*
D02*
G37*
G36*
X0329924Y0128051D02*
X0329636D01*
Y0127763D01*
X0329692Y0127774D01*
X0329825Y0127863D01*
X0329913Y0127995D01*
X0329924Y0128051D01*
D02*
G37*
G36*
X0329436D02*
X0329148D01*
X0329159Y0127995D01*
X0329248Y0127863D01*
X0329380Y0127774D01*
X0329436Y0127763D01*
Y0128051D01*
D02*
G37*
G36*
X0333103Y0128049D02*
X0332815D01*
Y0127762D01*
X0332871Y0127773D01*
X0333003Y0127861D01*
X0333092Y0127993D01*
X0333103Y0128049D01*
D02*
G37*
G36*
X0332100Y0128557D02*
X0331963Y0128530D01*
X0331848Y0128452D01*
X0331770Y0128337D01*
X0331743Y0128200D01*
X0331770Y0128063D01*
X0331848Y0127948D01*
X0331963Y0127870D01*
X0332100Y0127843D01*
X0332237Y0127870D01*
X0332352Y0127948D01*
X0332420Y0127871D01*
X0332427Y0127861D01*
X0332427Y0127861D01*
X0332559Y0127773D01*
X0332615Y0127762D01*
Y0128149D01*
Y0128537D01*
X0332559Y0128526D01*
X0332488Y0128479D01*
X0332352Y0128452D01*
X0332237Y0128530D01*
X0332100Y0128557D01*
D02*
G37*
G36*
X0328023Y0128049D02*
X0327735D01*
Y0127762D01*
X0327791Y0127773D01*
X0327923Y0127861D01*
X0328012Y0127993D01*
X0328023Y0128049D01*
D02*
G37*
G36*
X0327535D02*
X0327247D01*
X0327258Y0127993D01*
X0327347Y0127861D01*
X0327479Y0127773D01*
X0327535Y0127762D01*
Y0128049D01*
D02*
G37*
G36*
X0325483D02*
X0325195D01*
Y0127762D01*
X0325251Y0127773D01*
X0325383Y0127861D01*
X0325472Y0127993D01*
X0325483Y0128049D01*
D02*
G37*
G36*
X0324995D02*
X0324707D01*
X0324718Y0127993D01*
X0324807Y0127861D01*
X0324939Y0127773D01*
X0324995Y0127762D01*
Y0128049D01*
D02*
G37*
G36*
X0322943D02*
X0322655D01*
Y0127762D01*
X0322711Y0127773D01*
X0322843Y0127861D01*
X0322932Y0127993D01*
X0322943Y0128049D01*
D02*
G37*
G36*
X0322455D02*
X0322167D01*
X0322178Y0127993D01*
X0322267Y0127861D01*
X0322399Y0127773D01*
X0322455Y0127762D01*
Y0128049D01*
D02*
G37*
G36*
X0332180Y0127245D02*
Y0126957D01*
X0332468D01*
X0332457Y0127013D01*
X0332368Y0127146D01*
X0332236Y0127234D01*
X0332180Y0127245D01*
D02*
G37*
G36*
X0331980D02*
X0331924Y0127234D01*
X0331792Y0127146D01*
X0331703Y0127013D01*
X0331692Y0126957D01*
X0331980D01*
Y0127245D01*
D02*
G37*
G36*
X0330800Y0127257D02*
X0330663Y0127230D01*
X0330548Y0127152D01*
X0330470Y0127037D01*
X0330443Y0126900D01*
X0330470Y0126763D01*
X0330548Y0126648D01*
X0330663Y0126570D01*
X0330800Y0126543D01*
X0330937Y0126570D01*
X0331052Y0126648D01*
X0331130Y0126763D01*
X0331157Y0126900D01*
X0331130Y0127037D01*
X0331052Y0127152D01*
X0330937Y0127230D01*
X0330800Y0127257D01*
D02*
G37*
G36*
X0328259Y0127213D02*
X0328122Y0127186D01*
X0328007Y0127109D01*
X0327929Y0126993D01*
X0327902Y0126856D01*
X0327929Y0126720D01*
X0328007Y0126604D01*
X0328122Y0126526D01*
X0328259Y0126499D01*
X0328395Y0126526D01*
X0328511Y0126604D01*
X0328589Y0126720D01*
X0328616Y0126856D01*
X0328589Y0126993D01*
X0328511Y0127109D01*
X0328395Y0127186D01*
X0328259Y0127213D01*
D02*
G37*
G36*
X0325719D02*
X0325582Y0127186D01*
X0325467Y0127109D01*
X0325389Y0126993D01*
X0325362Y0126856D01*
X0325389Y0126720D01*
X0325467Y0126604D01*
X0325582Y0126526D01*
X0325719Y0126499D01*
X0325855Y0126526D01*
X0325971Y0126604D01*
X0326049Y0126720D01*
X0326076Y0126856D01*
X0326049Y0126993D01*
X0325971Y0127109D01*
X0325855Y0127186D01*
X0325719Y0127213D01*
D02*
G37*
G36*
X0332468Y0126757D02*
X0332180D01*
Y0126469D01*
X0332236Y0126481D01*
X0332368Y0126569D01*
X0332457Y0126701D01*
X0332468Y0126757D01*
D02*
G37*
G36*
X0331980D02*
X0331692D01*
X0331703Y0126701D01*
X0331792Y0126569D01*
X0331924Y0126481D01*
X0331980Y0126469D01*
Y0126757D01*
D02*
G37*
G36*
X0329005Y0125978D02*
Y0125690D01*
X0329293D01*
X0329282Y0125747D01*
X0329193Y0125879D01*
X0329061Y0125967D01*
X0329005Y0125978D01*
D02*
G37*
G36*
X0328805D02*
X0328749Y0125967D01*
X0328617Y0125879D01*
X0328528Y0125747D01*
X0328517Y0125690D01*
X0328805D01*
Y0125978D01*
D02*
G37*
G36*
X0326465D02*
Y0125690D01*
X0326753D01*
X0326742Y0125747D01*
X0326653Y0125879D01*
X0326521Y0125967D01*
X0326465Y0125978D01*
D02*
G37*
G36*
X0326265D02*
X0326209Y0125967D01*
X0326077Y0125879D01*
X0325988Y0125747D01*
X0325977Y0125690D01*
X0326265D01*
Y0125978D01*
D02*
G37*
G36*
X0323925D02*
Y0125690D01*
X0324213D01*
X0324202Y0125747D01*
X0324113Y0125879D01*
X0323981Y0125967D01*
X0323925Y0125978D01*
D02*
G37*
G36*
X0323725D02*
X0323669Y0125967D01*
X0323537Y0125879D01*
X0323448Y0125747D01*
X0323437Y0125690D01*
X0323725D01*
Y0125978D01*
D02*
G37*
G36*
X0321385D02*
Y0125690D01*
X0321673D01*
X0321662Y0125747D01*
X0321573Y0125879D01*
X0321441Y0125967D01*
X0321385Y0125978D01*
D02*
G37*
G36*
X0321185D02*
X0321129Y0125967D01*
X0320997Y0125879D01*
X0320908Y0125747D01*
X0320897Y0125690D01*
X0321185D01*
Y0125978D01*
D02*
G37*
G36*
X0333339Y0125953D02*
X0333202Y0125926D01*
X0333087Y0125848D01*
X0333009Y0125733D01*
X0332982Y0125596D01*
X0333009Y0125460D01*
X0333087Y0125344D01*
X0333202Y0125266D01*
X0333339Y0125239D01*
X0333475Y0125266D01*
X0333591Y0125344D01*
X0333669Y0125460D01*
X0333696Y0125596D01*
X0333669Y0125733D01*
X0333591Y0125848D01*
X0333475Y0125926D01*
X0333339Y0125953D01*
D02*
G37*
G36*
X0327000Y0120658D02*
X0326584Y0120625D01*
X0326179Y0120528D01*
X0325793Y0120368D01*
X0325438Y0120151D01*
X0325120Y0119880D01*
X0324849Y0119562D01*
X0324632Y0119207D01*
X0324472Y0118821D01*
X0324375Y0118416D01*
X0324342Y0118000D01*
X0324375Y0117584D01*
X0324472Y0117179D01*
X0324632Y0116793D01*
X0324849Y0116438D01*
X0325120Y0116120D01*
X0325438Y0115849D01*
X0325793Y0115632D01*
X0326179Y0115472D01*
X0326584Y0115375D01*
X0327000Y0115342D01*
X0327416Y0115375D01*
X0327821Y0115472D01*
X0328207Y0115632D01*
X0328562Y0115849D01*
X0328880Y0116120D01*
X0329151Y0116438D01*
X0329368Y0116793D01*
X0329528Y0117179D01*
X0329625Y0117584D01*
X0329658Y0118000D01*
X0329625Y0118416D01*
X0329528Y0118821D01*
X0329368Y0119207D01*
X0329151Y0119562D01*
X0328880Y0119880D01*
X0328562Y0120151D01*
X0328207Y0120368D01*
X0327821Y0120528D01*
X0327416Y0120625D01*
X0327000Y0120658D01*
D02*
G37*
%LPD*%
D11*
X0429924Y0158600D02*
X0430533Y0157991D01*
X0430564Y0159259D02*
Y0159261D01*
X0429900Y0158600D02*
X0429904D01*
X0430533Y0157991D02*
X0430564D01*
X0429900Y0158600D02*
X0429924D01*
X0429904D02*
X0430564Y0159259D01*
X0431200Y0145900D02*
X0431209D01*
X0431818Y0145291D01*
X0431200Y0145911D02*
X0431834Y0146544D01*
Y0146561D01*
X0431818Y0145291D02*
X0432478D01*
X0431200Y0145900D02*
Y0145911D01*
X0436931Y0126241D02*
X0437589Y0126900D01*
X0436914Y0126241D02*
X0436931D01*
X0437589Y0126900D02*
X0437600D01*
X0439454Y0126244D02*
X0440100Y0126891D01*
Y0126900D01*
X0439454Y0126235D02*
Y0126244D01*
X0440724Y0163071D02*
X0441368D01*
X0438184Y0175771D02*
Y0176416D01*
X0429294Y0171317D02*
Y0171961D01*
Y0170691D02*
Y0171317D01*
X0429918Y0168800D02*
X0430564Y0168154D01*
X0429294Y0166237D02*
Y0166881D01*
Y0165611D02*
Y0166237D01*
X0430564Y0168151D02*
Y0168154D01*
Y0163071D02*
Y0163716D01*
X0429294Y0161157D02*
Y0161801D01*
Y0160531D02*
Y0161157D01*
Y0156077D02*
Y0156721D01*
Y0155451D02*
Y0156077D01*
X0430564Y0152911D02*
Y0153556D01*
X0429294Y0150997D02*
Y0151641D01*
Y0150371D02*
Y0150997D01*
X0430564Y0153556D02*
Y0154181D01*
Y0147831D02*
Y0148476D01*
Y0163716D02*
Y0164341D01*
Y0148476D02*
Y0149101D01*
X0431834Y0175771D02*
Y0176416D01*
X0433104Y0175771D02*
Y0176416D01*
X0431834Y0166237D02*
Y0166881D01*
Y0165611D02*
Y0166237D01*
X0435644Y0175771D02*
Y0176416D01*
X0431834Y0161157D02*
Y0161801D01*
Y0160531D02*
Y0161157D01*
Y0156721D02*
X0432459D01*
X0431834Y0160531D02*
X0432478D01*
X0432459Y0156721D02*
X0433104D01*
X0432478Y0160531D02*
X0433104D01*
X0431834Y0156077D02*
Y0156721D01*
Y0155451D02*
Y0156077D01*
Y0150997D02*
Y0151641D01*
Y0150371D02*
Y0150997D01*
X0429294Y0145917D02*
Y0146561D01*
Y0145291D02*
Y0145917D01*
X0430564Y0143396D02*
Y0144021D01*
Y0142751D02*
Y0143396D01*
X0429294Y0140837D02*
Y0141481D01*
Y0140211D02*
Y0140837D01*
X0430564Y0138316D02*
Y0138941D01*
Y0137671D02*
Y0138316D01*
X0432478Y0145291D02*
X0433104D01*
X0429294Y0135757D02*
Y0136401D01*
Y0135131D02*
Y0135757D01*
X0430564Y0133236D02*
Y0133861D01*
Y0132591D02*
Y0133236D01*
X0429294Y0130677D02*
Y0131321D01*
Y0130051D02*
Y0130677D01*
X0430564Y0128156D02*
Y0128781D01*
Y0127511D02*
Y0128156D01*
X0429294Y0125597D02*
Y0126241D01*
X0431834Y0135757D02*
Y0136401D01*
Y0135131D02*
Y0135757D01*
X0433104Y0133236D02*
Y0133861D01*
X0431834Y0130677D02*
Y0131321D01*
Y0130051D02*
Y0130677D01*
X0433104Y0128156D02*
Y0128781D01*
Y0127511D02*
Y0128156D01*
X0431834Y0125597D02*
Y0126241D01*
X0433104Y0132591D02*
Y0133236D01*
X0434374Y0130677D02*
Y0131321D01*
Y0130051D02*
Y0130677D01*
X0435644Y0128156D02*
Y0128781D01*
X0434374Y0125597D02*
Y0126241D01*
X0436914Y0130677D02*
Y0131321D01*
Y0130051D02*
Y0130677D01*
X0435644Y0127511D02*
Y0128156D01*
X0439454Y0130051D02*
Y0130677D01*
X0440724Y0128156D02*
Y0128781D01*
Y0127511D02*
Y0128156D01*
Y0132591D02*
X0441368D01*
X0439454Y0130677D02*
Y0131321D01*
D16*
X0330103Y0124900D02*
G03*
X0330799Y0125596I0000000J0000696D01*
G01*
X0322000Y0170100D02*
G03*
X0323200Y0171300I0000000J0001200D01*
G01*
X0321800Y0170100D02*
G03*
X0320300Y0168600I0000000J-0001500D01*
G01*
Y0125500D02*
G03*
X0320900Y0124900I0000600J0000000D01*
G01*
X0321800Y0170100D02*
X0322000D01*
X0320300Y0125500D02*
Y0168600D01*
X0320900Y0124900D02*
X0330103D01*
D17*
X0430000Y0116000D02*
D03*
Y0186000D02*
D03*
X0321000Y0115500D02*
D03*
X0338000Y0186000D02*
D03*
X0331500Y0190500D02*
D03*
X0333000D02*
D03*
X0334500D02*
D03*
X0331500Y0112250D02*
D03*
X0333000D02*
D03*
X0334500D02*
D03*
X0321000Y0112250D02*
D03*
X0322500D02*
D03*
X0324000D02*
D03*
X0324000Y0190500D02*
D03*
X0322500D02*
D03*
X0321000D02*
D03*
D18*
X0440200Y0157400D02*
Y0157431D01*
X0440718Y0157948D02*
Y0157982D01*
X0440200Y0157431D02*
X0440718Y0157948D01*
X0431828Y0159238D02*
Y0159255D01*
X0431200Y0158611D02*
X0431828Y0159238D01*
X0431200Y0158600D02*
Y0158611D01*
X0440100Y0142099D02*
X0440724Y0141476D01*
Y0141475D02*
Y0141476D01*
X0440100Y0142099D02*
Y0142100D01*
X0438800Y0157300D02*
X0439636D01*
X0440181Y0156755D01*
X0440675D01*
X0440718Y0156712D01*
X0441389Y0143400D02*
X0441400D01*
X0440724Y0142745D02*
X0440734D01*
X0441389Y0143400D01*
X0435638Y0152902D02*
X0436268Y0152272D01*
X0434374Y0169424D02*
X0434380Y0169430D01*
X0433750Y0170060D02*
X0434380Y0169430D01*
X0434374Y0169421D02*
Y0169424D01*
X0440718Y0171952D02*
X0441348Y0171322D01*
X0440718Y0169412D02*
X0441348Y0170042D01*
X0440712Y0168141D02*
X0441342Y0168771D01*
X0440718Y0126232D02*
X0441348Y0125602D01*
X0438178Y0126232D02*
X0438808Y0125602D01*
X0435638Y0126232D02*
X0436268Y0126862D01*
X0438184Y0127511D02*
X0438824Y0126871D01*
X0433098Y0126232D02*
X0433728Y0126862D01*
X0436908Y0133852D02*
X0437538Y0133222D01*
X0434368Y0136392D02*
X0434998Y0135762D01*
X0436908Y0136392D02*
X0437538Y0137022D01*
X0435638Y0137662D02*
X0436268Y0137032D01*
X0434368Y0137662D02*
X0434998Y0137032D01*
X0436908Y0137662D02*
X0437538Y0138292D01*
X0434368Y0140202D02*
X0434998Y0139572D01*
X0435638Y0138932D02*
X0436268Y0138302D01*
X0433098Y0140202D02*
X0433728Y0139572D01*
X0434368Y0141472D02*
X0434998Y0140842D01*
X0435660Y0142742D02*
Y0142774D01*
X0435638Y0141472D02*
Y0141482D01*
X0433098Y0144012D02*
X0433728Y0143382D01*
X0440718Y0145282D02*
X0441348Y0144652D01*
X0440718Y0146552D02*
X0441348Y0145922D01*
X0434368Y0151632D02*
X0434998Y0151002D01*
X0434368Y0152902D02*
X0434998Y0152272D01*
X0435638Y0154172D02*
X0436268Y0153542D01*
X0433098Y0154172D02*
X0433728Y0153542D01*
X0433098Y0155442D02*
X0433728Y0154812D01*
X0434368Y0155442D02*
X0434998Y0154812D01*
X0436908Y0155442D02*
X0437538Y0154812D01*
X0434368Y0156712D02*
X0434998Y0156082D01*
X0435638Y0156712D02*
X0436268Y0156082D01*
X0435638Y0157982D02*
X0436268Y0157352D01*
X0433098Y0159252D02*
X0433728Y0158622D01*
X0440718Y0161792D02*
X0441348Y0161162D01*
X0440718Y0160522D02*
X0441348Y0159892D01*
X0431828Y0164332D02*
X0432458Y0163702D01*
X0431828Y0163062D02*
X0432458Y0162432D01*
X0440718Y0164332D02*
X0441348Y0163702D01*
X0440718Y0165602D02*
X0441348Y0164972D01*
X0439448Y0128772D02*
X0440078Y0128142D01*
X0439448Y0133852D02*
X0440078Y0133222D01*
X0440727Y0135128D02*
X0441209Y0134646D01*
X0439448Y0137662D02*
X0440078Y0137032D01*
X0440718Y0138932D02*
X0441348Y0138302D01*
X0439448Y0141472D02*
X0440078Y0140842D01*
X0439448Y0145282D02*
X0440078Y0144652D01*
X0439448Y0149092D02*
X0440078Y0148462D01*
X0439448Y0156712D02*
X0440078Y0156082D01*
X0436908Y0156712D02*
X0437538Y0156082D01*
X0439448Y0160522D02*
X0440078Y0159892D01*
X0439448Y0164332D02*
X0440078Y0163702D01*
X0439448Y0168142D02*
X0440078Y0167512D01*
X0440724Y0135131D02*
X0440727Y0135128D01*
X0440718Y0175762D02*
X0441348Y0176392D01*
X0438818Y0148452D02*
X0439448Y0147822D01*
X0438184Y0147824D02*
Y0147831D01*
X0437553Y0147192D02*
X0438184Y0147824D01*
X0437553Y0147185D02*
Y0147192D01*
X0438818Y0144642D02*
X0439448Y0144012D01*
X0438184Y0144014D02*
Y0144021D01*
X0437553Y0143382D02*
X0438184Y0144014D01*
X0440724Y0147824D02*
Y0147831D01*
X0440093Y0147192D02*
X0440724Y0147824D01*
X0440093Y0147185D02*
Y0147192D01*
X0439463Y0146555D02*
X0440093Y0147185D01*
X0440724Y0144014D02*
Y0144021D01*
X0440093Y0143382D02*
X0440724Y0144014D01*
X0440093Y0143375D02*
Y0143382D01*
X0439463Y0142745D02*
X0440093Y0143375D01*
X0439455Y0138943D02*
X0440724Y0140211D01*
X0440088Y0138292D02*
X0440718Y0137662D01*
X0441348Y0145922D02*
X0441360Y0145934D01*
X0441348Y0144652D02*
X0441415D01*
X0440733Y0136395D02*
X0441363Y0137025D01*
X0437553Y0143375D02*
Y0143382D01*
X0438818Y0140832D02*
X0439448Y0140202D01*
X0437554Y0139581D02*
X0438184Y0140211D01*
X0438824Y0138311D02*
X0439455Y0138943D01*
X0439454Y0174501D02*
X0440724Y0175771D01*
X0440085Y0173870D02*
X0440715Y0174500D01*
X0439454Y0173231D02*
X0440085Y0173862D01*
X0440724Y0170684D02*
Y0170691D01*
X0440093Y0170052D02*
X0440724Y0170684D01*
X0440093Y0170045D02*
Y0170052D01*
X0438815Y0175147D02*
X0439445Y0175777D01*
X0438815Y0175140D02*
Y0175147D01*
X0436914Y0174501D02*
X0438184Y0175771D01*
Y0174509D02*
X0438815Y0175140D01*
X0438184Y0174501D02*
Y0174509D01*
X0429303Y0175765D02*
X0429933Y0176395D01*
X0429918Y0168800D02*
X0429938D01*
X0430559Y0169421D01*
X0430564D01*
Y0173231D02*
X0430569D01*
X0430564Y0174501D02*
X0431204Y0173861D01*
X0430569Y0173231D02*
X0431199Y0173861D01*
X0431204D01*
X0431209Y0171306D02*
Y0171321D01*
X0431828Y0171940D01*
X0431204Y0173861D02*
X0431834Y0173231D01*
X0431828Y0171940D02*
Y0171952D01*
X0431834Y0174501D02*
X0433104Y0175771D01*
X0431834Y0174501D02*
X0433104Y0173231D01*
X0432509Y0171286D02*
Y0172636D01*
X0433104Y0173231D01*
X0433098Y0171942D02*
Y0171952D01*
X0433100Y0174510D02*
X0433105D01*
X0433104Y0174501D02*
Y0174509D01*
X0433098Y0171942D02*
X0433709Y0171331D01*
X0433104Y0174509D02*
X0433735Y0175140D01*
X0433709Y0171306D02*
Y0171331D01*
X0433735Y0175140D02*
Y0175147D01*
X0431209Y0170006D02*
Y0170036D01*
Y0168806D02*
X0431214D01*
X0431820Y0169412D01*
X0431209Y0170036D02*
X0431840Y0170667D01*
X0431820Y0169412D02*
X0431828D01*
X0431840Y0170667D02*
Y0170700D01*
X0432509Y0166206D02*
Y0170096D01*
Y0171286D02*
X0433104Y0170691D01*
X0432509Y0170096D02*
X0433104Y0170691D01*
X0432509Y0166206D02*
X0433104Y0165611D01*
X0433735Y0175147D02*
X0434365Y0175777D01*
X0433744Y0173861D02*
X0434374Y0173231D01*
Y0174501D02*
X0435010Y0173865D01*
X0434374Y0174501D02*
X0435644Y0175771D01*
X0435010Y0173865D02*
X0436278D01*
X0435653Y0174495D02*
X0436283Y0175125D01*
X0436278Y0173865D02*
X0436914Y0174501D01*
X0436911Y0175766D02*
Y0176404D01*
X0436923Y0173225D02*
X0437553Y0173855D01*
X0433744Y0166241D02*
X0434374Y0165611D01*
Y0169421D02*
X0435644Y0170691D01*
X0434374Y0165611D02*
X0435644Y0166881D01*
Y0170672D02*
Y0170691D01*
Y0170672D02*
X0436241Y0170076D01*
Y0170057D02*
Y0170076D01*
Y0170057D02*
X0436259D01*
X0436895Y0169421D01*
X0436914D01*
Y0165611D02*
X0437554Y0166251D01*
X0432468Y0158612D02*
X0433098Y0157982D01*
X0433104Y0160531D02*
X0433734Y0161161D01*
X0433104Y0156721D02*
X0434374Y0157991D01*
X0433734Y0161161D02*
X0434374Y0161801D01*
X0431834Y0151641D02*
X0433104Y0152911D01*
X0432465Y0148477D02*
X0433095Y0149107D01*
X0435644Y0159261D02*
X0436914Y0157991D01*
X0435644Y0163071D02*
X0437544Y0161171D01*
X0436914Y0157991D02*
X0437544Y0158621D01*
X0434368Y0150362D02*
X0434998Y0149732D01*
X0434374Y0154181D02*
X0435004Y0153551D01*
X0435644Y0147824D02*
Y0147831D01*
Y0151641D02*
X0436914Y0150371D01*
X0435644Y0155451D02*
X0437544Y0153551D01*
X0436923Y0150365D02*
X0437553Y0150995D01*
X0432468Y0143372D02*
X0433098Y0142742D01*
X0431834Y0141476D02*
Y0141481D01*
Y0141476D02*
X0432464Y0140846D01*
Y0140841D02*
X0433104Y0141481D01*
X0432464Y0140841D02*
Y0140846D01*
X0431834Y0140211D02*
X0432464Y0140841D01*
X0432468Y0139562D02*
X0433098Y0138932D01*
X0435013Y0147192D02*
X0435644Y0147824D01*
X0435013Y0147185D02*
Y0147192D01*
X0434383Y0146555D02*
X0435013Y0147185D01*
Y0143382D02*
X0435644Y0144014D01*
X0435013Y0143375D02*
Y0143382D01*
X0434383Y0142745D02*
X0435013Y0143375D01*
X0434374Y0138934D02*
Y0138941D01*
X0433743Y0138302D02*
X0434374Y0138934D01*
X0433743Y0138295D02*
Y0138302D01*
X0433113Y0137665D02*
X0433743Y0138295D01*
X0436923Y0146555D02*
X0437553Y0147185D01*
X0435644Y0144014D02*
Y0144021D01*
X0436247Y0143361D02*
Y0143383D01*
X0435660Y0142774D02*
X0436247Y0143361D01*
X0436923Y0142745D02*
X0437553Y0143375D01*
X0436254Y0142098D02*
Y0142120D01*
X0435638Y0141482D02*
X0436254Y0142098D01*
X0435644Y0140211D02*
X0436274Y0139581D01*
X0436914Y0138941D01*
X0433744Y0135761D02*
X0434374Y0135131D01*
X0435020Y0133230D02*
X0435650Y0132600D01*
X0435644Y0136401D02*
X0436274Y0135771D01*
X0436205Y0134507D02*
X0436835Y0135137D01*
X0436278Y0133212D02*
X0436908Y0132582D01*
X0438184Y0170691D02*
X0439454Y0169421D01*
X0438818Y0167502D02*
X0439448Y0166872D01*
X0437554Y0166251D02*
X0438184Y0166881D01*
X0437554Y0163701D02*
X0438184Y0163071D01*
X0438818Y0163692D02*
X0439448Y0163062D01*
X0439463Y0169415D02*
X0440093Y0170045D01*
X0440084Y0166241D02*
X0440724Y0166881D01*
X0439454Y0165611D02*
X0440084Y0166241D01*
X0438818Y0159882D02*
X0439448Y0159252D01*
X0437544Y0158621D02*
X0438184Y0159261D01*
X0439454Y0161801D02*
X0440084Y0161171D01*
Y0158621D02*
X0440724Y0159261D01*
X0439454Y0157991D02*
X0440084Y0158621D01*
Y0154811D02*
X0440724Y0155451D01*
X0439454Y0154181D02*
X0440084Y0154811D01*
X0440724Y0151634D02*
Y0151641D01*
X0440093Y0151002D02*
X0440724Y0151634D01*
X0440093Y0150995D02*
Y0151002D01*
X0439463Y0150365D02*
X0440093Y0150995D01*
X0438818Y0156072D02*
X0439448Y0155442D01*
X0438184Y0155451D02*
X0438814Y0154821D01*
X0438184Y0151634D02*
Y0151641D01*
X0437553Y0151002D02*
X0438184Y0151634D01*
X0437553Y0150995D02*
Y0151002D01*
X0438818Y0137022D02*
X0439448Y0136392D01*
X0438184Y0136401D02*
X0440084Y0134501D01*
X0438818Y0133212D02*
X0439448Y0132582D01*
X0438178D02*
X0438808Y0131952D01*
X0440724Y0133861D02*
X0441209Y0134346D01*
X0441609Y0134771D02*
X0441676D01*
X0441561Y0134723D02*
X0441609Y0134771D01*
X0441286Y0134723D02*
X0441561D01*
X0441209Y0134646D02*
X0441286Y0134723D01*
Y0134269D02*
X0441561D01*
X0441609Y0134221D01*
X0441676D01*
X0441209Y0134346D02*
X0441286Y0134269D01*
X0437545Y0128157D02*
X0438175Y0128787D01*
X0438818Y0128132D02*
X0439448Y0127502D01*
D19*
X0333900Y0158700D02*
D03*
X0334800D02*
D03*
X0332100Y0128200D02*
D03*
Y0129400D02*
D03*
Y0148500D02*
D03*
Y0149700D02*
D03*
X0333360Y0147794D02*
D03*
X0330800Y0147200D02*
D03*
X0335000Y0142900D02*
D03*
Y0143500D02*
D03*
X0332080Y0126857D02*
D03*
X0333600Y0134765D02*
D03*
Y0134215D02*
D03*
X0332091Y0138296D02*
D03*
X0333351Y0138286D02*
D03*
X0324449Y0159876D02*
D03*
X0321900Y0168800D02*
D03*
X0330800Y0126900D02*
D03*
X0328903Y0176398D02*
D03*
X0323825Y0176409D02*
D03*
X0323200Y0168800D02*
D03*
Y0171300D02*
D03*
Y0170000D02*
D03*
X0325700Y0171300D02*
D03*
X0332076Y0173864D02*
D03*
X0324455Y0140835D02*
D03*
X0329545Y0139575D02*
D03*
X0328265D02*
D03*
X0326989Y0139566D02*
D03*
X0330815Y0138305D02*
D03*
X0325735Y0166235D02*
D03*
X0329545Y0166245D02*
D03*
X0332075Y0166235D02*
D03*
X0329535Y0161165D02*
D03*
X0329545Y0163695D02*
D03*
X0332075Y0161165D02*
D03*
X0325725Y0161155D02*
D03*
X0329535Y0158615D02*
D03*
X0332075D02*
D03*
X0329535Y0153545D02*
D03*
X0330805Y0154815D02*
D03*
X0332075Y0154805D02*
D03*
X0326995Y0153545D02*
D03*
X0325735Y0135755D02*
D03*
X0332075Y0134495D02*
D03*
X0328265Y0135765D02*
D03*
X0328232Y0170051D02*
D03*
X0323195Y0173855D02*
D03*
X0325735D02*
D03*
X0332084Y0170039D02*
D03*
X0325741Y0170054D02*
D03*
X0321924Y0176389D02*
D03*
X0325726Y0175141D02*
D03*
X0328274Y0175119D02*
D03*
X0329544Y0173849D02*
D03*
X0330806Y0175141D02*
D03*
X0332084Y0150989D02*
D03*
X0329544D02*
D03*
X0326989Y0149726D02*
D03*
X0324456Y0148471D02*
D03*
X0329544Y0147179D02*
D03*
X0327004D02*
D03*
X0332084Y0143369D02*
D03*
X0329544D02*
D03*
X0327004D02*
D03*
X0325734Y0138289D02*
D03*
X0333354Y0137019D02*
D03*
X0328196Y0134500D02*
D03*
X0330799Y0131946D02*
D03*
X0327011Y0133224D02*
D03*
X0329536Y0128151D02*
D03*
X0328905Y0125590D02*
D03*
X0330809Y0163686D02*
D03*
X0325095Y0128149D02*
D03*
X0322555Y0163709D02*
D03*
Y0133229D02*
D03*
X0330175Y0176409D02*
D03*
X0324470Y0145285D02*
D03*
X0325095Y0176409D02*
D03*
X0323825Y0125590D02*
D03*
X0333339Y0144646D02*
D03*
X0322555Y0148469D02*
D03*
X0333339Y0176386D02*
D03*
X0322555Y0128149D02*
D03*
X0328905Y0130670D02*
D03*
X0330809Y0156066D02*
D03*
X0327635Y0176409D02*
D03*
X0321285Y0145910D02*
D03*
X0332069Y0167506D02*
D03*
X0333339Y0163696D02*
D03*
X0323825Y0130670D02*
D03*
Y0135750D02*
D03*
X0321285Y0125590D02*
D03*
Y0171310D02*
D03*
X0328259Y0157346D02*
D03*
X0321285Y0135750D02*
D03*
Y0161150D02*
D03*
X0329529Y0133216D02*
D03*
X0332715Y0128149D02*
D03*
X0322555Y0138309D02*
D03*
X0323825Y0156070D02*
D03*
X0333359Y0163065D02*
D03*
X0323825Y0161150D02*
D03*
X0321285Y0156070D02*
D03*
X0326989Y0135756D02*
D03*
X0333339Y0171316D02*
D03*
X0326365Y0125590D02*
D03*
X0327635Y0128149D02*
D03*
X0323825Y0150990D02*
D03*
X0326989Y0137026D02*
D03*
X0333339Y0170036D02*
D03*
X0325719Y0154806D02*
D03*
X0321285Y0140830D02*
D03*
X0333339Y0159886D02*
D03*
X0325719Y0143376D02*
D03*
X0329529Y0154806D02*
D03*
X0328259Y0137026D02*
D03*
X0333333Y0168765D02*
D03*
X0331445Y0130670D02*
D03*
X0322555Y0143389D02*
D03*
X0332069Y0140836D02*
D03*
X0330809Y0133206D02*
D03*
X0333359Y0132585D02*
D03*
X0332069Y0133216D02*
D03*
X0330809Y0137016D02*
D03*
X0323825Y0166230D02*
D03*
X0332069Y0137026D02*
D03*
X0321285Y0130670D02*
D03*
Y0166230D02*
D03*
X0328269Y0133206D02*
D03*
X0324449Y0163696D02*
D03*
X0330809Y0167496D02*
D03*
X0326989Y0154806D02*
D03*
X0329529Y0156076D02*
D03*
X0325719Y0126856D02*
D03*
X0324459Y0158606D02*
D03*
X0325719Y0158616D02*
D03*
X0324449Y0162426D02*
D03*
X0326989Y0150996D02*
D03*
Y0152266D02*
D03*
X0333339Y0164966D02*
D03*
X0326989Y0156076D02*
D03*
X0325719Y0153536D02*
D03*
X0324459Y0143366D02*
D03*
Y0139556D02*
D03*
X0323825Y0145910D02*
D03*
X0325719Y0139566D02*
D03*
X0322555Y0158629D02*
D03*
X0332069Y0163696D02*
D03*
X0333339Y0145916D02*
D03*
X0321285Y0150990D02*
D03*
X0328259Y0138296D02*
D03*
X0326989Y0140836D02*
D03*
X0333339Y0125596D02*
D03*
X0328259Y0140836D02*
D03*
X0330799Y0125596D02*
D03*
X0328259Y0142106D02*
D03*
X0322555Y0153549D02*
D03*
X0328259Y0126856D02*
D03*
X0329529Y0138286D02*
D03*
Y0137016D02*
D03*
X0328259Y0152266D02*
D03*
Y0153536D02*
D03*
Y0156076D02*
D03*
X0330809Y0159876D02*
D03*
X0333339Y0161156D02*
D03*
X0324451Y0156715D02*
D03*
X0332069Y0159886D02*
D03*
X0325095Y0133229D02*
D03*
X0332069Y0156076D02*
D03*
X0330809Y0144636D02*
D03*
X0332069Y0144646D02*
D03*
X0330809Y0140826D02*
D03*
X0326365Y0130670D02*
D03*
D20*
X0327000Y0184000D02*
D03*
X0327000Y0118000D02*
D03*
M02*
