G04*
G04 #@! TF.GenerationSoftware,Altium Limited,Altium Designer,21.3.2 (30)*
G04*
G04 Layer_Color=439754*
%FSAX43Y43*%
%MOMM*%
G71*
G04*
G04 #@! TF.SameCoordinates,7BCF6593-9FE5-47D3-B3FF-4A217FFC91A0*
G04*
G04*
G04 #@! TF.FilePolarity,Positive*
G04*
G01*
G75*
%ADD10C,0.254*%
%ADD11C,0.200*%
G36*
X0338968Y0137685D02*
Y0137985D01*
Y0138029D01*
Y0138047D01*
X0339340D01*
Y0136116D01*
X0339318D01*
X0339296D01*
X0339224D01*
X0339023D01*
X0338881D01*
X0337581Y0136106D01*
X0337548Y0136116D01*
X0337537Y0136106D01*
Y0134663D01*
X0339329D01*
X0339340Y0134652D01*
Y0132423D01*
X0339329Y0132412D01*
X0337537D01*
Y0130926D01*
X0337548Y0130915D01*
X0339340D01*
Y0128697D01*
X0337548D01*
X0337537Y0128686D01*
Y0127167D01*
X0337548Y0127156D01*
X0339329D01*
X0339340Y0127146D01*
Y0125201D01*
X0338979D01*
Y0126774D01*
X0338968Y0126785D01*
X0337176D01*
Y0126807D01*
X0337165Y0129058D01*
X0337176Y0129069D01*
X0338968D01*
Y0129091D01*
X0338979Y0130533D01*
X0338968Y0130544D01*
X0338957Y0130555D01*
X0337176D01*
X0337165Y0130566D01*
Y0132773D01*
X0337176Y0132784D01*
X0338968D01*
X0338979Y0132795D01*
Y0134270D01*
X0338968Y0134281D01*
X0337176D01*
Y0134303D01*
X0337165Y0136466D01*
X0337176Y0136488D01*
X0338968D01*
Y0136510D01*
Y0137685D01*
D02*
G37*
G36*
X0337924Y0172230D02*
X0337935Y0172228D01*
X0337945Y0172223D01*
X0337957Y0172216D01*
X0337968Y0172204D01*
X0337975Y0172188D01*
X0337978Y0172165D01*
Y0172162D01*
X0337976Y0172155D01*
X0337975Y0172145D01*
X0337970Y0172132D01*
X0337963Y0172120D01*
X0337950Y0172110D01*
X0337935Y0172103D01*
X0337914Y0172100D01*
X0337321D01*
X0337319D01*
X0337312D01*
X0337302Y0172098D01*
X0337288Y0172094D01*
X0337274Y0172091D01*
X0337258Y0172084D01*
X0337243Y0172073D01*
X0337227Y0172061D01*
X0337225Y0172060D01*
X0337222Y0172054D01*
X0337215Y0172046D01*
X0337208Y0172035D01*
X0337201Y0172021D01*
X0337194Y0172006D01*
X0337191Y0171988D01*
X0337189Y0171968D01*
Y0171706D01*
X0337914D01*
X0337917D01*
X0337924Y0171704D01*
X0337935Y0171702D01*
X0337945Y0171697D01*
X0337957Y0171690D01*
X0337968Y0171678D01*
X0337975Y0171662D01*
X0337978Y0171640D01*
Y0171636D01*
X0337976Y0171629D01*
X0337975Y0171619D01*
X0337970Y0171607D01*
X0337963Y0171595D01*
X0337950Y0171584D01*
X0337935Y0171577D01*
X0337914Y0171574D01*
X0337123D01*
X0337119D01*
X0337113Y0171576D01*
X0337102Y0171577D01*
X0337090Y0171583D01*
X0337078Y0171589D01*
X0337067Y0171602D01*
X0337060Y0171617D01*
X0337057Y0171638D01*
Y0171978D01*
X0337059Y0171987D01*
Y0171995D01*
X0337060Y0172008D01*
X0337066Y0172034D01*
X0337076Y0172063D01*
X0337090Y0172094D01*
X0337107Y0172126D01*
X0337119Y0172141D01*
X0337133Y0172155D01*
Y0172157D01*
X0337137Y0172158D01*
X0337147Y0172167D01*
X0337163Y0172179D01*
X0337185Y0172193D01*
X0337213Y0172207D01*
X0337244Y0172219D01*
X0337281Y0172228D01*
X0337300Y0172231D01*
X0337321D01*
X0337914D01*
X0337917D01*
X0337924Y0172230D01*
D02*
G37*
G36*
X0337673Y0171308D02*
X0337685Y0171307D01*
X0337699Y0171305D01*
X0337730Y0171298D01*
X0337767Y0171286D01*
X0337806Y0171269D01*
X0337826Y0171258D01*
X0337845Y0171246D01*
X0337864Y0171230D01*
X0337883Y0171213D01*
X0337885Y0171211D01*
X0337886Y0171210D01*
X0337891Y0171203D01*
X0337898Y0171196D01*
X0337905Y0171187D01*
X0337912Y0171175D01*
X0337921Y0171163D01*
X0337930Y0171149D01*
X0337949Y0171114D01*
X0337963Y0171074D01*
X0337975Y0171029D01*
X0337976Y0171007D01*
X0337978Y0170981D01*
Y0170967D01*
X0337976Y0170958D01*
X0337975Y0170946D01*
X0337973Y0170932D01*
X0337966Y0170901D01*
X0337956Y0170864D01*
X0337938Y0170824D01*
X0337926Y0170805D01*
X0337914Y0170786D01*
X0337900Y0170767D01*
X0337883Y0170748D01*
X0337881Y0170746D01*
X0337878Y0170745D01*
X0337872Y0170739D01*
X0337865Y0170732D01*
X0337857Y0170726D01*
X0337845Y0170719D01*
X0337832Y0170710D01*
X0337819Y0170701D01*
X0337784Y0170682D01*
X0337744Y0170668D01*
X0337699Y0170656D01*
X0337675Y0170654D01*
X0337650Y0170653D01*
X0337387D01*
X0337385D01*
X0337380D01*
X0337373D01*
X0337364Y0170654D01*
X0337352Y0170656D01*
X0337338Y0170658D01*
X0337307Y0170665D01*
X0337270Y0170675D01*
X0337230Y0170693D01*
X0337211Y0170705D01*
X0337192Y0170717D01*
X0337173Y0170731D01*
X0337154Y0170748D01*
X0337152Y0170750D01*
X0337151Y0170753D01*
X0337146Y0170758D01*
X0337139Y0170765D01*
X0337132Y0170774D01*
X0337123Y0170786D01*
X0337114Y0170798D01*
X0337106Y0170812D01*
X0337088Y0170847D01*
X0337073Y0170887D01*
X0337060Y0170932D01*
X0337059Y0170956D01*
X0337057Y0170981D01*
Y0170994D01*
X0337059Y0171003D01*
X0337060Y0171015D01*
X0337062Y0171029D01*
X0337069Y0171062D01*
X0337080Y0171099D01*
X0337097Y0171138D01*
X0337107Y0171158D01*
X0337121Y0171177D01*
X0337135Y0171196D01*
X0337152Y0171215D01*
X0337154Y0171216D01*
X0337156Y0171218D01*
X0337163Y0171223D01*
X0337170Y0171230D01*
X0337178Y0171237D01*
X0337191Y0171244D01*
X0337203Y0171253D01*
X0337217Y0171263D01*
X0337251Y0171281D01*
X0337291Y0171295D01*
X0337336Y0171307D01*
X0337361Y0171308D01*
X0337387Y0171310D01*
X0337650D01*
X0337652D01*
X0337656D01*
X0337664D01*
X0337673Y0171308D01*
D02*
G37*
G36*
X0337924Y0170389D02*
X0337935Y0170387D01*
X0337945Y0170382D01*
X0337957Y0170375D01*
X0337968Y0170363D01*
X0337975Y0170347D01*
X0337978Y0170325D01*
Y0170321D01*
X0337976Y0170314D01*
X0337975Y0170304D01*
X0337970Y0170292D01*
X0337963Y0170280D01*
X0337950Y0170269D01*
X0337935Y0170262D01*
X0337914Y0170259D01*
X0337125D01*
X0337121D01*
X0337114Y0170261D01*
X0337104Y0170262D01*
X0337092Y0170268D01*
X0337080Y0170274D01*
X0337069Y0170287D01*
X0337062Y0170302D01*
X0337059Y0170325D01*
Y0170328D01*
X0337060Y0170335D01*
X0337062Y0170346D01*
X0337067Y0170358D01*
X0337074Y0170370D01*
X0337087Y0170380D01*
X0337102Y0170387D01*
X0337125Y0170391D01*
X0337914D01*
X0337918D01*
X0337924Y0170389D01*
D02*
G37*
G36*
X0336805D02*
X0336816Y0170387D01*
X0336828Y0170382D01*
X0336840Y0170375D01*
X0336851Y0170363D01*
X0336858Y0170347D01*
X0336861Y0170325D01*
Y0170321D01*
X0336859Y0170314D01*
X0336858Y0170304D01*
X0336852Y0170292D01*
X0336845Y0170280D01*
X0336833Y0170269D01*
X0336818Y0170262D01*
X0336795Y0170259D01*
X0336729D01*
X0336726D01*
X0336719Y0170261D01*
X0336708Y0170262D01*
X0336696Y0170268D01*
X0336684Y0170274D01*
X0336674Y0170287D01*
X0336667Y0170302D01*
X0336663Y0170325D01*
Y0170328D01*
X0336665Y0170335D01*
X0336667Y0170346D01*
X0336672Y0170358D01*
X0336679Y0170370D01*
X0336691Y0170380D01*
X0336707Y0170387D01*
X0336729Y0170391D01*
X0336795D01*
X0336799D01*
X0336805Y0170389D01*
D02*
G37*
G36*
X0337768Y0169992D02*
X0337779Y0169990D01*
X0337791Y0169988D01*
X0337817Y0169981D01*
X0337845Y0169971D01*
X0337876Y0169954D01*
X0337890Y0169943D01*
X0337904Y0169931D01*
X0337916Y0169917D01*
X0337928Y0169900D01*
Y0169898D01*
X0337930Y0169896D01*
X0337933Y0169891D01*
X0337935Y0169886D01*
X0337944Y0169867D01*
X0337952Y0169842D01*
X0337963Y0169813D01*
X0337970Y0169778D01*
X0337976Y0169737D01*
X0337978Y0169692D01*
Y0169672D01*
X0337976Y0169660D01*
Y0169643D01*
X0337975Y0169626D01*
X0337971Y0169605D01*
X0337970Y0169581D01*
X0337961Y0169530D01*
X0337947Y0169478D01*
X0337930Y0169424D01*
X0337905Y0169374D01*
X0337904Y0169372D01*
X0337902Y0169369D01*
X0337897Y0169362D01*
X0337890Y0169355D01*
X0337881Y0169348D01*
X0337872Y0169341D01*
X0337860Y0169338D01*
X0337846Y0169336D01*
X0337845D01*
X0337841D01*
X0337831Y0169338D01*
X0337817Y0169345D01*
X0337808Y0169348D01*
X0337801Y0169355D01*
X0337800Y0169357D01*
X0337798Y0169358D01*
X0337791Y0169369D01*
X0337786Y0169383D01*
X0337782Y0169393D01*
Y0169411D01*
X0337784Y0169419D01*
X0337786Y0169428D01*
Y0169430D01*
X0337789Y0169433D01*
X0337793Y0169442D01*
X0337796Y0169452D01*
X0337801Y0169464D01*
X0337808Y0169480D01*
X0337815Y0169499D01*
X0337824Y0169522D01*
Y0169523D01*
X0337826Y0169525D01*
Y0169530D01*
X0337827Y0169537D01*
X0337831Y0169555D01*
X0337834Y0169577D01*
X0337839Y0169603D01*
X0337843Y0169633D01*
X0337845Y0169664D01*
X0337846Y0169695D01*
Y0169711D01*
X0337845Y0169721D01*
X0337843Y0169733D01*
X0337841Y0169747D01*
X0337834Y0169778D01*
X0337822Y0169810D01*
X0337815Y0169823D01*
X0337805Y0169836D01*
X0337794Y0169846D01*
X0337780Y0169855D01*
X0337767Y0169860D01*
X0337749Y0169862D01*
X0337746D01*
X0337739D01*
X0337728Y0169858D01*
X0337715Y0169855D01*
X0337699Y0169848D01*
X0337685Y0169839D01*
X0337671Y0169825D01*
X0337659Y0169806D01*
X0337496Y0169470D01*
Y0169468D01*
X0337492Y0169464D01*
X0337489Y0169457D01*
X0337484Y0169449D01*
X0337468Y0169428D01*
X0337447Y0169404D01*
X0337433Y0169390D01*
X0337418Y0169378D01*
X0337401Y0169367D01*
X0337383Y0169357D01*
X0337362Y0169348D01*
X0337340Y0169341D01*
X0337316Y0169338D01*
X0337289Y0169336D01*
X0337288D01*
X0337284D01*
X0337279D01*
X0337270Y0169338D01*
X0337250Y0169341D01*
X0337224Y0169348D01*
X0337196Y0169358D01*
X0337166Y0169376D01*
X0337152Y0169386D01*
X0337139Y0169398D01*
X0337125Y0169414D01*
X0337113Y0169430D01*
Y0169431D01*
X0337111Y0169433D01*
X0337107Y0169438D01*
X0337104Y0169443D01*
X0337095Y0169463D01*
X0337085Y0169485D01*
X0337076Y0169515D01*
X0337067Y0169549D01*
X0337060Y0169587D01*
X0337059Y0169631D01*
Y0169645D01*
X0337060Y0169655D01*
Y0169669D01*
X0337062Y0169683D01*
X0337066Y0169700D01*
X0337067Y0169719D01*
X0337076Y0169759D01*
X0337090Y0169804D01*
X0337109Y0169849D01*
X0337119Y0169870D01*
X0337133Y0169893D01*
X0337135Y0169895D01*
X0337137Y0169898D01*
X0337142Y0169903D01*
X0337149Y0169910D01*
X0337166Y0169922D01*
X0337178Y0169926D01*
X0337191Y0169928D01*
X0337192D01*
X0337194D01*
X0337206Y0169926D01*
X0337222Y0169919D01*
X0337229Y0169915D01*
X0337237Y0169908D01*
X0337241Y0169905D01*
X0337246Y0169896D01*
X0337253Y0169881D01*
X0337255Y0169872D01*
X0337257Y0169862D01*
Y0169858D01*
X0337255Y0169851D01*
X0337253Y0169842D01*
X0337248Y0169832D01*
Y0169830D01*
X0337246Y0169829D01*
X0337243Y0169823D01*
X0337239Y0169815D01*
X0337234Y0169806D01*
X0337230Y0169796D01*
X0337218Y0169771D01*
X0337208Y0169742D01*
X0337199Y0169707D01*
X0337192Y0169671D01*
X0337191Y0169631D01*
Y0169615D01*
X0337192Y0169605D01*
X0337194Y0169593D01*
X0337196Y0169579D01*
X0337203Y0169549D01*
X0337215Y0169520D01*
X0337222Y0169506D01*
X0337232Y0169494D01*
X0337244Y0169483D01*
X0337257Y0169475D01*
X0337272Y0169470D01*
X0337289Y0169468D01*
X0337293D01*
X0337300Y0169470D01*
X0337310Y0169471D01*
X0337322Y0169475D01*
X0337338Y0169482D01*
X0337352Y0169490D01*
X0337366Y0169504D01*
X0337376Y0169522D01*
X0337541Y0169862D01*
Y0169863D01*
X0337545Y0169867D01*
X0337548Y0169874D01*
X0337553Y0169882D01*
X0337569Y0169903D01*
X0337591Y0169928D01*
X0337621Y0169952D01*
X0337636Y0169962D01*
X0337656Y0169973D01*
X0337676Y0169981D01*
X0337699Y0169988D01*
X0337723Y0169992D01*
X0337749Y0169993D01*
X0337751D01*
X0337754D01*
X0337761D01*
X0337768Y0169992D01*
D02*
G37*
G36*
X0337924Y0169072D02*
X0337935Y0169071D01*
X0337945Y0169065D01*
X0337957Y0169058D01*
X0337968Y0169046D01*
X0337975Y0169031D01*
X0337978Y0169008D01*
Y0169005D01*
X0337976Y0168998D01*
X0337975Y0168987D01*
X0337970Y0168975D01*
X0337963Y0168963D01*
X0337950Y0168953D01*
X0337935Y0168946D01*
X0337914Y0168942D01*
X0337321D01*
X0337319D01*
X0337312D01*
X0337302Y0168940D01*
X0337288Y0168937D01*
X0337274Y0168933D01*
X0337258Y0168927D01*
X0337243Y0168916D01*
X0337227Y0168904D01*
X0337225Y0168902D01*
X0337222Y0168897D01*
X0337215Y0168888D01*
X0337208Y0168878D01*
X0337201Y0168864D01*
X0337194Y0168848D01*
X0337191Y0168831D01*
X0337189Y0168810D01*
Y0168548D01*
X0337914D01*
X0337918D01*
X0337924Y0168547D01*
X0337935Y0168545D01*
X0337945Y0168540D01*
X0337957Y0168533D01*
X0337968Y0168521D01*
X0337975Y0168505D01*
X0337978Y0168482D01*
Y0168479D01*
X0337976Y0168472D01*
X0337975Y0168462D01*
X0337970Y0168449D01*
X0337963Y0168437D01*
X0337950Y0168427D01*
X0337935Y0168420D01*
X0337914Y0168416D01*
X0337123D01*
X0337119D01*
X0337113Y0168418D01*
X0337102Y0168420D01*
X0337090Y0168425D01*
X0337078Y0168432D01*
X0337067Y0168444D01*
X0337060Y0168460D01*
X0337057Y0168481D01*
Y0168821D01*
X0337059Y0168829D01*
Y0168838D01*
X0337060Y0168850D01*
X0337066Y0168876D01*
X0337076Y0168906D01*
X0337090Y0168937D01*
X0337107Y0168968D01*
X0337119Y0168984D01*
X0337133Y0168998D01*
Y0168999D01*
X0337137Y0169001D01*
X0337147Y0169010D01*
X0337163Y0169022D01*
X0337185Y0169036D01*
X0337213Y0169050D01*
X0337244Y0169062D01*
X0337281Y0169071D01*
X0337300Y0169074D01*
X0337321D01*
X0337914D01*
X0337918D01*
X0337924Y0169072D01*
D02*
G37*
G36*
X0337923Y0168151D02*
X0337933Y0168149D01*
X0337945Y0168144D01*
X0337957Y0168137D01*
X0337968Y0168125D01*
X0337975Y0168109D01*
X0337978Y0168087D01*
Y0167747D01*
X0337976Y0167740D01*
X0337975Y0167719D01*
X0337970Y0167693D01*
X0337959Y0167664D01*
X0337947Y0167632D01*
X0337928Y0167601D01*
X0337918Y0167585D01*
X0337904Y0167572D01*
X0337902D01*
X0337900Y0167568D01*
X0337890Y0167559D01*
X0337874Y0167547D01*
X0337852Y0167533D01*
X0337824Y0167520D01*
X0337793Y0167507D01*
X0337756Y0167499D01*
X0337737Y0167497D01*
X0337716Y0167495D01*
X0337387D01*
X0337385D01*
X0337380D01*
X0337373D01*
X0337364Y0167497D01*
X0337352Y0167499D01*
X0337338Y0167501D01*
X0337307Y0167507D01*
X0337270Y0167518D01*
X0337230Y0167535D01*
X0337211Y0167547D01*
X0337192Y0167559D01*
X0337173Y0167573D01*
X0337154Y0167591D01*
X0337152Y0167592D01*
X0337151Y0167596D01*
X0337146Y0167601D01*
X0337139Y0167608D01*
X0337132Y0167617D01*
X0337123Y0167629D01*
X0337114Y0167641D01*
X0337106Y0167657D01*
X0337088Y0167690D01*
X0337073Y0167729D01*
X0337060Y0167775D01*
X0337059Y0167799D01*
X0337057Y0167823D01*
Y0167837D01*
X0337059Y0167846D01*
X0337060Y0167858D01*
X0337062Y0167872D01*
X0337069Y0167905D01*
X0337080Y0167941D01*
X0337097Y0167981D01*
X0337107Y0168000D01*
X0337121Y0168019D01*
X0337135Y0168038D01*
X0337152Y0168057D01*
X0337154Y0168059D01*
X0337156Y0168061D01*
X0337163Y0168066D01*
X0337170Y0168073D01*
X0337178Y0168080D01*
X0337191Y0168087D01*
X0337203Y0168096D01*
X0337217Y0168106D01*
X0337251Y0168123D01*
X0337291Y0168137D01*
X0337336Y0168149D01*
X0337361Y0168151D01*
X0337387Y0168153D01*
X0337584D01*
Y0167627D01*
X0337716D01*
X0337718D01*
X0337725D01*
X0337735Y0167629D01*
X0337747Y0167632D01*
X0337763Y0167636D01*
X0337777Y0167643D01*
X0337793Y0167653D01*
X0337808Y0167665D01*
X0337810Y0167667D01*
X0337813Y0167672D01*
X0337820Y0167681D01*
X0337827Y0167691D01*
X0337834Y0167705D01*
X0337841Y0167721D01*
X0337845Y0167738D01*
X0337846Y0167757D01*
Y0168090D01*
X0337848Y0168097D01*
X0337850Y0168108D01*
X0337855Y0168120D01*
X0337862Y0168132D01*
X0337874Y0168142D01*
X0337890Y0168149D01*
X0337912Y0168153D01*
X0337916D01*
X0337923Y0168151D01*
D02*
G37*
G36*
X0337133Y0167228D02*
X0337144Y0167226D01*
X0337156Y0167221D01*
X0337168Y0167214D01*
X0337178Y0167202D01*
X0337185Y0167186D01*
X0337189Y0167164D01*
Y0166968D01*
X0337914D01*
X0337918D01*
X0337924Y0166966D01*
X0337935Y0166964D01*
X0337945Y0166959D01*
X0337957Y0166952D01*
X0337968Y0166940D01*
X0337975Y0166925D01*
X0337978Y0166902D01*
Y0166899D01*
X0337976Y0166892D01*
X0337975Y0166881D01*
X0337970Y0166869D01*
X0337963Y0166857D01*
X0337950Y0166846D01*
X0337935Y0166840D01*
X0337914Y0166836D01*
X0337189D01*
Y0166767D01*
X0337187Y0166760D01*
X0337185Y0166749D01*
X0337180Y0166737D01*
X0337173Y0166725D01*
X0337161Y0166715D01*
X0337146Y0166708D01*
X0337123Y0166704D01*
X0337119D01*
X0337113Y0166706D01*
X0337102Y0166708D01*
X0337090Y0166713D01*
X0337078Y0166720D01*
X0337067Y0166732D01*
X0337060Y0166748D01*
X0337057Y0166770D01*
Y0166836D01*
X0336729D01*
X0336726D01*
X0336719Y0166838D01*
X0336708Y0166840D01*
X0336696Y0166845D01*
X0336684Y0166852D01*
X0336674Y0166864D01*
X0336667Y0166879D01*
X0336663Y0166902D01*
Y0166905D01*
X0336665Y0166912D01*
X0336667Y0166923D01*
X0336672Y0166935D01*
X0336679Y0166947D01*
X0336691Y0166958D01*
X0336707Y0166964D01*
X0336729Y0166968D01*
X0337057D01*
Y0167167D01*
X0337059Y0167174D01*
X0337060Y0167185D01*
X0337066Y0167197D01*
X0337073Y0167209D01*
X0337085Y0167219D01*
X0337100Y0167226D01*
X0337123Y0167230D01*
X0337126D01*
X0337133Y0167228D01*
D02*
G37*
G36*
X0337924Y0166439D02*
X0337935Y0166437D01*
X0337945Y0166432D01*
X0337957Y0166425D01*
X0337968Y0166413D01*
X0337975Y0166397D01*
X0337978Y0166375D01*
Y0166369D01*
X0337976Y0166362D01*
X0337975Y0166356D01*
X0337971Y0166347D01*
X0337966Y0166338D01*
X0337959Y0166329D01*
X0337950Y0166321D01*
X0337636Y0166113D01*
X0337950Y0165904D01*
X0337952D01*
X0337954Y0165901D01*
X0337959Y0165896D01*
X0337964Y0165891D01*
X0337973Y0165873D01*
X0337976Y0165861D01*
X0337978Y0165849D01*
Y0165845D01*
X0337976Y0165833D01*
X0337970Y0165818D01*
X0337966Y0165811D01*
X0337959Y0165802D01*
X0337957D01*
X0337956Y0165799D01*
X0337947Y0165793D01*
X0337931Y0165786D01*
X0337923Y0165785D01*
X0337914Y0165783D01*
X0337912D01*
X0337911D01*
X0337902Y0165785D01*
X0337890Y0165788D01*
X0337876Y0165795D01*
X0337518Y0166033D01*
X0337161Y0165795D01*
X0337158Y0165793D01*
X0337149Y0165790D01*
X0337137Y0165785D01*
X0337123Y0165783D01*
X0337119D01*
X0337113Y0165785D01*
X0337102Y0165786D01*
X0337090Y0165792D01*
X0337078Y0165799D01*
X0337067Y0165811D01*
X0337060Y0165826D01*
X0337057Y0165849D01*
Y0165854D01*
X0337059Y0165861D01*
X0337060Y0165870D01*
X0337064Y0165878D01*
X0337069Y0165887D01*
X0337076Y0165896D01*
X0337087Y0165904D01*
X0337399Y0166113D01*
X0337087Y0166321D01*
X0337085Y0166323D01*
X0337081Y0166324D01*
X0337071Y0166335D01*
X0337062Y0166352D01*
X0337059Y0166362D01*
X0337057Y0166375D01*
Y0166378D01*
X0337059Y0166385D01*
X0337060Y0166395D01*
X0337066Y0166408D01*
X0337073Y0166420D01*
X0337085Y0166430D01*
X0337100Y0166437D01*
X0337123Y0166441D01*
X0337125D01*
X0337126D01*
X0337135Y0166439D01*
X0337147Y0166437D01*
X0337161Y0166430D01*
X0337518Y0166192D01*
X0337876Y0166430D01*
X0337879Y0166432D01*
X0337886Y0166435D01*
X0337898Y0166439D01*
X0337914Y0166441D01*
X0337918D01*
X0337924Y0166439D01*
D02*
G37*
G36*
X0337923Y0165519D02*
X0337933Y0165518D01*
X0337945Y0165512D01*
X0337957Y0165505D01*
X0337968Y0165493D01*
X0337975Y0165478D01*
X0337978Y0165455D01*
Y0164926D01*
X0337976Y0164919D01*
X0337975Y0164909D01*
X0337970Y0164897D01*
X0337963Y0164884D01*
X0337950Y0164874D01*
X0337935Y0164867D01*
X0337914Y0164864D01*
X0336729D01*
X0336726D01*
X0336719Y0164865D01*
X0336708Y0164867D01*
X0336696Y0164872D01*
X0336684Y0164879D01*
X0336674Y0164891D01*
X0336667Y0164907D01*
X0336663Y0164929D01*
Y0165459D01*
X0336665Y0165466D01*
X0336667Y0165476D01*
X0336672Y0165488D01*
X0336679Y0165500D01*
X0336691Y0165511D01*
X0336707Y0165518D01*
X0336729Y0165521D01*
X0336733D01*
X0336740Y0165519D01*
X0336750Y0165518D01*
X0336762Y0165512D01*
X0336774Y0165505D01*
X0336785Y0165493D01*
X0336792Y0165478D01*
X0336795Y0165455D01*
Y0164995D01*
X0337189D01*
Y0165327D01*
X0337191Y0165334D01*
X0337192Y0165344D01*
X0337198Y0165356D01*
X0337204Y0165368D01*
X0337217Y0165379D01*
X0337232Y0165386D01*
X0337255Y0165389D01*
X0337258D01*
X0337265Y0165387D01*
X0337276Y0165386D01*
X0337288Y0165381D01*
X0337300Y0165374D01*
X0337310Y0165361D01*
X0337317Y0165346D01*
X0337321Y0165323D01*
Y0164995D01*
X0337846D01*
Y0165459D01*
X0337848Y0165466D01*
X0337850Y0165476D01*
X0337855Y0165488D01*
X0337862Y0165500D01*
X0337874Y0165511D01*
X0337890Y0165518D01*
X0337912Y0165521D01*
X0337916D01*
X0337923Y0165519D01*
D02*
G37*
G36*
X0338316Y0164926D02*
X0338327Y0164924D01*
X0338339Y0164919D01*
X0338351Y0164912D01*
X0338362Y0164900D01*
X0338369Y0164884D01*
X0338372Y0164862D01*
Y0163415D01*
X0338370Y0163408D01*
X0338369Y0163398D01*
X0338363Y0163385D01*
X0338356Y0163373D01*
X0338344Y0163363D01*
X0338329Y0163356D01*
X0338306Y0163353D01*
X0338303D01*
X0338296Y0163354D01*
X0338285Y0163356D01*
X0338273Y0163361D01*
X0338261Y0163368D01*
X0338251Y0163380D01*
X0338244Y0163396D01*
X0338240Y0163418D01*
Y0164865D01*
X0338242Y0164872D01*
X0338244Y0164883D01*
X0338249Y0164895D01*
X0338256Y0164907D01*
X0338268Y0164917D01*
X0338284Y0164924D01*
X0338306Y0164928D01*
X0338310D01*
X0338316Y0164926D01*
D02*
G37*
G36*
X0337923Y0163415D02*
X0337933Y0163413D01*
X0337945Y0163408D01*
X0337957Y0163401D01*
X0337968Y0163389D01*
X0337975Y0163373D01*
X0337978Y0163351D01*
Y0163073D01*
X0337976Y0163065D01*
X0337975Y0163052D01*
X0337973Y0163039D01*
X0337966Y0163007D01*
X0337956Y0162971D01*
X0337938Y0162933D01*
X0337926Y0162912D01*
X0337914Y0162893D01*
X0337900Y0162874D01*
X0337883Y0162855D01*
X0337881Y0162853D01*
X0337878Y0162851D01*
X0337872Y0162846D01*
X0337865Y0162839D01*
X0337857Y0162832D01*
X0337845Y0162825D01*
X0337832Y0162816D01*
X0337819Y0162808D01*
X0337784Y0162789D01*
X0337744Y0162775D01*
X0337699Y0162763D01*
X0337675Y0162761D01*
X0337650Y0162759D01*
X0336993D01*
X0336991D01*
X0336986D01*
X0336979D01*
X0336970Y0162761D01*
X0336958Y0162763D01*
X0336944Y0162764D01*
X0336913Y0162771D01*
X0336877Y0162782D01*
X0336837Y0162799D01*
X0336818Y0162811D01*
X0336799Y0162823D01*
X0336779Y0162837D01*
X0336760Y0162855D01*
X0336759Y0162856D01*
X0336757Y0162860D01*
X0336752Y0162865D01*
X0336745Y0162872D01*
X0336738Y0162881D01*
X0336729Y0162893D01*
X0336720Y0162905D01*
X0336712Y0162921D01*
X0336694Y0162954D01*
X0336679Y0162993D01*
X0336667Y0163039D01*
X0336665Y0163063D01*
X0336663Y0163087D01*
Y0163354D01*
X0336665Y0163361D01*
X0336667Y0163372D01*
X0336672Y0163384D01*
X0336679Y0163396D01*
X0336691Y0163406D01*
X0336707Y0163413D01*
X0336729Y0163417D01*
X0336733D01*
X0336740Y0163415D01*
X0336750Y0163413D01*
X0336762Y0163408D01*
X0336774Y0163401D01*
X0336785Y0163389D01*
X0336792Y0163373D01*
X0336795Y0163351D01*
Y0163073D01*
X0336799Y0163058D01*
X0336802Y0163039D01*
X0336809Y0163018D01*
X0336819Y0162993D01*
X0336835Y0162971D01*
X0336854Y0162948D01*
X0336856Y0162947D01*
X0336864Y0162940D01*
X0336877Y0162931D01*
X0336892Y0162921D01*
X0336913Y0162908D01*
X0336937Y0162900D01*
X0336963Y0162893D01*
X0336993Y0162891D01*
X0337650D01*
X0337652D01*
X0337654D01*
X0337664Y0162893D01*
X0337680Y0162895D01*
X0337699Y0162898D01*
X0337720Y0162905D01*
X0337744Y0162915D01*
X0337767Y0162929D01*
X0337789Y0162948D01*
X0337791Y0162952D01*
X0337798Y0162959D01*
X0337806Y0162971D01*
X0337817Y0162986D01*
X0337829Y0163007D01*
X0337838Y0163032D01*
X0337845Y0163058D01*
X0337846Y0163087D01*
Y0163354D01*
X0337848Y0163361D01*
X0337850Y0163372D01*
X0337855Y0163384D01*
X0337862Y0163396D01*
X0337874Y0163406D01*
X0337890Y0163413D01*
X0337912Y0163417D01*
X0337916D01*
X0337923Y0163415D01*
D02*
G37*
G36*
X0337924Y0162494D02*
X0337935Y0162492D01*
X0337945Y0162487D01*
X0337957Y0162480D01*
X0337968Y0162468D01*
X0337975Y0162452D01*
X0337978Y0162430D01*
Y0162426D01*
X0337976Y0162419D01*
X0337975Y0162409D01*
X0337970Y0162397D01*
X0337963Y0162385D01*
X0337950Y0162374D01*
X0337935Y0162367D01*
X0337914Y0162364D01*
X0336946D01*
X0337347Y0162095D01*
X0337348Y0162093D01*
X0337354Y0162090D01*
X0337359Y0162084D01*
X0337366Y0162077D01*
X0337375Y0162069D01*
X0337380Y0162058D01*
X0337385Y0162048D01*
X0337387Y0162036D01*
Y0162031D01*
X0337385Y0162024D01*
X0337381Y0162015D01*
X0337376Y0162005D01*
X0337369Y0161994D01*
X0337361Y0161984D01*
X0337347Y0161973D01*
X0336946Y0161708D01*
X0337914D01*
X0337918D01*
X0337924Y0161706D01*
X0337935Y0161704D01*
X0337945Y0161699D01*
X0337957Y0161692D01*
X0337968Y0161680D01*
X0337975Y0161665D01*
X0337978Y0161642D01*
Y0161639D01*
X0337976Y0161632D01*
X0337975Y0161621D01*
X0337970Y0161609D01*
X0337963Y0161597D01*
X0337950Y0161586D01*
X0337935Y0161580D01*
X0337914Y0161576D01*
X0336729D01*
X0336726D01*
X0336719Y0161578D01*
X0336708Y0161580D01*
X0336696Y0161585D01*
X0336684Y0161592D01*
X0336674Y0161604D01*
X0336667Y0161619D01*
X0336663Y0161640D01*
Y0161647D01*
X0336665Y0161652D01*
X0336667Y0161661D01*
X0336672Y0161671D01*
X0336677Y0161680D01*
X0336686Y0161691D01*
X0336696Y0161699D01*
X0337203Y0162034D01*
X0336693Y0162374D01*
X0336691Y0162376D01*
X0336688Y0162378D01*
X0336684Y0162381D01*
X0336677Y0162388D01*
X0336672Y0162395D01*
X0336668Y0162405D01*
X0336665Y0162416D01*
X0336663Y0162430D01*
Y0162433D01*
X0336665Y0162440D01*
X0336667Y0162450D01*
X0336672Y0162463D01*
X0336679Y0162475D01*
X0336691Y0162485D01*
X0336707Y0162492D01*
X0336729Y0162496D01*
X0337914D01*
X0337918D01*
X0337924Y0162494D01*
D02*
G37*
G36*
X0337265Y0161311D02*
X0337276Y0161309D01*
X0337288Y0161304D01*
X0337300Y0161297D01*
X0337310Y0161285D01*
X0337317Y0161269D01*
X0337321Y0161246D01*
Y0160787D01*
X0337914D01*
X0337918D01*
X0337924Y0160785D01*
X0337935Y0160783D01*
X0337945Y0160778D01*
X0337957Y0160771D01*
X0337968Y0160759D01*
X0337975Y0160743D01*
X0337978Y0160721D01*
Y0160717D01*
X0337976Y0160710D01*
X0337975Y0160700D01*
X0337970Y0160688D01*
X0337963Y0160676D01*
X0337950Y0160665D01*
X0337935Y0160658D01*
X0337914Y0160655D01*
X0336729D01*
X0336726D01*
X0336719Y0160657D01*
X0336708Y0160658D01*
X0336696Y0160664D01*
X0336684Y0160671D01*
X0336674Y0160683D01*
X0336667Y0160698D01*
X0336663Y0160721D01*
Y0161250D01*
X0336665Y0161257D01*
X0336667Y0161267D01*
X0336672Y0161279D01*
X0336679Y0161292D01*
X0336691Y0161302D01*
X0336707Y0161309D01*
X0336729Y0161312D01*
X0336733D01*
X0336740Y0161311D01*
X0336750Y0161309D01*
X0336762Y0161304D01*
X0336774Y0161297D01*
X0336785Y0161285D01*
X0336792Y0161269D01*
X0336795Y0161246D01*
Y0160787D01*
X0337189D01*
Y0161250D01*
X0337191Y0161257D01*
X0337192Y0161267D01*
X0337198Y0161279D01*
X0337204Y0161292D01*
X0337217Y0161302D01*
X0337232Y0161309D01*
X0337255Y0161312D01*
X0337258D01*
X0337265Y0161311D01*
D02*
G37*
G36*
X0337595Y0160388D02*
X0337605Y0160386D01*
X0337617Y0160381D01*
X0337630Y0160374D01*
X0337640Y0160362D01*
X0337647Y0160346D01*
X0337650Y0160324D01*
Y0159794D01*
X0337649Y0159787D01*
X0337647Y0159777D01*
X0337642Y0159765D01*
X0337635Y0159753D01*
X0337623Y0159742D01*
X0337607Y0159735D01*
X0337584Y0159732D01*
X0337581D01*
X0337574Y0159734D01*
X0337564Y0159735D01*
X0337551Y0159741D01*
X0337539Y0159748D01*
X0337529Y0159760D01*
X0337522Y0159775D01*
X0337518Y0159798D01*
Y0160327D01*
X0337520Y0160334D01*
X0337522Y0160344D01*
X0337527Y0160357D01*
X0337534Y0160369D01*
X0337546Y0160379D01*
X0337562Y0160386D01*
X0337584Y0160389D01*
X0337588D01*
X0337595Y0160388D01*
D02*
G37*
G36*
X0337265Y0159468D02*
X0337276Y0159467D01*
X0337288Y0159461D01*
X0337300Y0159454D01*
X0337310Y0159442D01*
X0337317Y0159427D01*
X0337321Y0159404D01*
Y0158944D01*
X0337914D01*
X0337918D01*
X0337924Y0158943D01*
X0337935Y0158941D01*
X0337945Y0158936D01*
X0337957Y0158929D01*
X0337968Y0158917D01*
X0337975Y0158901D01*
X0337978Y0158878D01*
Y0158875D01*
X0337976Y0158868D01*
X0337975Y0158858D01*
X0337970Y0158845D01*
X0337963Y0158833D01*
X0337950Y0158823D01*
X0337935Y0158816D01*
X0337914Y0158813D01*
X0336729D01*
X0336726D01*
X0336719Y0158814D01*
X0336708Y0158816D01*
X0336696Y0158821D01*
X0336684Y0158828D01*
X0336674Y0158840D01*
X0336667Y0158856D01*
X0336663Y0158878D01*
Y0159408D01*
X0336665Y0159415D01*
X0336667Y0159425D01*
X0336672Y0159437D01*
X0336679Y0159449D01*
X0336691Y0159460D01*
X0336707Y0159467D01*
X0336729Y0159470D01*
X0336733D01*
X0336740Y0159468D01*
X0336750Y0159467D01*
X0336762Y0159461D01*
X0336774Y0159454D01*
X0336785Y0159442D01*
X0336792Y0159427D01*
X0336795Y0159404D01*
Y0158944D01*
X0337189D01*
Y0159408D01*
X0337191Y0159415D01*
X0337192Y0159425D01*
X0337198Y0159437D01*
X0337204Y0159449D01*
X0337217Y0159460D01*
X0337232Y0159467D01*
X0337255Y0159470D01*
X0337258D01*
X0337265Y0159468D01*
D02*
G37*
G36*
X0337930Y0158547D02*
X0337944Y0158540D01*
X0337952Y0158535D01*
X0337959Y0158528D01*
Y0158526D01*
X0337963Y0158525D01*
X0337968Y0158514D01*
X0337975Y0158500D01*
X0337976Y0158490D01*
X0337978Y0158481D01*
Y0158474D01*
X0337976Y0158467D01*
X0337973Y0158459D01*
X0337970Y0158448D01*
X0337963Y0158440D01*
X0337954Y0158429D01*
X0337942Y0158422D01*
X0337453Y0158178D01*
Y0157893D01*
X0337914D01*
X0337918D01*
X0337924Y0157891D01*
X0337935Y0157890D01*
X0337945Y0157884D01*
X0337957Y0157877D01*
X0337968Y0157865D01*
X0337975Y0157850D01*
X0337978Y0157827D01*
Y0157824D01*
X0337976Y0157817D01*
X0337975Y0157806D01*
X0337970Y0157794D01*
X0337963Y0157782D01*
X0337950Y0157772D01*
X0337935Y0157765D01*
X0337914Y0157761D01*
X0336729D01*
X0336726D01*
X0336719Y0157763D01*
X0336708Y0157765D01*
X0336696Y0157770D01*
X0336684Y0157777D01*
X0336674Y0157789D01*
X0336667Y0157805D01*
X0336663Y0157825D01*
Y0158171D01*
X0336665Y0158183D01*
X0336667Y0158197D01*
X0336670Y0158212D01*
X0336674Y0158231D01*
X0336677Y0158250D01*
X0336691Y0158294D01*
X0336701Y0158318D01*
X0336712Y0158341D01*
X0336726Y0158365D01*
X0336741Y0158387D01*
X0336759Y0158410D01*
X0336779Y0158433D01*
X0336781Y0158434D01*
X0336785Y0158438D01*
X0336792Y0158443D01*
X0336800Y0158452D01*
X0336811Y0158460D01*
X0336825Y0158469D01*
X0336840Y0158479D01*
X0336858Y0158492D01*
X0336877Y0158502D01*
X0336897Y0158512D01*
X0336922Y0158521D01*
X0336946Y0158531D01*
X0336972Y0158538D01*
X0337000Y0158544D01*
X0337029Y0158547D01*
X0337059Y0158549D01*
X0337062D01*
X0337071D01*
X0337085Y0158547D01*
X0337102Y0158545D01*
X0337125Y0158542D01*
X0337149Y0158537D01*
X0337177Y0158528D01*
X0337206Y0158519D01*
X0337237Y0158505D01*
X0337267Y0158490D01*
X0337298Y0158471D01*
X0337328Y0158448D01*
X0337355Y0158420D01*
X0337381Y0158389D01*
X0337406Y0158351D01*
X0337425Y0158309D01*
X0337883Y0158540D01*
X0337886Y0158542D01*
X0337893Y0158545D01*
X0337904Y0158547D01*
X0337914Y0158549D01*
X0337916D01*
X0337918D01*
X0337930Y0158547D01*
D02*
G37*
G36*
X0337923Y0157496D02*
X0337933Y0157494D01*
X0337945Y0157489D01*
X0337957Y0157482D01*
X0337968Y0157470D01*
X0337975Y0157454D01*
X0337978Y0157432D01*
Y0156902D01*
X0337976Y0156896D01*
X0337975Y0156885D01*
X0337970Y0156873D01*
X0337963Y0156861D01*
X0337950Y0156850D01*
X0337935Y0156844D01*
X0337914Y0156840D01*
X0336729D01*
X0336726D01*
X0336719Y0156842D01*
X0336708Y0156844D01*
X0336696Y0156849D01*
X0336684Y0156856D01*
X0336674Y0156868D01*
X0336667Y0156883D01*
X0336663Y0156906D01*
Y0156909D01*
X0336665Y0156916D01*
X0336667Y0156927D01*
X0336672Y0156939D01*
X0336679Y0156951D01*
X0336691Y0156961D01*
X0336707Y0156968D01*
X0336729Y0156972D01*
X0337846D01*
Y0157435D01*
X0337848Y0157442D01*
X0337850Y0157452D01*
X0337855Y0157465D01*
X0337862Y0157477D01*
X0337874Y0157487D01*
X0337890Y0157494D01*
X0337912Y0157498D01*
X0337916D01*
X0337923Y0157496D01*
D02*
G37*
G36*
Y0156575D02*
X0337933Y0156573D01*
X0337945Y0156568D01*
X0337957Y0156561D01*
X0337968Y0156549D01*
X0337975Y0156533D01*
X0337978Y0156510D01*
Y0155981D01*
X0337976Y0155974D01*
X0337975Y0155964D01*
X0337970Y0155952D01*
X0337963Y0155940D01*
X0337950Y0155929D01*
X0337935Y0155922D01*
X0337914Y0155919D01*
X0336729D01*
X0336726D01*
X0336719Y0155921D01*
X0336708Y0155922D01*
X0336696Y0155928D01*
X0336684Y0155934D01*
X0336674Y0155947D01*
X0336667Y0155962D01*
X0336663Y0155985D01*
Y0155988D01*
X0336665Y0155995D01*
X0336667Y0156006D01*
X0336672Y0156018D01*
X0336679Y0156030D01*
X0336691Y0156040D01*
X0336707Y0156047D01*
X0336729Y0156051D01*
X0337846D01*
Y0156514D01*
X0337848Y0156521D01*
X0337850Y0156531D01*
X0337855Y0156543D01*
X0337862Y0156556D01*
X0337874Y0156566D01*
X0337890Y0156573D01*
X0337912Y0156576D01*
X0337916D01*
X0337923Y0156575D01*
D02*
G37*
G36*
X0337924Y0154864D02*
X0337935Y0154862D01*
X0337945Y0154857D01*
X0337957Y0154850D01*
X0337968Y0154838D01*
X0337975Y0154822D01*
X0337978Y0154800D01*
Y0154460D01*
X0337976Y0154451D01*
Y0154443D01*
X0337975Y0154430D01*
X0337970Y0154406D01*
X0337959Y0154377D01*
X0337947Y0154344D01*
X0337928Y0154312D01*
X0337918Y0154297D01*
X0337904Y0154283D01*
X0337902D01*
X0337900Y0154279D01*
X0337890Y0154271D01*
X0337874Y0154259D01*
X0337852Y0154245D01*
X0337824Y0154231D01*
X0337793Y0154219D01*
X0337756Y0154210D01*
X0337737Y0154208D01*
X0337716Y0154207D01*
X0337713D01*
X0337704D01*
X0337690Y0154208D01*
X0337673Y0154212D01*
X0337652Y0154215D01*
X0337631Y0154220D01*
X0337607Y0154229D01*
X0337584Y0154241D01*
X0337583Y0154243D01*
X0337579Y0154245D01*
X0337572Y0154250D01*
X0337564Y0154255D01*
X0337553Y0154264D01*
X0337543Y0154272D01*
X0337531Y0154285D01*
X0337518Y0154299D01*
X0337506Y0154312D01*
X0337494Y0154330D01*
X0337484Y0154349D01*
X0337473Y0154370D01*
X0337465Y0154392D01*
X0337458Y0154416D01*
X0337454Y0154443D01*
X0337453Y0154470D01*
Y0154734D01*
X0337321D01*
X0337319D01*
X0337312D01*
X0337302Y0154732D01*
X0337288Y0154729D01*
X0337274Y0154725D01*
X0337258Y0154718D01*
X0337243Y0154708D01*
X0337227Y0154696D01*
X0337225Y0154694D01*
X0337222Y0154689D01*
X0337215Y0154680D01*
X0337208Y0154670D01*
X0337201Y0154656D01*
X0337194Y0154640D01*
X0337191Y0154623D01*
X0337189Y0154602D01*
Y0154335D01*
X0337187Y0154328D01*
X0337185Y0154318D01*
X0337180Y0154305D01*
X0337173Y0154293D01*
X0337161Y0154283D01*
X0337146Y0154276D01*
X0337123Y0154272D01*
X0337119D01*
X0337113Y0154274D01*
X0337102Y0154276D01*
X0337090Y0154281D01*
X0337078Y0154288D01*
X0337067Y0154300D01*
X0337060Y0154316D01*
X0337057Y0154338D01*
Y0154613D01*
X0337059Y0154621D01*
X0337060Y0154640D01*
X0337066Y0154666D01*
X0337076Y0154696D01*
X0337090Y0154727D01*
X0337107Y0154758D01*
X0337119Y0154774D01*
X0337133Y0154788D01*
Y0154789D01*
X0337137Y0154791D01*
X0337147Y0154800D01*
X0337163Y0154812D01*
X0337185Y0154828D01*
X0337213Y0154842D01*
X0337244Y0154854D01*
X0337281Y0154862D01*
X0337300Y0154866D01*
X0337321D01*
X0337914D01*
X0337918D01*
X0337924Y0154864D01*
D02*
G37*
G36*
X0339645Y0154075D02*
X0339657Y0154073D01*
X0339671Y0154071D01*
X0339702Y0154064D01*
X0339738Y0154052D01*
X0339778Y0154035D01*
X0339797Y0154024D01*
X0339816Y0154012D01*
X0339836Y0153997D01*
X0339855Y0153979D01*
X0339856Y0153978D01*
X0339858Y0153974D01*
X0339863Y0153969D01*
X0339870Y0153962D01*
X0339877Y0153953D01*
X0339884Y0153941D01*
X0339893Y0153929D01*
X0339901Y0153913D01*
X0339921Y0153880D01*
X0339934Y0153841D01*
X0339947Y0153795D01*
X0339948Y0153771D01*
X0339950Y0153747D01*
Y0153480D01*
X0339948Y0153473D01*
X0339947Y0153462D01*
X0339941Y0153450D01*
X0339934Y0153438D01*
X0339922Y0153428D01*
X0339907Y0153421D01*
X0339884Y0153417D01*
X0339881D01*
X0339874Y0153419D01*
X0339863Y0153421D01*
X0339851Y0153426D01*
X0339839Y0153433D01*
X0339829Y0153445D01*
X0339822Y0153461D01*
X0339818Y0153483D01*
Y0153750D01*
X0339816Y0153761D01*
X0339815Y0153776D01*
X0339811Y0153795D01*
X0339804Y0153816D01*
X0339794Y0153841D01*
X0339780Y0153863D01*
X0339761Y0153886D01*
X0339757Y0153887D01*
X0339751Y0153894D01*
X0339738Y0153905D01*
X0339723Y0153915D01*
X0339702Y0153926D01*
X0339678Y0153936D01*
X0339652Y0153943D01*
X0339622Y0153945D01*
X0339490D01*
X0339489D01*
X0339487D01*
X0339476D01*
X0339461Y0153941D01*
X0339442Y0153938D01*
X0339421Y0153931D01*
X0339397Y0153920D01*
X0339374Y0153905D01*
X0339352Y0153886D01*
X0339350Y0153884D01*
X0339343Y0153875D01*
X0339332Y0153863D01*
X0339322Y0153847D01*
X0339312Y0153827D01*
X0339301Y0153802D01*
X0339294Y0153776D01*
X0339293Y0153747D01*
Y0153612D01*
X0339291Y0153605D01*
X0339289Y0153594D01*
X0339284Y0153582D01*
X0339277Y0153570D01*
X0339265Y0153559D01*
X0339249Y0153553D01*
X0339227Y0153549D01*
X0339223D01*
X0339216Y0153551D01*
X0339206Y0153553D01*
X0339194Y0153558D01*
X0339181Y0153565D01*
X0339171Y0153577D01*
X0339164Y0153592D01*
X0339161Y0153615D01*
Y0153750D01*
X0339159Y0153761D01*
X0339157Y0153776D01*
X0339154Y0153795D01*
X0339147Y0153816D01*
X0339136Y0153841D01*
X0339124Y0153863D01*
X0339105Y0153886D01*
X0339102Y0153887D01*
X0339095Y0153894D01*
X0339083Y0153905D01*
X0339065Y0153915D01*
X0339046Y0153926D01*
X0339022Y0153936D01*
X0338994Y0153943D01*
X0338965Y0153945D01*
X0338963D01*
X0338961D01*
X0338951D01*
X0338935Y0153941D01*
X0338916Y0153938D01*
X0338895Y0153931D01*
X0338871Y0153920D01*
X0338848Y0153905D01*
X0338826Y0153886D01*
X0338824Y0153884D01*
X0338817Y0153875D01*
X0338807Y0153863D01*
X0338796Y0153847D01*
X0338786Y0153827D01*
X0338776Y0153802D01*
X0338769Y0153776D01*
X0338767Y0153747D01*
Y0153480D01*
X0338765Y0153473D01*
X0338763Y0153462D01*
X0338758Y0153450D01*
X0338751Y0153438D01*
X0338739Y0153428D01*
X0338723Y0153421D01*
X0338701Y0153417D01*
X0338697D01*
X0338691Y0153419D01*
X0338680Y0153421D01*
X0338668Y0153426D01*
X0338656Y0153433D01*
X0338645Y0153445D01*
X0338638Y0153461D01*
X0338635Y0153483D01*
Y0153761D01*
X0338637Y0153769D01*
X0338638Y0153782D01*
X0338640Y0153795D01*
X0338647Y0153827D01*
X0338659Y0153863D01*
X0338677Y0153901D01*
X0338687Y0153922D01*
X0338699Y0153941D01*
X0338715Y0153960D01*
X0338732Y0153979D01*
X0338734Y0153981D01*
X0338737Y0153983D01*
X0338743Y0153988D01*
X0338750Y0153995D01*
X0338758Y0154002D01*
X0338770Y0154011D01*
X0338782Y0154019D01*
X0338798Y0154028D01*
X0338831Y0154045D01*
X0338871Y0154061D01*
X0338916Y0154073D01*
X0338940Y0154075D01*
X0338965Y0154076D01*
X0338966D01*
X0338972D01*
X0338980D01*
X0338992Y0154075D01*
X0339006Y0154073D01*
X0339022Y0154070D01*
X0339039Y0154066D01*
X0339058Y0154061D01*
X0339079Y0154054D01*
X0339100Y0154044D01*
X0339122Y0154033D01*
X0339143Y0154021D01*
X0339166Y0154005D01*
X0339187Y0153988D01*
X0339208Y0153967D01*
X0339227Y0153945D01*
X0339228Y0153946D01*
X0339232Y0153950D01*
X0339237Y0153957D01*
X0339244Y0153965D01*
X0339254Y0153976D01*
X0339266Y0153986D01*
X0339280Y0153998D01*
X0339298Y0154011D01*
X0339315Y0154023D01*
X0339336Y0154035D01*
X0339357Y0154045D01*
X0339381Y0154056D01*
X0339405Y0154064D01*
X0339431Y0154071D01*
X0339461Y0154075D01*
X0339490Y0154076D01*
X0339622D01*
X0339624D01*
X0339627D01*
X0339636D01*
X0339645Y0154075D01*
D02*
G37*
G36*
X0337924Y0153945D02*
X0337935Y0153943D01*
X0337945Y0153938D01*
X0337957Y0153931D01*
X0337968Y0153919D01*
X0337975Y0153903D01*
X0337978Y0153880D01*
Y0153877D01*
X0337976Y0153870D01*
X0337975Y0153860D01*
X0337970Y0153847D01*
X0337963Y0153835D01*
X0337950Y0153825D01*
X0337935Y0153818D01*
X0337914Y0153814D01*
X0337125D01*
X0337121D01*
X0337114Y0153816D01*
X0337104Y0153818D01*
X0337092Y0153823D01*
X0337080Y0153830D01*
X0337069Y0153842D01*
X0337062Y0153858D01*
X0337059Y0153880D01*
Y0153884D01*
X0337060Y0153891D01*
X0337062Y0153901D01*
X0337067Y0153913D01*
X0337074Y0153926D01*
X0337087Y0153936D01*
X0337102Y0153943D01*
X0337125Y0153946D01*
X0337914D01*
X0337918D01*
X0337924Y0153945D01*
D02*
G37*
G36*
X0336805D02*
X0336816Y0153943D01*
X0336828Y0153938D01*
X0336840Y0153931D01*
X0336851Y0153919D01*
X0336858Y0153903D01*
X0336861Y0153880D01*
Y0153877D01*
X0336859Y0153870D01*
X0336858Y0153860D01*
X0336852Y0153847D01*
X0336845Y0153835D01*
X0336833Y0153825D01*
X0336818Y0153818D01*
X0336795Y0153814D01*
X0336729D01*
X0336726D01*
X0336719Y0153816D01*
X0336708Y0153818D01*
X0336696Y0153823D01*
X0336684Y0153830D01*
X0336674Y0153842D01*
X0336667Y0153858D01*
X0336663Y0153880D01*
Y0153884D01*
X0336665Y0153891D01*
X0336667Y0153901D01*
X0336672Y0153913D01*
X0336679Y0153926D01*
X0336691Y0153936D01*
X0336707Y0153943D01*
X0336729Y0153946D01*
X0336795D01*
X0336799D01*
X0336805Y0153945D01*
D02*
G37*
G36*
X0339895Y0153155D02*
X0339905Y0153154D01*
X0339917Y0153148D01*
X0339929Y0153141D01*
X0339940Y0153129D01*
X0339947Y0153114D01*
X0339950Y0153091D01*
Y0153088D01*
X0339948Y0153081D01*
X0339947Y0153070D01*
X0339941Y0153058D01*
X0339934Y0153046D01*
X0339922Y0153036D01*
X0339907Y0153029D01*
X0339884Y0153025D01*
X0339818D01*
X0339815D01*
X0339808Y0153027D01*
X0339797Y0153029D01*
X0339785Y0153034D01*
X0339773Y0153041D01*
X0339763Y0153053D01*
X0339756Y0153069D01*
X0339752Y0153091D01*
Y0153095D01*
X0339754Y0153101D01*
X0339756Y0153112D01*
X0339761Y0153124D01*
X0339768Y0153136D01*
X0339780Y0153147D01*
X0339796Y0153154D01*
X0339818Y0153157D01*
X0339884D01*
X0339888D01*
X0339895Y0153155D01*
D02*
G37*
G36*
X0337265Y0153549D02*
X0337276Y0153547D01*
X0337288Y0153542D01*
X0337300Y0153535D01*
X0337310Y0153523D01*
X0337317Y0153507D01*
X0337321Y0153485D01*
Y0153481D01*
X0337319Y0153474D01*
X0337317Y0153464D01*
X0337312Y0153452D01*
X0337305Y0153440D01*
X0337293Y0153429D01*
X0337277Y0153422D01*
X0337255Y0153419D01*
X0337189D01*
Y0153157D01*
X0337914D01*
X0337918D01*
X0337924Y0153155D01*
X0337935Y0153154D01*
X0337945Y0153148D01*
X0337957Y0153141D01*
X0337968Y0153129D01*
X0337975Y0153114D01*
X0337978Y0153091D01*
Y0153088D01*
X0337976Y0153081D01*
X0337975Y0153070D01*
X0337970Y0153058D01*
X0337963Y0153046D01*
X0337950Y0153036D01*
X0337935Y0153029D01*
X0337914Y0153025D01*
X0337123D01*
X0337119D01*
X0337113Y0153027D01*
X0337102Y0153029D01*
X0337090Y0153034D01*
X0337078Y0153041D01*
X0337067Y0153053D01*
X0337060Y0153069D01*
X0337057Y0153091D01*
Y0153488D01*
X0337059Y0153495D01*
X0337060Y0153506D01*
X0337066Y0153518D01*
X0337073Y0153530D01*
X0337085Y0153540D01*
X0337100Y0153547D01*
X0337123Y0153551D01*
X0337255D01*
X0337258D01*
X0337265Y0153549D01*
D02*
G37*
G36*
X0337923Y0152760D02*
X0337933Y0152758D01*
X0337945Y0152753D01*
X0337957Y0152746D01*
X0337968Y0152734D01*
X0337975Y0152718D01*
X0337978Y0152696D01*
Y0152356D01*
X0337976Y0152349D01*
X0337975Y0152328D01*
X0337970Y0152302D01*
X0337959Y0152272D01*
X0337947Y0152241D01*
X0337928Y0152210D01*
X0337918Y0152194D01*
X0337904Y0152180D01*
X0337902D01*
X0337900Y0152177D01*
X0337890Y0152168D01*
X0337874Y0152156D01*
X0337852Y0152142D01*
X0337824Y0152128D01*
X0337793Y0152116D01*
X0337756Y0152107D01*
X0337737Y0152106D01*
X0337716Y0152104D01*
X0337387D01*
X0337385D01*
X0337380D01*
X0337373D01*
X0337364Y0152106D01*
X0337352Y0152107D01*
X0337338Y0152109D01*
X0337307Y0152116D01*
X0337270Y0152127D01*
X0337230Y0152144D01*
X0337211Y0152156D01*
X0337192Y0152168D01*
X0337173Y0152182D01*
X0337154Y0152199D01*
X0337152Y0152201D01*
X0337151Y0152205D01*
X0337146Y0152210D01*
X0337139Y0152217D01*
X0337132Y0152225D01*
X0337123Y0152238D01*
X0337114Y0152250D01*
X0337106Y0152265D01*
X0337088Y0152298D01*
X0337073Y0152338D01*
X0337060Y0152383D01*
X0337059Y0152408D01*
X0337057Y0152432D01*
Y0152446D01*
X0337059Y0152454D01*
X0337060Y0152467D01*
X0337062Y0152480D01*
X0337069Y0152513D01*
X0337080Y0152550D01*
X0337097Y0152590D01*
X0337107Y0152609D01*
X0337121Y0152628D01*
X0337135Y0152647D01*
X0337152Y0152666D01*
X0337154Y0152668D01*
X0337156Y0152670D01*
X0337163Y0152675D01*
X0337170Y0152682D01*
X0337178Y0152689D01*
X0337191Y0152696D01*
X0337203Y0152704D01*
X0337217Y0152715D01*
X0337251Y0152732D01*
X0337291Y0152746D01*
X0337336Y0152758D01*
X0337361Y0152760D01*
X0337387Y0152761D01*
X0337584D01*
Y0152236D01*
X0337716D01*
X0337718D01*
X0337725D01*
X0337735Y0152238D01*
X0337747Y0152241D01*
X0337763Y0152244D01*
X0337777Y0152251D01*
X0337793Y0152262D01*
X0337808Y0152274D01*
X0337810Y0152276D01*
X0337813Y0152281D01*
X0337820Y0152290D01*
X0337827Y0152300D01*
X0337834Y0152314D01*
X0337841Y0152329D01*
X0337845Y0152347D01*
X0337846Y0152366D01*
Y0152699D01*
X0337848Y0152706D01*
X0337850Y0152716D01*
X0337855Y0152729D01*
X0337862Y0152741D01*
X0337874Y0152751D01*
X0337890Y0152758D01*
X0337912Y0152761D01*
X0337916D01*
X0337923Y0152760D01*
D02*
G37*
G36*
X0339353D02*
X0339376Y0152758D01*
X0339404Y0152756D01*
X0339431Y0152755D01*
X0339463Y0152751D01*
X0339495Y0152748D01*
X0339563Y0152737D01*
X0339633Y0152722D01*
X0339700Y0152702D01*
X0339704Y0152701D01*
X0339711Y0152699D01*
X0339723Y0152694D01*
X0339738Y0152687D01*
X0339757Y0152676D01*
X0339780Y0152666D01*
X0339803Y0152652D01*
X0339825Y0152637D01*
X0339848Y0152619D01*
X0339870Y0152598D01*
X0339893Y0152578D01*
X0339910Y0152553D01*
X0339927Y0152526D01*
X0339940Y0152496D01*
X0339947Y0152465D01*
X0339950Y0152432D01*
Y0152423D01*
X0339948Y0152415D01*
X0339947Y0152402D01*
X0339943Y0152387D01*
X0339936Y0152369D01*
X0339929Y0152349D01*
X0339919Y0152328D01*
X0339905Y0152307D01*
X0339889Y0152284D01*
X0339868Y0152262D01*
X0339844Y0152239D01*
X0339816Y0152218D01*
X0339782Y0152198D01*
X0339744Y0152179D01*
X0339700Y0152161D01*
X0339698D01*
X0339692Y0152159D01*
X0339683Y0152156D01*
X0339671Y0152153D01*
X0339653Y0152147D01*
X0339634Y0152144D01*
X0339612Y0152139D01*
X0339586Y0152133D01*
X0339556Y0152127D01*
X0339527Y0152121D01*
X0339492Y0152118D01*
X0339456Y0152113D01*
X0339419Y0152109D01*
X0339378Y0152106D01*
X0339336Y0152104D01*
X0339293D01*
X0339289D01*
X0339282D01*
X0339270D01*
X0339253Y0152106D01*
X0339232D01*
X0339209Y0152107D01*
X0339181Y0152109D01*
X0339154Y0152111D01*
X0339122Y0152114D01*
X0339090Y0152118D01*
X0339022Y0152128D01*
X0338952Y0152142D01*
X0338887Y0152161D01*
X0338883Y0152163D01*
X0338876Y0152165D01*
X0338864Y0152170D01*
X0338847Y0152177D01*
X0338828Y0152187D01*
X0338807Y0152198D01*
X0338784Y0152212D01*
X0338760Y0152227D01*
X0338737Y0152244D01*
X0338715Y0152265D01*
X0338694Y0152286D01*
X0338675Y0152312D01*
X0338658Y0152338D01*
X0338645Y0152368D01*
X0338638Y0152399D01*
X0338635Y0152432D01*
Y0152441D01*
X0338637Y0152449D01*
X0338638Y0152463D01*
X0338642Y0152477D01*
X0338649Y0152494D01*
X0338656Y0152515D01*
X0338666Y0152536D01*
X0338680Y0152557D01*
X0338696Y0152579D01*
X0338717Y0152602D01*
X0338741Y0152624D01*
X0338770Y0152645D01*
X0338803Y0152666D01*
X0338841Y0152685D01*
X0338887Y0152702D01*
X0338888D01*
X0338894Y0152704D01*
X0338904Y0152708D01*
X0338918Y0152711D01*
X0338933Y0152716D01*
X0338952Y0152722D01*
X0338977Y0152727D01*
X0339001Y0152732D01*
X0339031Y0152737D01*
X0339062Y0152742D01*
X0339095Y0152748D01*
X0339129Y0152753D01*
X0339168Y0152756D01*
X0339208Y0152760D01*
X0339249Y0152761D01*
X0339293D01*
X0339296D01*
X0339303D01*
X0339315D01*
X0339332D01*
X0339353Y0152760D01*
D02*
G37*
G36*
X0337735Y0151839D02*
X0337744D01*
X0337756Y0151837D01*
X0337780Y0151832D01*
X0337810Y0151821D01*
X0337843Y0151807D01*
X0337874Y0151790D01*
X0337890Y0151778D01*
X0337904Y0151764D01*
X0337907Y0151760D01*
X0337916Y0151750D01*
X0337928Y0151734D01*
X0337940Y0151712D01*
X0337954Y0151684D01*
X0337966Y0151653D01*
X0337975Y0151616D01*
X0337976Y0151597D01*
X0337978Y0151577D01*
Y0151243D01*
X0337976Y0151237D01*
X0337975Y0151226D01*
X0337970Y0151216D01*
X0337963Y0151204D01*
X0337950Y0151193D01*
X0337935Y0151186D01*
X0337914Y0151183D01*
X0336729D01*
X0336726D01*
X0336719Y0151185D01*
X0336708Y0151186D01*
X0336696Y0151191D01*
X0336684Y0151198D01*
X0336674Y0151211D01*
X0336667Y0151226D01*
X0336663Y0151249D01*
Y0151252D01*
X0336665Y0151259D01*
X0336667Y0151270D01*
X0336672Y0151282D01*
X0336679Y0151294D01*
X0336691Y0151304D01*
X0336707Y0151311D01*
X0336729Y0151315D01*
X0337057D01*
Y0151590D01*
X0337059Y0151601D01*
X0337060Y0151615D01*
X0337064Y0151629D01*
X0337073Y0151662D01*
X0337080Y0151681D01*
X0337090Y0151700D01*
X0337100Y0151719D01*
X0337113Y0151736D01*
X0337128Y0151755D01*
X0337146Y0151773D01*
X0337166Y0151788D01*
X0337189Y0151804D01*
X0337192Y0151806D01*
X0337199Y0151809D01*
X0337211Y0151816D01*
X0337229Y0151823D01*
X0337248Y0151828D01*
X0337270Y0151835D01*
X0337295Y0151839D01*
X0337321Y0151840D01*
X0337716D01*
X0337718D01*
X0337721D01*
X0337727D01*
X0337735Y0151839D01*
D02*
G37*
G36*
X0339109Y0151837D02*
X0339116Y0151835D01*
X0339896Y0151577D01*
X0339898D01*
X0339905Y0151573D01*
X0339914Y0151568D01*
X0339922Y0151561D01*
X0339933Y0151552D01*
X0339941Y0151540D01*
X0339948Y0151526D01*
X0339950Y0151511D01*
Y0151509D01*
X0339948Y0151504D01*
X0339947Y0151495D01*
X0339943Y0151485D01*
X0339936Y0151472D01*
X0339927Y0151462D01*
X0339914Y0151453D01*
X0339896Y0151445D01*
X0339116Y0151186D01*
X0339114D01*
X0339109Y0151185D01*
X0339102Y0151183D01*
X0339095Y0151181D01*
X0339093D01*
X0339090D01*
X0339084Y0151183D01*
X0339079D01*
X0339064Y0151190D01*
X0339055Y0151193D01*
X0339048Y0151200D01*
X0339046Y0151202D01*
X0339044Y0151204D01*
X0339038Y0151214D01*
X0339032Y0151228D01*
X0339029Y0151238D01*
Y0151256D01*
X0339031Y0151263D01*
X0339034Y0151273D01*
X0339039Y0151283D01*
X0339048Y0151294D01*
X0339058Y0151302D01*
X0339074Y0151309D01*
X0339676Y0151511D01*
X0339074Y0151710D01*
X0339072D01*
X0339067Y0151714D01*
X0339060Y0151717D01*
X0339051Y0151724D01*
X0339043Y0151731D01*
X0339036Y0151743D01*
X0339031Y0151755D01*
X0339029Y0151773D01*
Y0151776D01*
X0339031Y0151783D01*
X0339032Y0151793D01*
X0339038Y0151806D01*
X0339044Y0151818D01*
X0339057Y0151828D01*
X0339072Y0151835D01*
X0339095Y0151839D01*
X0339096D01*
X0339102D01*
X0339109Y0151837D01*
D02*
G37*
G36*
X0337924Y0150919D02*
X0337935Y0150917D01*
X0337945Y0150912D01*
X0337957Y0150905D01*
X0337968Y0150893D01*
X0337975Y0150877D01*
X0337978Y0150855D01*
Y0150851D01*
X0337976Y0150844D01*
X0337975Y0150834D01*
X0337970Y0150822D01*
X0337963Y0150810D01*
X0337950Y0150799D01*
X0337935Y0150792D01*
X0337914Y0150789D01*
X0337125D01*
X0337121D01*
X0337114Y0150791D01*
X0337104Y0150792D01*
X0337092Y0150798D01*
X0337080Y0150805D01*
X0337069Y0150817D01*
X0337062Y0150832D01*
X0337059Y0150855D01*
Y0150858D01*
X0337060Y0150865D01*
X0337062Y0150876D01*
X0337067Y0150888D01*
X0337074Y0150900D01*
X0337087Y0150910D01*
X0337102Y0150917D01*
X0337125Y0150921D01*
X0337914D01*
X0337918D01*
X0337924Y0150919D01*
D02*
G37*
G36*
X0336805D02*
X0336816Y0150917D01*
X0336828Y0150912D01*
X0336840Y0150905D01*
X0336851Y0150893D01*
X0336858Y0150877D01*
X0336861Y0150855D01*
Y0150851D01*
X0336859Y0150844D01*
X0336858Y0150834D01*
X0336852Y0150822D01*
X0336845Y0150810D01*
X0336833Y0150799D01*
X0336818Y0150792D01*
X0336795Y0150789D01*
X0336729D01*
X0336726D01*
X0336719Y0150791D01*
X0336708Y0150792D01*
X0336696Y0150798D01*
X0336684Y0150805D01*
X0336674Y0150817D01*
X0336667Y0150832D01*
X0336663Y0150855D01*
Y0150858D01*
X0336665Y0150865D01*
X0336667Y0150876D01*
X0336672Y0150888D01*
X0336679Y0150900D01*
X0336691Y0150910D01*
X0336707Y0150917D01*
X0336729Y0150921D01*
X0336795D01*
X0336799D01*
X0336805Y0150919D01*
D02*
G37*
G36*
X0337673Y0150524D02*
X0337685Y0150522D01*
X0337699Y0150520D01*
X0337730Y0150513D01*
X0337767Y0150501D01*
X0337805Y0150484D01*
X0337826Y0150473D01*
X0337845Y0150461D01*
X0337864Y0150445D01*
X0337883Y0150428D01*
X0337885Y0150426D01*
X0337886Y0150423D01*
X0337891Y0150418D01*
X0337898Y0150411D01*
X0337905Y0150402D01*
X0337912Y0150390D01*
X0337921Y0150378D01*
X0337930Y0150362D01*
X0337949Y0150329D01*
X0337963Y0150289D01*
X0337975Y0150244D01*
X0337976Y0150220D01*
X0337978Y0150196D01*
Y0150185D01*
X0337976Y0150171D01*
Y0150154D01*
X0337973Y0150133D01*
X0337971Y0150109D01*
X0337966Y0150081D01*
X0337961Y0150052D01*
X0337952Y0150019D01*
X0337944Y0149984D01*
X0337931Y0149948D01*
X0337918Y0149911D01*
X0337902Y0149875D01*
X0337883Y0149838D01*
X0337860Y0149802D01*
X0337836Y0149765D01*
X0337834Y0149764D01*
X0337832Y0149762D01*
X0337827Y0149757D01*
X0337820Y0149752D01*
X0337803Y0149743D01*
X0337793Y0149739D01*
X0337782Y0149738D01*
X0337780D01*
X0337777D01*
X0337772Y0149739D01*
X0337767D01*
X0337751Y0149746D01*
X0337742Y0149750D01*
X0337735Y0149757D01*
X0337734Y0149758D01*
X0337732Y0149760D01*
X0337725Y0149769D01*
X0337720Y0149785D01*
X0337716Y0149793D01*
Y0149805D01*
X0337718Y0149812D01*
X0337721Y0149824D01*
X0337728Y0149840D01*
X0337730Y0149844D01*
X0337735Y0149850D01*
X0337742Y0149864D01*
X0337753Y0149883D01*
X0337765Y0149909D01*
X0337780Y0149941D01*
X0337800Y0149977D01*
X0337819Y0150020D01*
Y0150022D01*
X0337820Y0150024D01*
X0337822Y0150034D01*
X0337827Y0150052D01*
X0337832Y0150072D01*
X0337838Y0150099D01*
X0337841Y0150128D01*
X0337845Y0150161D01*
X0337846Y0150196D01*
Y0150199D01*
X0337845Y0150210D01*
X0337843Y0150225D01*
X0337839Y0150244D01*
X0337832Y0150265D01*
X0337822Y0150289D01*
X0337808Y0150312D01*
X0337789Y0150334D01*
X0337786Y0150336D01*
X0337779Y0150343D01*
X0337767Y0150354D01*
X0337751Y0150364D01*
X0337730Y0150374D01*
X0337706Y0150385D01*
X0337680Y0150392D01*
X0337650Y0150393D01*
X0337649D01*
X0337645D01*
X0337638D01*
X0337631Y0150392D01*
X0337621Y0150390D01*
X0337609Y0150388D01*
X0337583Y0150380D01*
X0337553Y0150367D01*
X0337539Y0150359D01*
X0337524Y0150347D01*
X0337510Y0150334D01*
X0337498Y0150321D01*
X0337484Y0150303D01*
X0337473Y0150284D01*
X0337284Y0149915D01*
X0337283Y0149913D01*
X0337279Y0149908D01*
X0337274Y0149899D01*
X0337267Y0149887D01*
X0337257Y0149873D01*
X0337244Y0149859D01*
X0337230Y0149844D01*
X0337213Y0149826D01*
X0337194Y0149811D01*
X0337173Y0149793D01*
X0337149Y0149779D01*
X0337123Y0149765D01*
X0337093Y0149753D01*
X0337062Y0149745D01*
X0337029Y0149739D01*
X0336993Y0149738D01*
X0336991D01*
X0336988D01*
X0336979D01*
X0336970Y0149739D01*
X0336958Y0149741D01*
X0336944Y0149743D01*
X0336913Y0149750D01*
X0336877Y0149760D01*
X0336838Y0149778D01*
X0336818Y0149790D01*
X0336799Y0149802D01*
X0336779Y0149816D01*
X0336760Y0149833D01*
X0336759Y0149835D01*
X0336757Y0149838D01*
X0336752Y0149844D01*
X0336745Y0149850D01*
X0336738Y0149859D01*
X0336729Y0149871D01*
X0336720Y0149883D01*
X0336712Y0149899D01*
X0336694Y0149932D01*
X0336679Y0149972D01*
X0336667Y0150017D01*
X0336665Y0150041D01*
X0336663Y0150066D01*
Y0150088D01*
X0336665Y0150104D01*
Y0150123D01*
X0336667Y0150145D01*
X0336668Y0150170D01*
X0336672Y0150197D01*
X0336681Y0150255D01*
X0336694Y0150314D01*
X0336712Y0150369D01*
X0336724Y0150395D01*
X0336736Y0150419D01*
X0336738Y0150421D01*
X0336740Y0150425D01*
X0336745Y0150432D01*
X0336752Y0150439D01*
X0336760Y0150445D01*
X0336771Y0150452D01*
X0336781Y0150456D01*
X0336795Y0150458D01*
X0336797D01*
X0336800D01*
X0336805Y0150456D01*
X0336811D01*
X0336826Y0150449D01*
X0336835Y0150445D01*
X0336842Y0150439D01*
X0336845Y0150435D01*
X0336851Y0150426D01*
X0336858Y0150411D01*
X0336859Y0150402D01*
X0336861Y0150393D01*
Y0150392D01*
X0336859Y0150387D01*
X0336858Y0150376D01*
X0336854Y0150364D01*
Y0150362D01*
X0336852Y0150357D01*
X0336849Y0150350D01*
X0336845Y0150338D01*
X0336840Y0150324D01*
X0336835Y0150308D01*
X0336830Y0150291D01*
X0336825Y0150270D01*
X0336819Y0150249D01*
X0336814Y0150225D01*
X0336804Y0150175D01*
X0336797Y0150121D01*
X0336795Y0150066D01*
Y0150052D01*
X0336799Y0150036D01*
X0336802Y0150017D01*
X0336809Y0149996D01*
X0336819Y0149972D01*
X0336835Y0149949D01*
X0336854Y0149927D01*
X0336856Y0149925D01*
X0336864Y0149918D01*
X0336877Y0149909D01*
X0336892Y0149899D01*
X0336913Y0149887D01*
X0336937Y0149878D01*
X0336963Y0149871D01*
X0336993Y0149870D01*
X0336995D01*
X0336998D01*
X0337005D01*
X0337012Y0149871D01*
X0337022Y0149873D01*
X0337034Y0149875D01*
X0337060Y0149883D01*
X0337088Y0149896D01*
X0337104Y0149904D01*
X0337118Y0149915D01*
X0337132Y0149927D01*
X0337146Y0149941D01*
X0337158Y0149956D01*
X0337168Y0149975D01*
X0337357Y0150345D01*
X0337359Y0150347D01*
X0337362Y0150354D01*
X0337368Y0150362D01*
X0337375Y0150373D01*
X0337385Y0150387D01*
X0337397Y0150402D01*
X0337413Y0150418D01*
X0337428Y0150435D01*
X0337447Y0150452D01*
X0337470Y0150468D01*
X0337494Y0150484D01*
X0337520Y0150498D01*
X0337550Y0150508D01*
X0337581Y0150518D01*
X0337614Y0150524D01*
X0337650Y0150525D01*
X0337652D01*
X0337656D01*
X0337664D01*
X0337673Y0150524D01*
D02*
G37*
G36*
X0339895Y0150126D02*
X0339905Y0150125D01*
X0339917Y0150119D01*
X0339929Y0150112D01*
X0339940Y0150100D01*
X0339947Y0150085D01*
X0339950Y0150062D01*
Y0149533D01*
X0339948Y0149526D01*
X0339947Y0149516D01*
X0339941Y0149503D01*
X0339934Y0149491D01*
X0339922Y0149481D01*
X0339907Y0149474D01*
X0339886Y0149471D01*
X0339884D01*
X0339882D01*
X0339874Y0149472D01*
X0339862Y0149476D01*
X0339848Y0149483D01*
X0339074Y0149965D01*
X0339072Y0149967D01*
X0339065Y0149970D01*
X0339053Y0149975D01*
X0339039Y0149981D01*
X0339024Y0149986D01*
X0339005Y0149991D01*
X0338985Y0149994D01*
X0338965Y0149996D01*
X0338963D01*
X0338961D01*
X0338951D01*
X0338935Y0149993D01*
X0338916Y0149989D01*
X0338895Y0149982D01*
X0338871Y0149972D01*
X0338848Y0149958D01*
X0338826Y0149939D01*
X0338824Y0149937D01*
X0338817Y0149928D01*
X0338807Y0149916D01*
X0338796Y0149901D01*
X0338786Y0149880D01*
X0338776Y0149856D01*
X0338769Y0149830D01*
X0338767Y0149800D01*
Y0149795D01*
X0338769Y0149790D01*
Y0149781D01*
X0338772Y0149771D01*
X0338776Y0149760D01*
X0338781Y0149746D01*
X0338788Y0149732D01*
X0338796Y0149717D01*
X0338807Y0149700D01*
X0338821Y0149684D01*
X0338836Y0149665D01*
X0338855Y0149647D01*
X0338878Y0149630D01*
X0338904Y0149611D01*
X0338933Y0149594D01*
X0338935D01*
X0338939Y0149590D01*
X0338944Y0149587D01*
X0338949Y0149580D01*
X0338954Y0149573D01*
X0338959Y0149562D01*
X0338963Y0149550D01*
X0338965Y0149536D01*
Y0149533D01*
X0338963Y0149526D01*
X0338961Y0149516D01*
X0338956Y0149503D01*
X0338949Y0149491D01*
X0338937Y0149481D01*
X0338921Y0149474D01*
X0338899Y0149471D01*
X0338897D01*
X0338890Y0149472D01*
X0338881Y0149474D01*
X0338873Y0149477D01*
X0338869Y0149479D01*
X0338862Y0149483D01*
X0338850Y0149490D01*
X0338836Y0149500D01*
X0338817Y0149512D01*
X0338798Y0149526D01*
X0338776Y0149543D01*
X0338753Y0149564D01*
X0338732Y0149585D01*
X0338710Y0149609D01*
X0338691Y0149635D01*
X0338671Y0149665D01*
X0338658Y0149696D01*
X0338645Y0149729D01*
X0338638Y0149764D01*
X0338635Y0149800D01*
Y0149814D01*
X0338637Y0149823D01*
X0338638Y0149835D01*
X0338640Y0149849D01*
X0338647Y0149880D01*
X0338659Y0149916D01*
X0338677Y0149955D01*
X0338687Y0149974D01*
X0338699Y0149994D01*
X0338715Y0150012D01*
X0338732Y0150031D01*
X0338734Y0150033D01*
X0338736Y0150034D01*
X0338743Y0150040D01*
X0338750Y0150046D01*
X0338758Y0150053D01*
X0338770Y0150062D01*
X0338782Y0150071D01*
X0338796Y0150079D01*
X0338831Y0150097D01*
X0338871Y0150112D01*
X0338916Y0150125D01*
X0338939Y0150126D01*
X0338965Y0150128D01*
X0338966D01*
X0338968D01*
X0338973D01*
X0338980D01*
X0338999Y0150125D01*
X0339024Y0150121D01*
X0339051Y0150114D01*
X0339084Y0150104D01*
X0339117Y0150088D01*
X0339154Y0150069D01*
X0339818Y0149654D01*
Y0150066D01*
X0339820Y0150072D01*
X0339822Y0150083D01*
X0339827Y0150095D01*
X0339834Y0150107D01*
X0339846Y0150118D01*
X0339862Y0150125D01*
X0339884Y0150128D01*
X0339888D01*
X0339895Y0150126D01*
D02*
G37*
G36*
Y0149205D02*
X0339905Y0149203D01*
X0339917Y0149198D01*
X0339929Y0149191D01*
X0339940Y0149179D01*
X0339947Y0149163D01*
X0339950Y0149141D01*
Y0148612D01*
X0339948Y0148605D01*
X0339947Y0148594D01*
X0339941Y0148582D01*
X0339934Y0148570D01*
X0339922Y0148560D01*
X0339907Y0148553D01*
X0339886Y0148549D01*
X0339884D01*
X0339882D01*
X0339874Y0148551D01*
X0339862Y0148555D01*
X0339848Y0148561D01*
X0339074Y0149044D01*
X0339072Y0149045D01*
X0339065Y0149049D01*
X0339053Y0149054D01*
X0339039Y0149059D01*
X0339024Y0149065D01*
X0339005Y0149070D01*
X0338985Y0149073D01*
X0338965Y0149075D01*
X0338963D01*
X0338961D01*
X0338951D01*
X0338935Y0149072D01*
X0338916Y0149068D01*
X0338895Y0149061D01*
X0338871Y0149051D01*
X0338848Y0149037D01*
X0338826Y0149018D01*
X0338824Y0149016D01*
X0338817Y0149007D01*
X0338807Y0148995D01*
X0338796Y0148980D01*
X0338786Y0148959D01*
X0338776Y0148934D01*
X0338769Y0148908D01*
X0338767Y0148879D01*
Y0148874D01*
X0338769Y0148869D01*
Y0148860D01*
X0338772Y0148849D01*
X0338776Y0148839D01*
X0338781Y0148825D01*
X0338788Y0148811D01*
X0338796Y0148796D01*
X0338807Y0148778D01*
X0338821Y0148763D01*
X0338836Y0148744D01*
X0338855Y0148726D01*
X0338878Y0148709D01*
X0338904Y0148690D01*
X0338933Y0148672D01*
X0338935D01*
X0338939Y0148669D01*
X0338944Y0148666D01*
X0338949Y0148659D01*
X0338954Y0148652D01*
X0338959Y0148641D01*
X0338963Y0148629D01*
X0338965Y0148615D01*
Y0148612D01*
X0338963Y0148605D01*
X0338961Y0148594D01*
X0338956Y0148582D01*
X0338949Y0148570D01*
X0338937Y0148560D01*
X0338921Y0148553D01*
X0338899Y0148549D01*
X0338897D01*
X0338890Y0148551D01*
X0338881Y0148553D01*
X0338873Y0148556D01*
X0338869Y0148558D01*
X0338862Y0148561D01*
X0338850Y0148568D01*
X0338836Y0148579D01*
X0338817Y0148591D01*
X0338798Y0148605D01*
X0338776Y0148622D01*
X0338753Y0148643D01*
X0338732Y0148664D01*
X0338710Y0148688D01*
X0338691Y0148714D01*
X0338671Y0148744D01*
X0338658Y0148775D01*
X0338645Y0148808D01*
X0338638Y0148843D01*
X0338635Y0148879D01*
Y0148893D01*
X0338637Y0148901D01*
X0338638Y0148914D01*
X0338640Y0148928D01*
X0338647Y0148959D01*
X0338659Y0148995D01*
X0338677Y0149033D01*
X0338687Y0149052D01*
X0338699Y0149073D01*
X0338715Y0149091D01*
X0338732Y0149110D01*
X0338734Y0149111D01*
X0338736Y0149113D01*
X0338743Y0149118D01*
X0338750Y0149125D01*
X0338758Y0149132D01*
X0338770Y0149141D01*
X0338782Y0149150D01*
X0338796Y0149158D01*
X0338831Y0149176D01*
X0338871Y0149191D01*
X0338916Y0149203D01*
X0338939Y0149205D01*
X0338965Y0149207D01*
X0338966D01*
X0338968D01*
X0338973D01*
X0338980D01*
X0338999Y0149203D01*
X0339024Y0149200D01*
X0339051Y0149193D01*
X0339084Y0149183D01*
X0339117Y0149167D01*
X0339154Y0149148D01*
X0339818Y0148733D01*
Y0149144D01*
X0339820Y0149151D01*
X0339822Y0149162D01*
X0339827Y0149174D01*
X0339834Y0149186D01*
X0339846Y0149196D01*
X0339862Y0149203D01*
X0339884Y0149207D01*
X0339888D01*
X0339895Y0149205D01*
D02*
G37*
G36*
X0337735Y0148683D02*
X0337744D01*
X0337756Y0148681D01*
X0337780Y0148676D01*
X0337810Y0148666D01*
X0337843Y0148652D01*
X0337874Y0148634D01*
X0337890Y0148622D01*
X0337904Y0148608D01*
X0337907Y0148605D01*
X0337916Y0148594D01*
X0337928Y0148579D01*
X0337940Y0148556D01*
X0337954Y0148529D01*
X0337966Y0148497D01*
X0337975Y0148461D01*
X0337976Y0148442D01*
X0337978Y0148421D01*
Y0148088D01*
X0337976Y0148081D01*
X0337975Y0148071D01*
X0337970Y0148060D01*
X0337963Y0148048D01*
X0337950Y0148038D01*
X0337935Y0148031D01*
X0337914Y0148027D01*
X0336729D01*
X0336726D01*
X0336719Y0148029D01*
X0336708Y0148031D01*
X0336696Y0148036D01*
X0336684Y0148043D01*
X0336674Y0148055D01*
X0336667Y0148071D01*
X0336663Y0148093D01*
Y0148097D01*
X0336665Y0148103D01*
X0336667Y0148114D01*
X0336672Y0148126D01*
X0336679Y0148138D01*
X0336691Y0148149D01*
X0336707Y0148156D01*
X0336729Y0148159D01*
X0337057D01*
Y0148435D01*
X0337059Y0148445D01*
X0337060Y0148459D01*
X0337064Y0148473D01*
X0337073Y0148506D01*
X0337080Y0148525D01*
X0337090Y0148544D01*
X0337100Y0148563D01*
X0337113Y0148581D01*
X0337128Y0148600D01*
X0337146Y0148617D01*
X0337166Y0148633D01*
X0337189Y0148648D01*
X0337192Y0148650D01*
X0337199Y0148653D01*
X0337211Y0148660D01*
X0337229Y0148667D01*
X0337248Y0148672D01*
X0337270Y0148679D01*
X0337295Y0148683D01*
X0337321Y0148685D01*
X0337716D01*
X0337718D01*
X0337721D01*
X0337727D01*
X0337735Y0148683D01*
D02*
G37*
G36*
X0339353Y0148286D02*
X0339376Y0148284D01*
X0339404Y0148282D01*
X0339431Y0148280D01*
X0339463Y0148277D01*
X0339495Y0148273D01*
X0339563Y0148263D01*
X0339633Y0148247D01*
X0339700Y0148228D01*
X0339704Y0148227D01*
X0339711Y0148225D01*
X0339723Y0148220D01*
X0339738Y0148213D01*
X0339757Y0148202D01*
X0339780Y0148192D01*
X0339803Y0148178D01*
X0339825Y0148162D01*
X0339848Y0148145D01*
X0339870Y0148124D01*
X0339893Y0148103D01*
X0339910Y0148079D01*
X0339927Y0148051D01*
X0339940Y0148022D01*
X0339947Y0147991D01*
X0339950Y0147958D01*
Y0147949D01*
X0339948Y0147940D01*
X0339947Y0147928D01*
X0339943Y0147913D01*
X0339936Y0147895D01*
X0339929Y0147874D01*
X0339919Y0147854D01*
X0339905Y0147833D01*
X0339889Y0147810D01*
X0339868Y0147788D01*
X0339844Y0147765D01*
X0339816Y0147744D01*
X0339782Y0147724D01*
X0339744Y0147704D01*
X0339700Y0147687D01*
X0339698D01*
X0339692Y0147685D01*
X0339683Y0147682D01*
X0339671Y0147678D01*
X0339653Y0147673D01*
X0339634Y0147670D01*
X0339612Y0147665D01*
X0339586Y0147659D01*
X0339556Y0147652D01*
X0339527Y0147647D01*
X0339492Y0147644D01*
X0339456Y0147639D01*
X0339419Y0147635D01*
X0339378Y0147632D01*
X0339336Y0147630D01*
X0339293D01*
X0339289D01*
X0339282D01*
X0339270D01*
X0339253Y0147632D01*
X0339232D01*
X0339209Y0147633D01*
X0339181Y0147635D01*
X0339154Y0147637D01*
X0339122Y0147640D01*
X0339090Y0147644D01*
X0339022Y0147654D01*
X0338952Y0147668D01*
X0338887Y0147687D01*
X0338883Y0147689D01*
X0338876Y0147691D01*
X0338864Y0147696D01*
X0338847Y0147703D01*
X0338828Y0147713D01*
X0338807Y0147724D01*
X0338784Y0147737D01*
X0338760Y0147753D01*
X0338737Y0147770D01*
X0338715Y0147791D01*
X0338694Y0147812D01*
X0338675Y0147838D01*
X0338658Y0147864D01*
X0338645Y0147894D01*
X0338638Y0147925D01*
X0338635Y0147958D01*
Y0147966D01*
X0338637Y0147975D01*
X0338638Y0147989D01*
X0338642Y0148003D01*
X0338649Y0148020D01*
X0338656Y0148041D01*
X0338666Y0148062D01*
X0338680Y0148083D01*
X0338696Y0148105D01*
X0338717Y0148128D01*
X0338741Y0148150D01*
X0338770Y0148171D01*
X0338803Y0148192D01*
X0338841Y0148211D01*
X0338887Y0148228D01*
X0338888D01*
X0338894Y0148230D01*
X0338904Y0148234D01*
X0338918Y0148237D01*
X0338933Y0148242D01*
X0338952Y0148247D01*
X0338977Y0148253D01*
X0339001Y0148258D01*
X0339031Y0148263D01*
X0339062Y0148268D01*
X0339095Y0148273D01*
X0339129Y0148279D01*
X0339168Y0148282D01*
X0339208Y0148286D01*
X0339249Y0148287D01*
X0339293D01*
X0339296D01*
X0339303D01*
X0339315D01*
X0339332D01*
X0339353Y0148286D01*
D02*
G37*
G36*
X0337924Y0147762D02*
X0337935Y0147760D01*
X0337945Y0147755D01*
X0337957Y0147748D01*
X0337968Y0147736D01*
X0337975Y0147720D01*
X0337978Y0147698D01*
Y0147357D01*
X0337976Y0147349D01*
Y0147340D01*
X0337975Y0147328D01*
X0337970Y0147304D01*
X0337959Y0147274D01*
X0337947Y0147241D01*
X0337928Y0147210D01*
X0337918Y0147194D01*
X0337904Y0147181D01*
X0337902D01*
X0337900Y0147177D01*
X0337890Y0147168D01*
X0337874Y0147156D01*
X0337852Y0147142D01*
X0337824Y0147128D01*
X0337793Y0147116D01*
X0337756Y0147108D01*
X0337737Y0147106D01*
X0337716Y0147104D01*
X0337713D01*
X0337704D01*
X0337690Y0147106D01*
X0337673Y0147109D01*
X0337652Y0147113D01*
X0337631Y0147118D01*
X0337607Y0147127D01*
X0337584Y0147139D01*
X0337583Y0147141D01*
X0337579Y0147142D01*
X0337572Y0147148D01*
X0337564Y0147153D01*
X0337553Y0147161D01*
X0337543Y0147170D01*
X0337531Y0147182D01*
X0337518Y0147196D01*
X0337506Y0147210D01*
X0337494Y0147227D01*
X0337484Y0147246D01*
X0337473Y0147267D01*
X0337465Y0147290D01*
X0337458Y0147314D01*
X0337454Y0147340D01*
X0337453Y0147368D01*
Y0147632D01*
X0337321D01*
X0337319D01*
X0337312D01*
X0337302Y0147630D01*
X0337288Y0147626D01*
X0337274Y0147623D01*
X0337258Y0147616D01*
X0337243Y0147606D01*
X0337227Y0147593D01*
X0337225Y0147592D01*
X0337222Y0147587D01*
X0337215Y0147578D01*
X0337208Y0147567D01*
X0337201Y0147554D01*
X0337194Y0147538D01*
X0337191Y0147521D01*
X0337189Y0147500D01*
Y0147233D01*
X0337187Y0147226D01*
X0337185Y0147215D01*
X0337180Y0147203D01*
X0337173Y0147191D01*
X0337161Y0147181D01*
X0337146Y0147174D01*
X0337123Y0147170D01*
X0337119D01*
X0337113Y0147172D01*
X0337102Y0147174D01*
X0337090Y0147179D01*
X0337078Y0147186D01*
X0337067Y0147198D01*
X0337060Y0147214D01*
X0337057Y0147236D01*
Y0147510D01*
X0337059Y0147519D01*
X0337060Y0147538D01*
X0337066Y0147564D01*
X0337076Y0147593D01*
X0337090Y0147625D01*
X0337107Y0147656D01*
X0337119Y0147671D01*
X0337133Y0147685D01*
Y0147687D01*
X0337137Y0147689D01*
X0337147Y0147698D01*
X0337163Y0147710D01*
X0337185Y0147725D01*
X0337213Y0147739D01*
X0337244Y0147751D01*
X0337281Y0147760D01*
X0337300Y0147763D01*
X0337321D01*
X0337914D01*
X0337918D01*
X0337924Y0147762D01*
D02*
G37*
G36*
X0339895Y0147363D02*
X0339905Y0147361D01*
X0339917Y0147356D01*
X0339929Y0147349D01*
X0339940Y0147337D01*
X0339947Y0147321D01*
X0339950Y0147299D01*
Y0146769D01*
X0339948Y0146762D01*
X0339947Y0146752D01*
X0339941Y0146740D01*
X0339934Y0146728D01*
X0339922Y0146717D01*
X0339907Y0146710D01*
X0339886Y0146707D01*
X0339884D01*
X0339882D01*
X0339874Y0146709D01*
X0339862Y0146712D01*
X0339848Y0146719D01*
X0339074Y0147201D01*
X0339072Y0147203D01*
X0339065Y0147207D01*
X0339053Y0147212D01*
X0339039Y0147217D01*
X0339024Y0147222D01*
X0339005Y0147227D01*
X0338985Y0147231D01*
X0338965Y0147233D01*
X0338963D01*
X0338961D01*
X0338951D01*
X0338935Y0147229D01*
X0338916Y0147226D01*
X0338895Y0147219D01*
X0338871Y0147208D01*
X0338848Y0147194D01*
X0338826Y0147175D01*
X0338824Y0147174D01*
X0338817Y0147165D01*
X0338807Y0147153D01*
X0338796Y0147137D01*
X0338786Y0147116D01*
X0338776Y0147092D01*
X0338769Y0147066D01*
X0338767Y0147037D01*
Y0147031D01*
X0338769Y0147026D01*
Y0147017D01*
X0338772Y0147007D01*
X0338776Y0146997D01*
X0338781Y0146983D01*
X0338788Y0146969D01*
X0338796Y0146953D01*
X0338807Y0146936D01*
X0338821Y0146920D01*
X0338836Y0146901D01*
X0338855Y0146884D01*
X0338878Y0146867D01*
X0338904Y0146847D01*
X0338933Y0146830D01*
X0338935D01*
X0338939Y0146827D01*
X0338944Y0146823D01*
X0338949Y0146816D01*
X0338954Y0146809D01*
X0338959Y0146799D01*
X0338963Y0146787D01*
X0338965Y0146773D01*
Y0146769D01*
X0338963Y0146762D01*
X0338961Y0146752D01*
X0338956Y0146740D01*
X0338949Y0146728D01*
X0338937Y0146717D01*
X0338921Y0146710D01*
X0338899Y0146707D01*
X0338897D01*
X0338890Y0146709D01*
X0338881Y0146710D01*
X0338873Y0146714D01*
X0338869Y0146716D01*
X0338862Y0146719D01*
X0338850Y0146726D01*
X0338836Y0146736D01*
X0338817Y0146749D01*
X0338798Y0146762D01*
X0338776Y0146780D01*
X0338753Y0146801D01*
X0338732Y0146821D01*
X0338710Y0146846D01*
X0338691Y0146872D01*
X0338671Y0146901D01*
X0338658Y0146932D01*
X0338645Y0146965D01*
X0338638Y0147000D01*
X0338635Y0147037D01*
Y0147050D01*
X0338637Y0147059D01*
X0338638Y0147071D01*
X0338640Y0147085D01*
X0338647Y0147116D01*
X0338659Y0147153D01*
X0338677Y0147191D01*
X0338687Y0147210D01*
X0338699Y0147231D01*
X0338715Y0147248D01*
X0338732Y0147267D01*
X0338734Y0147269D01*
X0338736Y0147271D01*
X0338743Y0147276D01*
X0338750Y0147283D01*
X0338758Y0147290D01*
X0338770Y0147299D01*
X0338782Y0147307D01*
X0338796Y0147316D01*
X0338831Y0147333D01*
X0338871Y0147349D01*
X0338916Y0147361D01*
X0338939Y0147363D01*
X0338965Y0147364D01*
X0338966D01*
X0338968D01*
X0338973D01*
X0338980D01*
X0338999Y0147361D01*
X0339024Y0147357D01*
X0339051Y0147351D01*
X0339084Y0147340D01*
X0339117Y0147325D01*
X0339154Y0147305D01*
X0339818Y0146891D01*
Y0147302D01*
X0339820Y0147309D01*
X0339822Y0147319D01*
X0339827Y0147331D01*
X0339834Y0147344D01*
X0339846Y0147354D01*
X0339862Y0147361D01*
X0339884Y0147364D01*
X0339888D01*
X0339895Y0147363D01*
D02*
G37*
G36*
Y0146445D02*
X0339905Y0146443D01*
X0339917Y0146438D01*
X0339929Y0146431D01*
X0339940Y0146419D01*
X0339947Y0146403D01*
X0339950Y0146381D01*
Y0146377D01*
X0339948Y0146370D01*
X0339947Y0146360D01*
X0339941Y0146348D01*
X0339934Y0146336D01*
X0339922Y0146325D01*
X0339907Y0146318D01*
X0339884Y0146315D01*
X0339818D01*
X0339815D01*
X0339808Y0146317D01*
X0339797Y0146318D01*
X0339785Y0146324D01*
X0339773Y0146330D01*
X0339763Y0146343D01*
X0339756Y0146358D01*
X0339752Y0146381D01*
Y0146384D01*
X0339754Y0146391D01*
X0339756Y0146402D01*
X0339761Y0146414D01*
X0339768Y0146426D01*
X0339780Y0146436D01*
X0339796Y0146443D01*
X0339818Y0146447D01*
X0339884D01*
X0339888D01*
X0339895Y0146445D01*
D02*
G37*
G36*
X0337923Y0146841D02*
X0337933Y0146839D01*
X0337945Y0146834D01*
X0337957Y0146827D01*
X0337968Y0146814D01*
X0337975Y0146799D01*
X0337978Y0146776D01*
Y0146247D01*
X0337976Y0146240D01*
X0337975Y0146230D01*
X0337970Y0146218D01*
X0337963Y0146206D01*
X0337950Y0146195D01*
X0337935Y0146188D01*
X0337914Y0146185D01*
X0336729D01*
X0336726D01*
X0336719Y0146186D01*
X0336708Y0146188D01*
X0336696Y0146193D01*
X0336684Y0146200D01*
X0336674Y0146213D01*
X0336667Y0146228D01*
X0336663Y0146251D01*
Y0146254D01*
X0336665Y0146261D01*
X0336667Y0146271D01*
X0336672Y0146284D01*
X0336679Y0146296D01*
X0336691Y0146306D01*
X0336707Y0146313D01*
X0336729Y0146317D01*
X0337846D01*
Y0146780D01*
X0337848Y0146787D01*
X0337850Y0146797D01*
X0337855Y0146809D01*
X0337862Y0146821D01*
X0337874Y0146832D01*
X0337890Y0146839D01*
X0337912Y0146842D01*
X0337916D01*
X0337923Y0146841D01*
D02*
G37*
G36*
X0339895Y0146048D02*
X0339905Y0146046D01*
X0339917Y0146041D01*
X0339929Y0146034D01*
X0339940Y0146022D01*
X0339947Y0146006D01*
X0339950Y0145984D01*
Y0145454D01*
X0339948Y0145447D01*
X0339947Y0145437D01*
X0339941Y0145425D01*
X0339934Y0145413D01*
X0339922Y0145402D01*
X0339907Y0145395D01*
X0339886Y0145392D01*
X0339884D01*
X0339882D01*
X0339874Y0145394D01*
X0339862Y0145397D01*
X0339848Y0145404D01*
X0339074Y0145886D01*
X0339072Y0145888D01*
X0339065Y0145892D01*
X0339053Y0145897D01*
X0339039Y0145902D01*
X0339024Y0145907D01*
X0339005Y0145912D01*
X0338985Y0145916D01*
X0338965Y0145918D01*
X0338963D01*
X0338961D01*
X0338951D01*
X0338935Y0145914D01*
X0338916Y0145911D01*
X0338895Y0145904D01*
X0338871Y0145893D01*
X0338848Y0145879D01*
X0338826Y0145860D01*
X0338824Y0145859D01*
X0338817Y0145850D01*
X0338807Y0145838D01*
X0338796Y0145822D01*
X0338786Y0145801D01*
X0338776Y0145777D01*
X0338769Y0145751D01*
X0338767Y0145722D01*
Y0145716D01*
X0338769Y0145711D01*
Y0145702D01*
X0338772Y0145692D01*
X0338776Y0145682D01*
X0338781Y0145668D01*
X0338788Y0145654D01*
X0338796Y0145638D01*
X0338807Y0145621D01*
X0338821Y0145605D01*
X0338836Y0145586D01*
X0338855Y0145569D01*
X0338878Y0145552D01*
X0338904Y0145532D01*
X0338933Y0145515D01*
X0338935D01*
X0338939Y0145512D01*
X0338944Y0145508D01*
X0338949Y0145501D01*
X0338954Y0145494D01*
X0338959Y0145484D01*
X0338963Y0145472D01*
X0338965Y0145458D01*
Y0145454D01*
X0338963Y0145447D01*
X0338961Y0145437D01*
X0338956Y0145425D01*
X0338949Y0145413D01*
X0338937Y0145402D01*
X0338921Y0145395D01*
X0338899Y0145392D01*
X0338897D01*
X0338890Y0145394D01*
X0338881Y0145395D01*
X0338873Y0145399D01*
X0338869Y0145401D01*
X0338862Y0145404D01*
X0338850Y0145411D01*
X0338836Y0145421D01*
X0338817Y0145434D01*
X0338798Y0145447D01*
X0338776Y0145465D01*
X0338753Y0145486D01*
X0338732Y0145506D01*
X0338710Y0145531D01*
X0338691Y0145557D01*
X0338671Y0145586D01*
X0338658Y0145617D01*
X0338645Y0145650D01*
X0338638Y0145685D01*
X0338635Y0145722D01*
Y0145735D01*
X0338637Y0145744D01*
X0338638Y0145756D01*
X0338640Y0145770D01*
X0338647Y0145801D01*
X0338659Y0145838D01*
X0338677Y0145876D01*
X0338687Y0145895D01*
X0338699Y0145916D01*
X0338715Y0145933D01*
X0338732Y0145952D01*
X0338734Y0145954D01*
X0338736Y0145956D01*
X0338743Y0145961D01*
X0338750Y0145968D01*
X0338758Y0145975D01*
X0338770Y0145984D01*
X0338782Y0145992D01*
X0338796Y0146001D01*
X0338831Y0146018D01*
X0338871Y0146034D01*
X0338916Y0146046D01*
X0338939Y0146048D01*
X0338965Y0146049D01*
X0338966D01*
X0338968D01*
X0338973D01*
X0338980D01*
X0338999Y0146046D01*
X0339024Y0146043D01*
X0339051Y0146036D01*
X0339084Y0146025D01*
X0339117Y0146010D01*
X0339154Y0145990D01*
X0339818Y0145576D01*
Y0145987D01*
X0339820Y0145994D01*
X0339822Y0146004D01*
X0339827Y0146016D01*
X0339834Y0146029D01*
X0339846Y0146039D01*
X0339862Y0146046D01*
X0339884Y0146049D01*
X0339888D01*
X0339895Y0146048D01*
D02*
G37*
G36*
X0337137Y0145918D02*
X0337144Y0145916D01*
X0338327Y0145522D01*
X0338329D01*
X0338334Y0145519D01*
X0338341Y0145515D01*
X0338349Y0145510D01*
X0338358Y0145501D01*
X0338365Y0145489D01*
X0338370Y0145477D01*
X0338372Y0145460D01*
Y0145324D01*
X0338370Y0145317D01*
X0338369Y0145307D01*
X0338363Y0145295D01*
X0338356Y0145283D01*
X0338344Y0145272D01*
X0338329Y0145265D01*
X0338306Y0145262D01*
X0338304D01*
X0338297Y0145264D01*
X0338289Y0145265D01*
X0338278Y0145269D01*
X0338266Y0145276D01*
X0338256Y0145284D01*
X0338247Y0145298D01*
X0338242Y0145316D01*
Y0145323D01*
X0338240Y0145331D01*
Y0145411D01*
X0337912Y0145522D01*
X0337144Y0145267D01*
X0337142D01*
X0337137Y0145265D01*
X0337130Y0145264D01*
X0337123Y0145262D01*
X0337119D01*
X0337113Y0145264D01*
X0337102Y0145265D01*
X0337090Y0145271D01*
X0337078Y0145277D01*
X0337067Y0145290D01*
X0337060Y0145305D01*
X0337057Y0145328D01*
Y0145336D01*
X0337059Y0145343D01*
X0337062Y0145354D01*
X0337067Y0145364D01*
X0337076Y0145375D01*
X0337087Y0145383D01*
X0337102Y0145390D01*
X0337704Y0145591D01*
X0337102Y0145791D01*
X0337100D01*
X0337095Y0145794D01*
X0337088Y0145798D01*
X0337080Y0145805D01*
X0337071Y0145814D01*
X0337064Y0145824D01*
X0337059Y0145838D01*
X0337057Y0145853D01*
Y0145857D01*
X0337059Y0145864D01*
X0337060Y0145874D01*
X0337066Y0145886D01*
X0337073Y0145899D01*
X0337085Y0145909D01*
X0337100Y0145916D01*
X0337123Y0145919D01*
X0337125D01*
X0337130D01*
X0337137Y0145918D01*
D02*
G37*
G36*
X0339353Y0145128D02*
X0339376Y0145127D01*
X0339404Y0145125D01*
X0339431Y0145123D01*
X0339463Y0145120D01*
X0339495Y0145116D01*
X0339563Y0145106D01*
X0339633Y0145090D01*
X0339700Y0145071D01*
X0339704Y0145069D01*
X0339711Y0145068D01*
X0339723Y0145062D01*
X0339738Y0145055D01*
X0339757Y0145045D01*
X0339780Y0145035D01*
X0339803Y0145021D01*
X0339825Y0145005D01*
X0339848Y0144988D01*
X0339870Y0144967D01*
X0339893Y0144946D01*
X0339910Y0144922D01*
X0339927Y0144894D01*
X0339940Y0144865D01*
X0339947Y0144833D01*
X0339950Y0144800D01*
Y0144792D01*
X0339948Y0144783D01*
X0339947Y0144771D01*
X0339943Y0144755D01*
X0339936Y0144738D01*
X0339929Y0144717D01*
X0339919Y0144696D01*
X0339905Y0144675D01*
X0339889Y0144653D01*
X0339868Y0144630D01*
X0339844Y0144608D01*
X0339816Y0144587D01*
X0339782Y0144566D01*
X0339744Y0144547D01*
X0339700Y0144530D01*
X0339698D01*
X0339692Y0144528D01*
X0339683Y0144525D01*
X0339671Y0144521D01*
X0339653Y0144516D01*
X0339634Y0144512D01*
X0339612Y0144507D01*
X0339586Y0144502D01*
X0339556Y0144495D01*
X0339527Y0144490D01*
X0339492Y0144486D01*
X0339456Y0144481D01*
X0339419Y0144478D01*
X0339378Y0144474D01*
X0339336Y0144472D01*
X0339293D01*
X0339289D01*
X0339282D01*
X0339270D01*
X0339253Y0144474D01*
X0339232D01*
X0339209Y0144476D01*
X0339181Y0144478D01*
X0339154Y0144479D01*
X0339122Y0144483D01*
X0339090Y0144486D01*
X0339022Y0144497D01*
X0338952Y0144511D01*
X0338887Y0144530D01*
X0338883Y0144531D01*
X0338876Y0144533D01*
X0338864Y0144538D01*
X0338847Y0144545D01*
X0338828Y0144556D01*
X0338807Y0144566D01*
X0338784Y0144580D01*
X0338760Y0144596D01*
X0338737Y0144613D01*
X0338715Y0144634D01*
X0338694Y0144655D01*
X0338675Y0144681D01*
X0338658Y0144707D01*
X0338645Y0144736D01*
X0338638Y0144767D01*
X0338635Y0144800D01*
Y0144809D01*
X0338637Y0144818D01*
X0338638Y0144832D01*
X0338642Y0144845D01*
X0338649Y0144863D01*
X0338656Y0144884D01*
X0338666Y0144904D01*
X0338680Y0144925D01*
X0338696Y0144948D01*
X0338717Y0144970D01*
X0338741Y0144993D01*
X0338770Y0145014D01*
X0338803Y0145035D01*
X0338841Y0145054D01*
X0338887Y0145071D01*
X0338888D01*
X0338894Y0145073D01*
X0338904Y0145076D01*
X0338918Y0145080D01*
X0338933Y0145085D01*
X0338952Y0145090D01*
X0338977Y0145095D01*
X0339001Y0145100D01*
X0339031Y0145106D01*
X0339062Y0145111D01*
X0339095Y0145116D01*
X0339129Y0145121D01*
X0339168Y0145125D01*
X0339208Y0145128D01*
X0339249Y0145130D01*
X0339293D01*
X0339296D01*
X0339303D01*
X0339315D01*
X0339332D01*
X0339353Y0145128D01*
D02*
G37*
G36*
X0337768Y0144996D02*
X0337779Y0144995D01*
X0337791Y0144993D01*
X0337817Y0144986D01*
X0337845Y0144976D01*
X0337876Y0144958D01*
X0337890Y0144948D01*
X0337904Y0144936D01*
X0337916Y0144922D01*
X0337928Y0144904D01*
Y0144903D01*
X0337930Y0144901D01*
X0337933Y0144896D01*
X0337935Y0144891D01*
X0337944Y0144872D01*
X0337952Y0144847D01*
X0337963Y0144818D01*
X0337970Y0144783D01*
X0337976Y0144741D01*
X0337978Y0144696D01*
Y0144677D01*
X0337976Y0144665D01*
Y0144648D01*
X0337975Y0144630D01*
X0337971Y0144610D01*
X0337970Y0144585D01*
X0337961Y0144535D01*
X0337947Y0144483D01*
X0337930Y0144429D01*
X0337905Y0144379D01*
X0337904Y0144377D01*
X0337902Y0144374D01*
X0337897Y0144367D01*
X0337890Y0144360D01*
X0337881Y0144353D01*
X0337872Y0144346D01*
X0337860Y0144342D01*
X0337846Y0144341D01*
X0337845D01*
X0337841D01*
X0337831Y0144342D01*
X0337817Y0144349D01*
X0337808Y0144353D01*
X0337801Y0144360D01*
X0337800Y0144361D01*
X0337798Y0144363D01*
X0337791Y0144374D01*
X0337786Y0144387D01*
X0337782Y0144398D01*
Y0144415D01*
X0337784Y0144424D01*
X0337786Y0144433D01*
Y0144434D01*
X0337789Y0144438D01*
X0337793Y0144446D01*
X0337796Y0144457D01*
X0337801Y0144469D01*
X0337808Y0144485D01*
X0337815Y0144504D01*
X0337824Y0144526D01*
Y0144528D01*
X0337826Y0144530D01*
Y0144535D01*
X0337827Y0144542D01*
X0337831Y0144559D01*
X0337834Y0144582D01*
X0337839Y0144608D01*
X0337843Y0144637D01*
X0337845Y0144669D01*
X0337846Y0144700D01*
Y0144715D01*
X0337845Y0144726D01*
X0337843Y0144738D01*
X0337841Y0144752D01*
X0337834Y0144783D01*
X0337822Y0144814D01*
X0337815Y0144828D01*
X0337805Y0144840D01*
X0337794Y0144851D01*
X0337780Y0144859D01*
X0337767Y0144865D01*
X0337749Y0144866D01*
X0337746D01*
X0337739D01*
X0337728Y0144863D01*
X0337715Y0144859D01*
X0337699Y0144852D01*
X0337685Y0144844D01*
X0337671Y0144830D01*
X0337659Y0144811D01*
X0337496Y0144474D01*
Y0144472D01*
X0337492Y0144469D01*
X0337489Y0144462D01*
X0337484Y0144453D01*
X0337468Y0144433D01*
X0337447Y0144408D01*
X0337433Y0144394D01*
X0337418Y0144382D01*
X0337401Y0144372D01*
X0337383Y0144361D01*
X0337362Y0144353D01*
X0337340Y0144346D01*
X0337316Y0144342D01*
X0337289Y0144341D01*
X0337288D01*
X0337284D01*
X0337279D01*
X0337270Y0144342D01*
X0337250Y0144346D01*
X0337224Y0144353D01*
X0337196Y0144363D01*
X0337166Y0144381D01*
X0337152Y0144391D01*
X0337139Y0144403D01*
X0337125Y0144419D01*
X0337113Y0144434D01*
Y0144436D01*
X0337111Y0144438D01*
X0337107Y0144443D01*
X0337104Y0144448D01*
X0337095Y0144467D01*
X0337085Y0144490D01*
X0337076Y0144519D01*
X0337067Y0144554D01*
X0337060Y0144592D01*
X0337059Y0144636D01*
Y0144649D01*
X0337060Y0144660D01*
Y0144674D01*
X0337062Y0144688D01*
X0337066Y0144705D01*
X0337067Y0144724D01*
X0337076Y0144764D01*
X0337090Y0144809D01*
X0337109Y0144854D01*
X0337119Y0144875D01*
X0337133Y0144898D01*
X0337135Y0144899D01*
X0337137Y0144903D01*
X0337142Y0144908D01*
X0337149Y0144915D01*
X0337166Y0144927D01*
X0337178Y0144930D01*
X0337191Y0144932D01*
X0337192D01*
X0337194D01*
X0337206Y0144930D01*
X0337222Y0144924D01*
X0337229Y0144920D01*
X0337237Y0144913D01*
X0337241Y0144910D01*
X0337246Y0144901D01*
X0337253Y0144885D01*
X0337255Y0144877D01*
X0337257Y0144866D01*
Y0144863D01*
X0337255Y0144856D01*
X0337253Y0144847D01*
X0337248Y0144837D01*
Y0144835D01*
X0337246Y0144833D01*
X0337243Y0144828D01*
X0337239Y0144819D01*
X0337234Y0144811D01*
X0337230Y0144800D01*
X0337218Y0144776D01*
X0337208Y0144747D01*
X0337199Y0144712D01*
X0337192Y0144675D01*
X0337191Y0144636D01*
Y0144620D01*
X0337192Y0144610D01*
X0337194Y0144597D01*
X0337196Y0144584D01*
X0337203Y0144554D01*
X0337215Y0144525D01*
X0337222Y0144511D01*
X0337232Y0144499D01*
X0337244Y0144488D01*
X0337257Y0144479D01*
X0337272Y0144474D01*
X0337289Y0144472D01*
X0337293D01*
X0337300Y0144474D01*
X0337310Y0144476D01*
X0337322Y0144479D01*
X0337338Y0144486D01*
X0337352Y0144495D01*
X0337366Y0144509D01*
X0337376Y0144526D01*
X0337541Y0144866D01*
Y0144868D01*
X0337545Y0144872D01*
X0337548Y0144878D01*
X0337553Y0144887D01*
X0337569Y0144908D01*
X0337591Y0144932D01*
X0337621Y0144957D01*
X0337636Y0144967D01*
X0337656Y0144977D01*
X0337676Y0144986D01*
X0337699Y0144993D01*
X0337723Y0144996D01*
X0337749Y0144998D01*
X0337751D01*
X0337754D01*
X0337761D01*
X0337768Y0144996D01*
D02*
G37*
G36*
X0339895Y0144209D02*
X0339905Y0144207D01*
X0339917Y0144202D01*
X0339929Y0144195D01*
X0339940Y0144183D01*
X0339947Y0144167D01*
X0339950Y0144145D01*
Y0144141D01*
X0339948Y0144134D01*
X0339947Y0144124D01*
X0339941Y0144112D01*
X0339934Y0144100D01*
X0339922Y0144089D01*
X0339907Y0144082D01*
X0339884Y0144079D01*
X0339818D01*
X0339815D01*
X0339808Y0144080D01*
X0339797Y0144082D01*
X0339785Y0144087D01*
X0339773Y0144094D01*
X0339763Y0144106D01*
X0339756Y0144122D01*
X0339752Y0144145D01*
Y0144148D01*
X0339754Y0144155D01*
X0339756Y0144165D01*
X0339761Y0144178D01*
X0339768Y0144190D01*
X0339780Y0144200D01*
X0339796Y0144207D01*
X0339818Y0144211D01*
X0339884D01*
X0339888D01*
X0339895Y0144209D01*
D02*
G37*
G36*
X0337673Y0144077D02*
X0337685Y0144075D01*
X0337699Y0144073D01*
X0337730Y0144067D01*
X0337767Y0144054D01*
X0337806Y0144037D01*
X0337826Y0144027D01*
X0337845Y0144014D01*
X0337864Y0143999D01*
X0337883Y0143982D01*
X0337885Y0143980D01*
X0337886Y0143978D01*
X0337891Y0143971D01*
X0337898Y0143964D01*
X0337905Y0143956D01*
X0337912Y0143943D01*
X0337921Y0143931D01*
X0337930Y0143917D01*
X0337949Y0143883D01*
X0337963Y0143843D01*
X0337975Y0143798D01*
X0337976Y0143775D01*
X0337978Y0143749D01*
Y0143735D01*
X0337976Y0143727D01*
X0337975Y0143714D01*
X0337973Y0143701D01*
X0337966Y0143669D01*
X0337956Y0143633D01*
X0337938Y0143593D01*
X0337926Y0143574D01*
X0337914Y0143555D01*
X0337900Y0143536D01*
X0337883Y0143517D01*
X0337881Y0143515D01*
X0337878Y0143513D01*
X0337872Y0143508D01*
X0337865Y0143501D01*
X0337857Y0143494D01*
X0337845Y0143487D01*
X0337832Y0143478D01*
X0337819Y0143470D01*
X0337784Y0143451D01*
X0337744Y0143437D01*
X0337699Y0143425D01*
X0337675Y0143423D01*
X0337650Y0143421D01*
X0337387D01*
X0337385D01*
X0337380D01*
X0337373D01*
X0337364Y0143423D01*
X0337352Y0143425D01*
X0337338Y0143426D01*
X0337307Y0143433D01*
X0337270Y0143444D01*
X0337230Y0143461D01*
X0337211Y0143473D01*
X0337192Y0143485D01*
X0337173Y0143499D01*
X0337154Y0143517D01*
X0337152Y0143518D01*
X0337151Y0143522D01*
X0337146Y0143527D01*
X0337139Y0143534D01*
X0337132Y0143543D01*
X0337123Y0143555D01*
X0337114Y0143567D01*
X0337106Y0143581D01*
X0337088Y0143615D01*
X0337073Y0143655D01*
X0337060Y0143701D01*
X0337059Y0143725D01*
X0337057Y0143749D01*
Y0143763D01*
X0337059Y0143772D01*
X0337060Y0143784D01*
X0337062Y0143798D01*
X0337069Y0143831D01*
X0337080Y0143867D01*
X0337097Y0143907D01*
X0337107Y0143926D01*
X0337121Y0143945D01*
X0337135Y0143964D01*
X0337152Y0143983D01*
X0337154Y0143985D01*
X0337156Y0143987D01*
X0337163Y0143992D01*
X0337170Y0143999D01*
X0337178Y0144006D01*
X0337191Y0144013D01*
X0337203Y0144021D01*
X0337217Y0144032D01*
X0337251Y0144049D01*
X0337291Y0144063D01*
X0337336Y0144075D01*
X0337361Y0144077D01*
X0337387Y0144079D01*
X0337650D01*
X0337652D01*
X0337656D01*
X0337664D01*
X0337673Y0144077D01*
D02*
G37*
G36*
X0339896Y0143813D02*
X0339907Y0143812D01*
X0339917Y0143806D01*
X0339929Y0143799D01*
X0339940Y0143787D01*
X0339947Y0143772D01*
X0339950Y0143749D01*
Y0143746D01*
X0339948Y0143739D01*
X0339947Y0143728D01*
X0339941Y0143716D01*
X0339934Y0143704D01*
X0339922Y0143694D01*
X0339907Y0143687D01*
X0339886Y0143683D01*
X0338861D01*
X0339011Y0143530D01*
X0339015Y0143527D01*
X0339020Y0143518D01*
X0339027Y0143503D01*
X0339029Y0143494D01*
X0339031Y0143485D01*
Y0143482D01*
X0339029Y0143475D01*
X0339027Y0143465D01*
X0339022Y0143452D01*
X0339015Y0143440D01*
X0339003Y0143430D01*
X0338987Y0143423D01*
X0338965Y0143419D01*
X0338963D01*
X0338959D01*
X0338949Y0143421D01*
X0338933Y0143428D01*
X0338926Y0143432D01*
X0338920Y0143439D01*
X0338661Y0143695D01*
X0338659Y0143697D01*
X0338658Y0143701D01*
X0338652Y0143706D01*
X0338647Y0143713D01*
X0338638Y0143728D01*
X0338637Y0143739D01*
X0338635Y0143749D01*
Y0143753D01*
X0338637Y0143759D01*
X0338638Y0143770D01*
X0338644Y0143782D01*
X0338651Y0143794D01*
X0338663Y0143805D01*
X0338678Y0143812D01*
X0338701Y0143815D01*
X0339886D01*
X0339889D01*
X0339896Y0143813D01*
D02*
G37*
G36*
X0339895Y0143154D02*
X0339905Y0143152D01*
X0339917Y0143147D01*
X0339929Y0143140D01*
X0339940Y0143128D01*
X0339947Y0143112D01*
X0339950Y0143090D01*
Y0142561D01*
X0339948Y0142554D01*
X0339947Y0142543D01*
X0339941Y0142531D01*
X0339934Y0142519D01*
X0339922Y0142509D01*
X0339907Y0142502D01*
X0339886Y0142498D01*
X0339884D01*
X0339882D01*
X0339874Y0142500D01*
X0339862Y0142503D01*
X0339848Y0142510D01*
X0339074Y0142993D01*
X0339072Y0142994D01*
X0339065Y0142998D01*
X0339053Y0143003D01*
X0339039Y0143008D01*
X0339024Y0143014D01*
X0339005Y0143019D01*
X0338985Y0143022D01*
X0338965Y0143024D01*
X0338963D01*
X0338961D01*
X0338951D01*
X0338935Y0143020D01*
X0338916Y0143017D01*
X0338895Y0143010D01*
X0338871Y0143000D01*
X0338848Y0142986D01*
X0338826Y0142967D01*
X0338824Y0142965D01*
X0338817Y0142956D01*
X0338807Y0142944D01*
X0338796Y0142929D01*
X0338786Y0142908D01*
X0338776Y0142883D01*
X0338769Y0142857D01*
X0338767Y0142828D01*
Y0142823D01*
X0338769Y0142817D01*
Y0142809D01*
X0338772Y0142798D01*
X0338776Y0142788D01*
X0338781Y0142774D01*
X0338788Y0142760D01*
X0338796Y0142745D01*
X0338807Y0142727D01*
X0338821Y0142712D01*
X0338836Y0142693D01*
X0338855Y0142675D01*
X0338878Y0142658D01*
X0338904Y0142639D01*
X0338933Y0142621D01*
X0338935D01*
X0338939Y0142618D01*
X0338944Y0142615D01*
X0338949Y0142608D01*
X0338954Y0142601D01*
X0338959Y0142590D01*
X0338963Y0142578D01*
X0338965Y0142564D01*
Y0142561D01*
X0338963Y0142554D01*
X0338961Y0142543D01*
X0338956Y0142531D01*
X0338949Y0142519D01*
X0338937Y0142509D01*
X0338921Y0142502D01*
X0338899Y0142498D01*
X0338897D01*
X0338890Y0142500D01*
X0338881Y0142502D01*
X0338873Y0142505D01*
X0338869Y0142507D01*
X0338862Y0142510D01*
X0338850Y0142517D01*
X0338836Y0142528D01*
X0338817Y0142540D01*
X0338798Y0142554D01*
X0338776Y0142571D01*
X0338753Y0142592D01*
X0338732Y0142613D01*
X0338710Y0142637D01*
X0338691Y0142663D01*
X0338671Y0142693D01*
X0338658Y0142724D01*
X0338645Y0142757D01*
X0338638Y0142791D01*
X0338635Y0142828D01*
Y0142842D01*
X0338637Y0142850D01*
X0338638Y0142863D01*
X0338640Y0142876D01*
X0338647Y0142908D01*
X0338659Y0142944D01*
X0338677Y0142982D01*
X0338687Y0143001D01*
X0338699Y0143022D01*
X0338715Y0143040D01*
X0338732Y0143059D01*
X0338734Y0143060D01*
X0338736Y0143062D01*
X0338743Y0143067D01*
X0338750Y0143074D01*
X0338758Y0143081D01*
X0338770Y0143090D01*
X0338782Y0143099D01*
X0338796Y0143107D01*
X0338831Y0143125D01*
X0338871Y0143140D01*
X0338916Y0143152D01*
X0338939Y0143154D01*
X0338965Y0143156D01*
X0338966D01*
X0338968D01*
X0338973D01*
X0338980D01*
X0338999Y0143152D01*
X0339024Y0143149D01*
X0339051Y0143142D01*
X0339084Y0143131D01*
X0339117Y0143116D01*
X0339154Y0143097D01*
X0339818Y0142682D01*
Y0143093D01*
X0339820Y0143100D01*
X0339822Y0143111D01*
X0339827Y0143123D01*
X0339834Y0143135D01*
X0339846Y0143145D01*
X0339862Y0143152D01*
X0339884Y0143156D01*
X0339888D01*
X0339895Y0143154D01*
D02*
G37*
G36*
X0337923Y0143156D02*
X0337933Y0143154D01*
X0337945Y0143149D01*
X0337957Y0143142D01*
X0337968Y0143130D01*
X0337975Y0143114D01*
X0337978Y0143092D01*
Y0142814D01*
X0337976Y0142805D01*
X0337975Y0142793D01*
X0337973Y0142779D01*
X0337966Y0142748D01*
X0337956Y0142712D01*
X0337938Y0142673D01*
X0337926Y0142653D01*
X0337914Y0142634D01*
X0337900Y0142615D01*
X0337883Y0142595D01*
X0337881Y0142594D01*
X0337878Y0142592D01*
X0337872Y0142587D01*
X0337865Y0142580D01*
X0337857Y0142573D01*
X0337845Y0142566D01*
X0337832Y0142557D01*
X0337819Y0142549D01*
X0337784Y0142529D01*
X0337744Y0142516D01*
X0337699Y0142503D01*
X0337675Y0142502D01*
X0337650Y0142500D01*
X0336993D01*
X0336991D01*
X0336986D01*
X0336979D01*
X0336970Y0142502D01*
X0336958Y0142503D01*
X0336944Y0142505D01*
X0336913Y0142512D01*
X0336877Y0142523D01*
X0336837Y0142540D01*
X0336818Y0142552D01*
X0336799Y0142564D01*
X0336779Y0142578D01*
X0336760Y0142595D01*
X0336759Y0142597D01*
X0336757Y0142601D01*
X0336752Y0142606D01*
X0336745Y0142613D01*
X0336738Y0142621D01*
X0336729Y0142634D01*
X0336720Y0142646D01*
X0336712Y0142661D01*
X0336694Y0142694D01*
X0336679Y0142734D01*
X0336667Y0142779D01*
X0336665Y0142804D01*
X0336663Y0142828D01*
Y0143095D01*
X0336665Y0143102D01*
X0336667Y0143112D01*
X0336672Y0143125D01*
X0336679Y0143137D01*
X0336691Y0143147D01*
X0336707Y0143154D01*
X0336729Y0143158D01*
X0336733D01*
X0336740Y0143156D01*
X0336750Y0143154D01*
X0336762Y0143149D01*
X0336774Y0143142D01*
X0336785Y0143130D01*
X0336792Y0143114D01*
X0336795Y0143092D01*
Y0142814D01*
X0336799Y0142798D01*
X0336802Y0142779D01*
X0336809Y0142758D01*
X0336819Y0142734D01*
X0336835Y0142712D01*
X0336854Y0142689D01*
X0336856Y0142687D01*
X0336864Y0142680D01*
X0336877Y0142672D01*
X0336892Y0142661D01*
X0336913Y0142649D01*
X0336937Y0142641D01*
X0336963Y0142634D01*
X0336993Y0142632D01*
X0337650D01*
X0337652D01*
X0337654D01*
X0337664Y0142634D01*
X0337680Y0142635D01*
X0337699Y0142639D01*
X0337720Y0142646D01*
X0337744Y0142656D01*
X0337767Y0142670D01*
X0337789Y0142689D01*
X0337791Y0142693D01*
X0337798Y0142700D01*
X0337806Y0142712D01*
X0337817Y0142727D01*
X0337829Y0142748D01*
X0337838Y0142772D01*
X0337845Y0142798D01*
X0337846Y0142828D01*
Y0143095D01*
X0337848Y0143102D01*
X0337850Y0143112D01*
X0337855Y0143125D01*
X0337862Y0143137D01*
X0337874Y0143147D01*
X0337890Y0143154D01*
X0337912Y0143158D01*
X0337916D01*
X0337923Y0143156D01*
D02*
G37*
G36*
X0337620Y0138059D02*
X0337632Y0138054D01*
X0337646Y0138044D01*
X0337659Y0138034D01*
X0337673Y0138017D01*
X0337683Y0137996D01*
X0337787Y0137680D01*
X0338054Y0137877D01*
X0338059Y0137879D01*
X0338071Y0137886D01*
X0338088Y0137891D01*
X0338110Y0137894D01*
X0338115D01*
X0338125Y0137891D01*
X0338139Y0137889D01*
X0338154Y0137881D01*
X0338171Y0137872D01*
X0338185Y0137855D01*
X0338195Y0137833D01*
X0338200Y0137804D01*
Y0137796D01*
X0338198Y0137787D01*
X0338195Y0137777D01*
X0338190Y0137765D01*
X0338183Y0137753D01*
X0338173Y0137741D01*
X0338161Y0137728D01*
X0337894Y0137532D01*
X0338164Y0137335D01*
X0338166D01*
X0338168Y0137330D01*
X0338176Y0137323D01*
X0338181Y0137316D01*
X0338195Y0137291D01*
X0338198Y0137274D01*
X0338200Y0137257D01*
Y0137250D01*
X0338198Y0137243D01*
Y0137236D01*
X0338188Y0137214D01*
X0338183Y0137202D01*
X0338173Y0137192D01*
X0338171D01*
X0338168Y0137187D01*
X0338156Y0137180D01*
X0338134Y0137172D01*
X0338110Y0137168D01*
X0338108D01*
X0338105D01*
X0338093Y0137170D01*
X0338074Y0137175D01*
X0338054Y0137187D01*
X0337785Y0137381D01*
X0337683Y0137066D01*
Y0137063D01*
X0337678Y0137056D01*
X0337673Y0137044D01*
X0337663Y0137034D01*
X0337651Y0137022D01*
X0337637Y0137010D01*
X0337617Y0137002D01*
X0337593Y0137000D01*
X0337588D01*
X0337578Y0137002D01*
X0337564Y0137005D01*
X0337547Y0137012D01*
X0337532Y0137022D01*
X0337518Y0137039D01*
X0337508Y0137061D01*
X0337503Y0137090D01*
Y0137100D01*
X0337506Y0137109D01*
X0337508Y0137121D01*
X0337610Y0137440D01*
X0337277D01*
X0337272D01*
X0337263Y0137442D01*
X0337248Y0137444D01*
X0337231Y0137452D01*
X0337214Y0137461D01*
X0337200Y0137478D01*
X0337190Y0137500D01*
X0337185Y0137532D01*
Y0137537D01*
X0337187Y0137546D01*
X0337190Y0137561D01*
X0337197Y0137578D01*
X0337207Y0137595D01*
X0337224Y0137609D01*
X0337246Y0137619D01*
X0337277Y0137624D01*
X0337610D01*
X0337508Y0137937D01*
Y0137940D01*
X0337506Y0137945D01*
X0337503Y0137954D01*
Y0137969D01*
X0337506Y0137979D01*
X0337508Y0137996D01*
X0337515Y0138013D01*
X0337527Y0138030D01*
X0337544Y0138047D01*
X0337569Y0138056D01*
X0337600Y0138061D01*
X0337603D01*
X0337610D01*
X0337620Y0138059D01*
D02*
G37*
%LPC*%
G36*
X0337650Y0171178D02*
X0337387D01*
X0337385D01*
X0337383D01*
X0337373D01*
X0337357Y0171175D01*
X0337338Y0171171D01*
X0337317Y0171164D01*
X0337293Y0171154D01*
X0337270Y0171138D01*
X0337248Y0171119D01*
X0337246Y0171118D01*
X0337239Y0171109D01*
X0337230Y0171097D01*
X0337218Y0171081D01*
X0337208Y0171060D01*
X0337199Y0171036D01*
X0337192Y0171010D01*
X0337191Y0170981D01*
Y0170967D01*
X0337194Y0170951D01*
X0337198Y0170932D01*
X0337204Y0170911D01*
X0337215Y0170887D01*
X0337229Y0170864D01*
X0337248Y0170842D01*
X0337250Y0170840D01*
X0337258Y0170833D01*
X0337270Y0170824D01*
X0337286Y0170814D01*
X0337307Y0170802D01*
X0337331Y0170793D01*
X0337357Y0170786D01*
X0337387Y0170785D01*
X0337650D01*
X0337652D01*
X0337654D01*
X0337664Y0170786D01*
X0337680Y0170788D01*
X0337699Y0170791D01*
X0337720Y0170798D01*
X0337744Y0170809D01*
X0337767Y0170821D01*
X0337789Y0170840D01*
X0337791Y0170843D01*
X0337798Y0170850D01*
X0337806Y0170863D01*
X0337817Y0170880D01*
X0337829Y0170899D01*
X0337838Y0170923D01*
X0337845Y0170951D01*
X0337846Y0170981D01*
Y0170984D01*
X0337845Y0170994D01*
X0337843Y0171010D01*
X0337839Y0171029D01*
X0337832Y0171050D01*
X0337822Y0171074D01*
X0337808Y0171097D01*
X0337789Y0171119D01*
X0337786Y0171121D01*
X0337779Y0171128D01*
X0337767Y0171138D01*
X0337751Y0171149D01*
X0337730Y0171159D01*
X0337706Y0171170D01*
X0337680Y0171177D01*
X0337650Y0171178D01*
D02*
G37*
G36*
X0337453Y0168021D02*
X0337388D01*
X0337387D01*
X0337385D01*
X0337375D01*
X0337359Y0168017D01*
X0337340Y0168014D01*
X0337319Y0168007D01*
X0337295Y0167997D01*
X0337272Y0167981D01*
X0337250Y0167962D01*
X0337248Y0167960D01*
X0337241Y0167952D01*
X0337230Y0167939D01*
X0337220Y0167924D01*
X0337210Y0167903D01*
X0337199Y0167879D01*
X0337192Y0167853D01*
X0337191Y0167823D01*
Y0167809D01*
X0337194Y0167794D01*
X0337198Y0167775D01*
X0337204Y0167754D01*
X0337215Y0167729D01*
X0337230Y0167707D01*
X0337250Y0167684D01*
X0337251Y0167683D01*
X0337260Y0167676D01*
X0337272Y0167667D01*
X0337288Y0167657D01*
X0337309Y0167644D01*
X0337333Y0167636D01*
X0337359Y0167629D01*
X0337388Y0167627D01*
X0337453D01*
Y0168021D01*
D02*
G37*
G36*
X0337080Y0158417D02*
X0337059D01*
X0337057D01*
X0337054D01*
X0337048D01*
X0337040Y0158415D01*
X0337031D01*
X0337019Y0158414D01*
X0336993Y0158408D01*
X0336963Y0158398D01*
X0336932Y0158384D01*
X0336901Y0158367D01*
X0336885Y0158355D01*
X0336871Y0158341D01*
X0336870D01*
X0336868Y0158337D01*
X0336859Y0158327D01*
X0336847Y0158311D01*
X0336833Y0158289D01*
X0336819Y0158263D01*
X0336807Y0158230D01*
X0336799Y0158195D01*
X0336795Y0158176D01*
Y0157893D01*
X0337321D01*
Y0158165D01*
X0337319Y0158174D01*
X0337317Y0158193D01*
X0337312Y0158219D01*
X0337302Y0158249D01*
X0337289Y0158280D01*
X0337270Y0158311D01*
X0337260Y0158327D01*
X0337246Y0158341D01*
X0337244Y0158342D01*
X0337243Y0158344D01*
X0337232Y0158353D01*
X0337217Y0158365D01*
X0337194Y0158379D01*
X0337166Y0158393D01*
X0337135Y0158405D01*
X0337099Y0158414D01*
X0337080Y0158417D01*
D02*
G37*
G36*
X0337846Y0154734D02*
X0337584D01*
Y0154462D01*
X0337586Y0154451D01*
X0337590Y0154437D01*
X0337595Y0154423D01*
X0337602Y0154408D01*
X0337610Y0154392D01*
X0337624Y0154377D01*
X0337626Y0154375D01*
X0337631Y0154371D01*
X0337640Y0154364D01*
X0337650Y0154357D01*
X0337664Y0154351D01*
X0337680Y0154344D01*
X0337697Y0154340D01*
X0337716Y0154338D01*
X0337718D01*
X0337725D01*
X0337735Y0154340D01*
X0337747Y0154344D01*
X0337763Y0154347D01*
X0337777Y0154354D01*
X0337793Y0154364D01*
X0337808Y0154377D01*
X0337810Y0154378D01*
X0337813Y0154384D01*
X0337820Y0154392D01*
X0337827Y0154403D01*
X0337834Y0154416D01*
X0337841Y0154434D01*
X0337845Y0154451D01*
X0337846Y0154470D01*
Y0154734D01*
D02*
G37*
G36*
X0337453Y0152630D02*
X0337388D01*
X0337387D01*
X0337385D01*
X0337375D01*
X0337359Y0152626D01*
X0337340Y0152623D01*
X0337319Y0152616D01*
X0337295Y0152605D01*
X0337272Y0152590D01*
X0337250Y0152571D01*
X0337248Y0152569D01*
X0337241Y0152560D01*
X0337230Y0152548D01*
X0337220Y0152532D01*
X0337210Y0152512D01*
X0337199Y0152487D01*
X0337192Y0152461D01*
X0337191Y0152432D01*
Y0152418D01*
X0337194Y0152402D01*
X0337198Y0152383D01*
X0337204Y0152362D01*
X0337215Y0152338D01*
X0337230Y0152316D01*
X0337250Y0152293D01*
X0337251Y0152291D01*
X0337260Y0152284D01*
X0337272Y0152276D01*
X0337288Y0152265D01*
X0337309Y0152253D01*
X0337333Y0152244D01*
X0337359Y0152238D01*
X0337388Y0152236D01*
X0337453D01*
Y0152630D01*
D02*
G37*
G36*
X0339293D02*
X0339291D01*
X0339286D01*
X0339277D01*
X0339265D01*
X0339251Y0152628D01*
X0339234D01*
X0339214Y0152626D01*
X0339194Y0152624D01*
X0339145Y0152621D01*
X0339095Y0152614D01*
X0339039Y0152605D01*
X0338985Y0152593D01*
X0338984D01*
X0338977Y0152591D01*
X0338965Y0152588D01*
X0338951Y0152583D01*
X0338935Y0152578D01*
X0338916Y0152571D01*
X0338876Y0152553D01*
X0338836Y0152531D01*
X0338817Y0152519D01*
X0338802Y0152503D01*
X0338788Y0152487D01*
X0338776Y0152470D01*
X0338769Y0152451D01*
X0338767Y0152432D01*
Y0152427D01*
X0338769Y0152421D01*
X0338770Y0152415D01*
X0338774Y0152406D01*
X0338779Y0152395D01*
X0338786Y0152383D01*
X0338795Y0152371D01*
X0338807Y0152359D01*
X0338821Y0152345D01*
X0338838Y0152331D01*
X0338861Y0152319D01*
X0338885Y0152305D01*
X0338914Y0152293D01*
X0338949Y0152281D01*
X0338987Y0152271D01*
X0338989D01*
X0338994Y0152269D01*
X0339001Y0152267D01*
X0339013Y0152265D01*
X0339025Y0152262D01*
X0339043Y0152260D01*
X0339060Y0152257D01*
X0339081Y0152253D01*
X0339103Y0152250D01*
X0339126Y0152246D01*
X0339178Y0152241D01*
X0339234Y0152238D01*
X0339293Y0152236D01*
X0339294D01*
X0339299D01*
X0339308D01*
X0339320D01*
X0339334Y0152238D01*
X0339352D01*
X0339371Y0152239D01*
X0339391Y0152241D01*
X0339440Y0152244D01*
X0339492Y0152250D01*
X0339546Y0152258D01*
X0339601Y0152271D01*
X0339603D01*
X0339610Y0152272D01*
X0339622Y0152276D01*
X0339634Y0152281D01*
X0339652Y0152286D01*
X0339671Y0152293D01*
X0339709Y0152310D01*
X0339749Y0152333D01*
X0339768Y0152347D01*
X0339783Y0152361D01*
X0339797Y0152376D01*
X0339809Y0152394D01*
X0339816Y0152413D01*
X0339818Y0152432D01*
Y0152437D01*
X0339816Y0152442D01*
X0339815Y0152449D01*
X0339811Y0152460D01*
X0339806Y0152470D01*
X0339801Y0152480D01*
X0339790Y0152493D01*
X0339780Y0152506D01*
X0339764Y0152519D01*
X0339747Y0152532D01*
X0339726Y0152546D01*
X0339702Y0152558D01*
X0339672Y0152571D01*
X0339639Y0152583D01*
X0339601Y0152593D01*
X0339600D01*
X0339594Y0152595D01*
X0339587Y0152597D01*
X0339575Y0152598D01*
X0339563Y0152602D01*
X0339546Y0152605D01*
X0339528Y0152609D01*
X0339508Y0152612D01*
X0339485Y0152614D01*
X0339463Y0152617D01*
X0339409Y0152624D01*
X0339353Y0152628D01*
X0339293Y0152630D01*
D02*
G37*
G36*
X0337716Y0151708D02*
X0337321D01*
X0337319D01*
X0337312D01*
X0337302Y0151707D01*
X0337288Y0151703D01*
X0337274Y0151700D01*
X0337258Y0151693D01*
X0337243Y0151682D01*
X0337227Y0151670D01*
X0337225Y0151669D01*
X0337222Y0151663D01*
X0337215Y0151655D01*
X0337208Y0151644D01*
X0337201Y0151630D01*
X0337194Y0151615D01*
X0337191Y0151597D01*
X0337189Y0151577D01*
Y0151315D01*
X0337846D01*
Y0151585D01*
X0337845Y0151596D01*
X0337841Y0151608D01*
X0337838Y0151623D01*
X0337831Y0151637D01*
X0337820Y0151653D01*
X0337808Y0151669D01*
X0337806Y0151670D01*
X0337801Y0151675D01*
X0337793Y0151681D01*
X0337782Y0151689D01*
X0337768Y0151696D01*
X0337753Y0151701D01*
X0337735Y0151707D01*
X0337716Y0151708D01*
D02*
G37*
G36*
Y0148553D02*
X0337321D01*
X0337319D01*
X0337312D01*
X0337302Y0148551D01*
X0337288Y0148548D01*
X0337274Y0148544D01*
X0337258Y0148537D01*
X0337243Y0148527D01*
X0337227Y0148515D01*
X0337225Y0148513D01*
X0337222Y0148508D01*
X0337215Y0148499D01*
X0337208Y0148489D01*
X0337201Y0148475D01*
X0337194Y0148459D01*
X0337191Y0148442D01*
X0337189Y0148421D01*
Y0148159D01*
X0337846D01*
Y0148430D01*
X0337845Y0148440D01*
X0337841Y0148452D01*
X0337838Y0148468D01*
X0337831Y0148482D01*
X0337820Y0148497D01*
X0337808Y0148513D01*
X0337806Y0148515D01*
X0337801Y0148520D01*
X0337793Y0148525D01*
X0337782Y0148534D01*
X0337768Y0148541D01*
X0337753Y0148546D01*
X0337735Y0148551D01*
X0337716Y0148553D01*
D02*
G37*
G36*
X0339293Y0148156D02*
X0339291D01*
X0339286D01*
X0339277D01*
X0339265D01*
X0339251Y0148154D01*
X0339234D01*
X0339214Y0148152D01*
X0339194Y0148150D01*
X0339145Y0148147D01*
X0339095Y0148140D01*
X0339039Y0148131D01*
X0338985Y0148119D01*
X0338984D01*
X0338977Y0148117D01*
X0338965Y0148114D01*
X0338951Y0148109D01*
X0338935Y0148103D01*
X0338916Y0148097D01*
X0338876Y0148079D01*
X0338836Y0148057D01*
X0338817Y0148044D01*
X0338802Y0148029D01*
X0338788Y0148013D01*
X0338776Y0147996D01*
X0338769Y0147977D01*
X0338767Y0147958D01*
Y0147953D01*
X0338769Y0147947D01*
X0338770Y0147940D01*
X0338774Y0147932D01*
X0338779Y0147921D01*
X0338786Y0147909D01*
X0338795Y0147897D01*
X0338807Y0147885D01*
X0338821Y0147871D01*
X0338838Y0147857D01*
X0338861Y0147845D01*
X0338885Y0147831D01*
X0338914Y0147819D01*
X0338949Y0147807D01*
X0338987Y0147796D01*
X0338989D01*
X0338994Y0147795D01*
X0339001Y0147793D01*
X0339013Y0147791D01*
X0339025Y0147788D01*
X0339043Y0147786D01*
X0339060Y0147783D01*
X0339081Y0147779D01*
X0339103Y0147776D01*
X0339126Y0147772D01*
X0339178Y0147767D01*
X0339234Y0147763D01*
X0339293Y0147762D01*
X0339294D01*
X0339299D01*
X0339308D01*
X0339320D01*
X0339334Y0147763D01*
X0339352D01*
X0339371Y0147765D01*
X0339391Y0147767D01*
X0339440Y0147770D01*
X0339492Y0147776D01*
X0339546Y0147784D01*
X0339601Y0147796D01*
X0339603D01*
X0339610Y0147798D01*
X0339622Y0147802D01*
X0339634Y0147807D01*
X0339652Y0147812D01*
X0339671Y0147819D01*
X0339709Y0147836D01*
X0339749Y0147859D01*
X0339768Y0147873D01*
X0339783Y0147887D01*
X0339797Y0147902D01*
X0339809Y0147920D01*
X0339816Y0147939D01*
X0339818Y0147958D01*
Y0147963D01*
X0339816Y0147968D01*
X0339815Y0147975D01*
X0339811Y0147986D01*
X0339806Y0147996D01*
X0339801Y0148006D01*
X0339790Y0148018D01*
X0339780Y0148032D01*
X0339764Y0148044D01*
X0339747Y0148058D01*
X0339726Y0148072D01*
X0339702Y0148084D01*
X0339672Y0148097D01*
X0339639Y0148109D01*
X0339601Y0148119D01*
X0339600D01*
X0339594Y0148121D01*
X0339587Y0148123D01*
X0339575Y0148124D01*
X0339563Y0148128D01*
X0339546Y0148131D01*
X0339528Y0148135D01*
X0339508Y0148138D01*
X0339485Y0148140D01*
X0339463Y0148143D01*
X0339409Y0148150D01*
X0339353Y0148154D01*
X0339293Y0148156D01*
D02*
G37*
G36*
X0337846Y0147632D02*
X0337584D01*
Y0147359D01*
X0337586Y0147349D01*
X0337590Y0147335D01*
X0337595Y0147321D01*
X0337602Y0147305D01*
X0337610Y0147290D01*
X0337624Y0147274D01*
X0337626Y0147272D01*
X0337631Y0147269D01*
X0337640Y0147262D01*
X0337650Y0147255D01*
X0337664Y0147248D01*
X0337680Y0147241D01*
X0337697Y0147238D01*
X0337716Y0147236D01*
X0337718D01*
X0337725D01*
X0337735Y0147238D01*
X0337747Y0147241D01*
X0337763Y0147245D01*
X0337777Y0147252D01*
X0337793Y0147262D01*
X0337808Y0147274D01*
X0337810Y0147276D01*
X0337813Y0147281D01*
X0337820Y0147290D01*
X0337827Y0147300D01*
X0337834Y0147314D01*
X0337841Y0147331D01*
X0337845Y0147349D01*
X0337846Y0147368D01*
Y0147632D01*
D02*
G37*
G36*
X0339293Y0144998D02*
X0339291D01*
X0339286D01*
X0339277D01*
X0339265D01*
X0339251Y0144996D01*
X0339234D01*
X0339214Y0144995D01*
X0339194Y0144993D01*
X0339145Y0144989D01*
X0339095Y0144983D01*
X0339039Y0144974D01*
X0338985Y0144962D01*
X0338984D01*
X0338977Y0144960D01*
X0338965Y0144957D01*
X0338951Y0144951D01*
X0338935Y0144946D01*
X0338916Y0144939D01*
X0338876Y0144922D01*
X0338836Y0144899D01*
X0338817Y0144887D01*
X0338802Y0144872D01*
X0338788Y0144856D01*
X0338776Y0144839D01*
X0338769Y0144819D01*
X0338767Y0144800D01*
Y0144795D01*
X0338769Y0144790D01*
X0338770Y0144783D01*
X0338774Y0144774D01*
X0338779Y0144764D01*
X0338786Y0144752D01*
X0338795Y0144740D01*
X0338807Y0144728D01*
X0338821Y0144714D01*
X0338838Y0144700D01*
X0338861Y0144688D01*
X0338885Y0144674D01*
X0338914Y0144662D01*
X0338949Y0144649D01*
X0338987Y0144639D01*
X0338989D01*
X0338994Y0144637D01*
X0339001Y0144636D01*
X0339013Y0144634D01*
X0339025Y0144630D01*
X0339043Y0144629D01*
X0339060Y0144625D01*
X0339081Y0144622D01*
X0339103Y0144618D01*
X0339126Y0144615D01*
X0339178Y0144610D01*
X0339234Y0144606D01*
X0339293Y0144604D01*
X0339294D01*
X0339299D01*
X0339308D01*
X0339320D01*
X0339334Y0144606D01*
X0339352D01*
X0339371Y0144608D01*
X0339391Y0144610D01*
X0339440Y0144613D01*
X0339492Y0144618D01*
X0339546Y0144627D01*
X0339601Y0144639D01*
X0339603D01*
X0339610Y0144641D01*
X0339622Y0144644D01*
X0339634Y0144649D01*
X0339652Y0144655D01*
X0339671Y0144662D01*
X0339709Y0144679D01*
X0339749Y0144701D01*
X0339768Y0144715D01*
X0339783Y0144729D01*
X0339797Y0144745D01*
X0339809Y0144762D01*
X0339816Y0144781D01*
X0339818Y0144800D01*
Y0144806D01*
X0339816Y0144811D01*
X0339815Y0144818D01*
X0339811Y0144828D01*
X0339806Y0144839D01*
X0339801Y0144849D01*
X0339790Y0144861D01*
X0339780Y0144875D01*
X0339764Y0144887D01*
X0339747Y0144901D01*
X0339726Y0144915D01*
X0339702Y0144927D01*
X0339672Y0144939D01*
X0339639Y0144951D01*
X0339601Y0144962D01*
X0339600D01*
X0339594Y0144963D01*
X0339587Y0144965D01*
X0339575Y0144967D01*
X0339563Y0144970D01*
X0339546Y0144974D01*
X0339528Y0144977D01*
X0339508Y0144981D01*
X0339485Y0144983D01*
X0339463Y0144986D01*
X0339409Y0144993D01*
X0339353Y0144996D01*
X0339293Y0144998D01*
D02*
G37*
G36*
X0337650Y0143947D02*
X0337387D01*
X0337385D01*
X0337383D01*
X0337373D01*
X0337357Y0143943D01*
X0337338Y0143940D01*
X0337317Y0143933D01*
X0337293Y0143923D01*
X0337270Y0143907D01*
X0337248Y0143888D01*
X0337246Y0143886D01*
X0337239Y0143877D01*
X0337230Y0143865D01*
X0337218Y0143850D01*
X0337208Y0143829D01*
X0337199Y0143805D01*
X0337192Y0143779D01*
X0337191Y0143749D01*
Y0143735D01*
X0337194Y0143720D01*
X0337198Y0143701D01*
X0337204Y0143680D01*
X0337215Y0143655D01*
X0337229Y0143633D01*
X0337248Y0143610D01*
X0337250Y0143609D01*
X0337258Y0143602D01*
X0337270Y0143593D01*
X0337286Y0143583D01*
X0337307Y0143570D01*
X0337331Y0143562D01*
X0337357Y0143555D01*
X0337387Y0143553D01*
X0337650D01*
X0337652D01*
X0337654D01*
X0337664Y0143555D01*
X0337680Y0143557D01*
X0337699Y0143560D01*
X0337720Y0143567D01*
X0337744Y0143577D01*
X0337767Y0143589D01*
X0337789Y0143609D01*
X0337791Y0143612D01*
X0337798Y0143619D01*
X0337806Y0143631D01*
X0337817Y0143648D01*
X0337829Y0143668D01*
X0337838Y0143692D01*
X0337845Y0143720D01*
X0337846Y0143749D01*
Y0143753D01*
X0337845Y0143763D01*
X0337843Y0143779D01*
X0337839Y0143798D01*
X0337832Y0143818D01*
X0337822Y0143843D01*
X0337808Y0143865D01*
X0337789Y0143888D01*
X0337786Y0143890D01*
X0337779Y0143897D01*
X0337767Y0143907D01*
X0337751Y0143917D01*
X0337730Y0143928D01*
X0337706Y0143938D01*
X0337680Y0143945D01*
X0337650Y0143947D01*
D02*
G37*
%LPD*%
D10*
X0442159Y0122679D02*
Y0180235D01*
X0438362Y0122679D02*
X0442159D01*
X0438362Y0121765D02*
Y0122679D01*
X0431656Y0121765D02*
X0438362D01*
X0431656D02*
Y0122679D01*
X0427859D02*
X0431656D01*
X0427859D02*
Y0180235D01*
X0442159D01*
D11*
X0323000Y0114900D02*
Y0113700D01*
X0323800D01*
X0324200Y0114900D02*
Y0113700D01*
X0324999D01*
X0325399D02*
Y0114900D01*
X0325999D01*
X0326199Y0114700D01*
Y0114300D01*
X0325999Y0114100D01*
X0325399D01*
X0325799D02*
X0326199Y0113700D01*
X0327399Y0114900D02*
X0326599D01*
Y0114300D01*
X0326999D01*
X0326599D01*
Y0113700D01*
X0327798Y0114300D02*
X0328598D01*
X0328998Y0114900D02*
Y0113700D01*
Y0114300D01*
X0329798D01*
Y0114900D01*
Y0113700D01*
X0330198D02*
Y0114900D01*
X0330797D01*
X0330997Y0114700D01*
Y0114300D01*
X0330797Y0114100D01*
X0330198D01*
X0425567Y0115800D02*
Y0116800D01*
X0426067D01*
X0426234Y0116633D01*
Y0116300D01*
X0426067Y0116133D01*
X0425567D01*
X0425900D02*
X0426234Y0115800D01*
X0426567D02*
Y0116800D01*
X0427067D01*
X0427233Y0116633D01*
Y0116300D01*
X0427067Y0116133D01*
X0426567D01*
X0428066Y0115800D02*
Y0116800D01*
X0427566Y0116300D01*
X0428233D01*
X0425267Y0185800D02*
Y0186800D01*
X0425767D01*
X0425934Y0186633D01*
Y0186300D01*
X0425767Y0186133D01*
X0425267D01*
X0425600D02*
X0425934Y0185800D01*
X0426267D02*
Y0186800D01*
X0426767D01*
X0426933Y0186633D01*
Y0186300D01*
X0426767Y0186133D01*
X0426267D01*
X0427266Y0186633D02*
X0427433Y0186800D01*
X0427766D01*
X0427933Y0186633D01*
Y0186467D01*
X0427766Y0186300D01*
X0427600D01*
X0427766D01*
X0427933Y0186133D01*
Y0185967D01*
X0427766Y0185800D01*
X0427433D01*
X0427266Y0185967D01*
X0319392Y0118097D02*
Y0119097D01*
X0319892D01*
X0320058Y0118930D01*
Y0118597D01*
X0319892Y0118430D01*
X0319392D01*
X0319725D02*
X0320058Y0118097D01*
X0320392D02*
Y0119097D01*
X0320891D01*
X0321058Y0118930D01*
Y0118597D01*
X0320891Y0118430D01*
X0320392D01*
X0322058Y0118097D02*
X0321391D01*
X0322058Y0118764D01*
Y0118930D01*
X0321891Y0119097D01*
X0321558D01*
X0321391Y0118930D01*
X0332934Y0185500D02*
Y0186500D01*
X0333434D01*
X0333600Y0186333D01*
Y0186000D01*
X0333434Y0185833D01*
X0332934D01*
X0333267D02*
X0333600Y0185500D01*
X0333933D02*
Y0186500D01*
X0334433D01*
X0334600Y0186333D01*
Y0186000D01*
X0334433Y0185833D01*
X0333933D01*
X0334933Y0185500D02*
X0335266D01*
X0335100D01*
Y0186500D01*
X0334933Y0186333D01*
X0441293Y0181650D02*
X0440959D01*
X0441126D01*
Y0180817D01*
X0440959Y0180650D01*
X0440793D01*
X0440626Y0180817D01*
X0441626Y0180650D02*
X0441959D01*
X0441793D01*
Y0181650D01*
X0441626Y0181483D01*
M02*
