G04*
G04 #@! TF.GenerationSoftware,Altium Limited,Altium Designer,21.3.2 (30)*
G04*
G04 Layer_Color=8388736*
%FSAX43Y43*%
%MOMM*%
G71*
G04*
G04 #@! TF.SameCoordinates,7BCF6593-9FE5-47D3-B3FF-4A217FFC91A0*
G04*
G04*
G04 #@! TF.FilePolarity,Negative*
G04*
G01*
G75*
%ADD12C,3.000*%
%ADD13C,0.737*%
%ADD14C,0.100*%
%ADD15C,0.500*%
%ADD16C,1.100*%
%ADD17C,5.100*%
D12*
X0430000Y0116000D02*
D03*
Y0186000D02*
D03*
X0321000Y0115500D02*
D03*
X0338000Y0186000D02*
D03*
D13*
X0429294Y0126235D02*
D03*
X0430564D02*
D03*
X0431834D02*
D03*
X0433104D02*
D03*
X0434374D02*
D03*
X0435644D02*
D03*
X0436914D02*
D03*
X0438184D02*
D03*
X0439454D02*
D03*
X0440724D02*
D03*
X0429294Y0127505D02*
D03*
X0430564D02*
D03*
X0431834D02*
D03*
X0433104D02*
D03*
X0434374D02*
D03*
X0435644D02*
D03*
X0436914D02*
D03*
X0438184D02*
D03*
X0439454D02*
D03*
X0440724D02*
D03*
X0429294Y0128775D02*
D03*
X0430564D02*
D03*
X0431834D02*
D03*
X0433104D02*
D03*
X0434374D02*
D03*
X0435644D02*
D03*
X0436914D02*
D03*
X0438184D02*
D03*
X0439454D02*
D03*
X0440724D02*
D03*
X0429294Y0130045D02*
D03*
X0430564D02*
D03*
X0431834D02*
D03*
X0433104D02*
D03*
X0434374D02*
D03*
X0435644D02*
D03*
X0436914D02*
D03*
X0438184D02*
D03*
X0439454D02*
D03*
X0440724D02*
D03*
X0429294Y0131315D02*
D03*
X0430564D02*
D03*
X0431834D02*
D03*
X0433104D02*
D03*
X0434374D02*
D03*
X0435644D02*
D03*
X0436914D02*
D03*
X0438184D02*
D03*
X0439454D02*
D03*
X0440724D02*
D03*
X0429294Y0132585D02*
D03*
X0430564D02*
D03*
X0431834D02*
D03*
X0433104D02*
D03*
X0434374D02*
D03*
X0435644D02*
D03*
X0436914D02*
D03*
X0438184D02*
D03*
X0439454D02*
D03*
X0440724D02*
D03*
X0429294Y0133855D02*
D03*
X0430564D02*
D03*
X0431834D02*
D03*
X0433104D02*
D03*
X0434374D02*
D03*
X0435644D02*
D03*
X0436914D02*
D03*
X0438184D02*
D03*
X0439454D02*
D03*
X0440724D02*
D03*
X0429294Y0135125D02*
D03*
X0430564D02*
D03*
X0431834D02*
D03*
X0433104D02*
D03*
X0434374D02*
D03*
X0435644D02*
D03*
X0436914D02*
D03*
X0438184D02*
D03*
X0439454D02*
D03*
X0440724D02*
D03*
X0429294Y0136395D02*
D03*
X0430564D02*
D03*
X0431834D02*
D03*
X0433104D02*
D03*
X0434374D02*
D03*
X0435644D02*
D03*
X0436914D02*
D03*
X0438184D02*
D03*
X0439454D02*
D03*
X0440724D02*
D03*
X0429294Y0137665D02*
D03*
X0430564D02*
D03*
X0431834D02*
D03*
X0433104D02*
D03*
X0434374D02*
D03*
X0435644D02*
D03*
X0436914D02*
D03*
X0438184D02*
D03*
X0439454D02*
D03*
X0440724D02*
D03*
X0429294Y0138935D02*
D03*
X0430564D02*
D03*
X0431834D02*
D03*
X0433104D02*
D03*
X0434374D02*
D03*
X0435644D02*
D03*
X0436914D02*
D03*
X0438184D02*
D03*
X0439454D02*
D03*
X0440724D02*
D03*
X0429294Y0140205D02*
D03*
X0430564D02*
D03*
X0431834D02*
D03*
X0433104D02*
D03*
X0434374D02*
D03*
X0435644D02*
D03*
X0436914D02*
D03*
X0438184D02*
D03*
X0439454D02*
D03*
X0440724D02*
D03*
X0429294Y0141475D02*
D03*
X0430564D02*
D03*
X0431834D02*
D03*
X0433104D02*
D03*
X0434374D02*
D03*
X0435644D02*
D03*
X0436914D02*
D03*
X0438184D02*
D03*
X0439454D02*
D03*
X0440724D02*
D03*
X0429294Y0142745D02*
D03*
X0430564D02*
D03*
X0431834D02*
D03*
X0433104D02*
D03*
X0434374D02*
D03*
X0435644D02*
D03*
X0436914D02*
D03*
X0438184D02*
D03*
X0439454D02*
D03*
X0440724D02*
D03*
X0429294Y0144015D02*
D03*
X0430564D02*
D03*
X0431834D02*
D03*
X0433104D02*
D03*
X0434374D02*
D03*
X0435644D02*
D03*
X0436914D02*
D03*
X0438184D02*
D03*
X0439454D02*
D03*
X0440724D02*
D03*
X0429294Y0145285D02*
D03*
X0430564D02*
D03*
X0431834D02*
D03*
X0433104D02*
D03*
X0434374D02*
D03*
X0435644D02*
D03*
X0436914D02*
D03*
X0438184D02*
D03*
X0439454D02*
D03*
X0440724D02*
D03*
X0429294Y0146555D02*
D03*
X0430564D02*
D03*
X0431834D02*
D03*
X0433104D02*
D03*
X0434374D02*
D03*
X0435644D02*
D03*
X0436914D02*
D03*
X0438184D02*
D03*
X0439454D02*
D03*
X0440724D02*
D03*
X0429294Y0147825D02*
D03*
X0430564D02*
D03*
X0431834D02*
D03*
X0433104D02*
D03*
X0434374D02*
D03*
X0435644D02*
D03*
X0436914D02*
D03*
X0438184D02*
D03*
X0439454D02*
D03*
X0440724D02*
D03*
X0429294Y0149095D02*
D03*
X0430564D02*
D03*
X0431834D02*
D03*
X0433104D02*
D03*
X0434374D02*
D03*
X0435644D02*
D03*
X0436914D02*
D03*
X0438184D02*
D03*
X0439454D02*
D03*
X0440724D02*
D03*
X0429294Y0150365D02*
D03*
X0430564D02*
D03*
X0431834D02*
D03*
X0433104D02*
D03*
X0434374D02*
D03*
X0435644D02*
D03*
X0436914D02*
D03*
X0438184D02*
D03*
X0439454D02*
D03*
X0440724D02*
D03*
X0429294Y0151635D02*
D03*
X0430564D02*
D03*
X0431834D02*
D03*
X0433104D02*
D03*
X0434374D02*
D03*
X0435644D02*
D03*
X0436914D02*
D03*
X0438184D02*
D03*
X0439454D02*
D03*
X0440724D02*
D03*
X0429294Y0152905D02*
D03*
X0430564D02*
D03*
X0431834D02*
D03*
X0433104D02*
D03*
X0434374D02*
D03*
X0435644D02*
D03*
X0436914D02*
D03*
X0438184D02*
D03*
X0439454D02*
D03*
X0440724D02*
D03*
X0429294Y0154175D02*
D03*
X0430564D02*
D03*
X0431834D02*
D03*
X0433104D02*
D03*
X0434374D02*
D03*
X0435644D02*
D03*
X0436914D02*
D03*
X0438184D02*
D03*
X0439454D02*
D03*
X0440724D02*
D03*
X0429294Y0155445D02*
D03*
X0430564D02*
D03*
X0431834D02*
D03*
X0433104D02*
D03*
X0434374D02*
D03*
X0435644D02*
D03*
X0436914D02*
D03*
X0438184D02*
D03*
X0439454D02*
D03*
X0440724D02*
D03*
X0429294Y0156715D02*
D03*
X0430564D02*
D03*
X0431834D02*
D03*
X0433104D02*
D03*
X0434374D02*
D03*
X0435644D02*
D03*
X0436914D02*
D03*
X0438184D02*
D03*
X0439454D02*
D03*
X0440724D02*
D03*
X0429294Y0157985D02*
D03*
X0430564D02*
D03*
X0431834D02*
D03*
X0433104D02*
D03*
X0434374D02*
D03*
X0435644D02*
D03*
X0436914D02*
D03*
X0438184D02*
D03*
X0439454D02*
D03*
X0440724D02*
D03*
X0429294Y0159255D02*
D03*
X0430564D02*
D03*
X0431834D02*
D03*
X0433104D02*
D03*
X0434374D02*
D03*
X0435644D02*
D03*
X0436914D02*
D03*
X0438184D02*
D03*
X0439454D02*
D03*
X0440724D02*
D03*
X0429294Y0160525D02*
D03*
X0430564D02*
D03*
X0431834D02*
D03*
X0433104D02*
D03*
X0434374D02*
D03*
X0435644D02*
D03*
X0436914D02*
D03*
X0438184D02*
D03*
X0439454D02*
D03*
X0440724D02*
D03*
X0429294Y0161795D02*
D03*
X0430564D02*
D03*
X0431834D02*
D03*
X0433104D02*
D03*
X0434374D02*
D03*
X0435644D02*
D03*
X0436914D02*
D03*
X0438184D02*
D03*
X0439454D02*
D03*
X0440724D02*
D03*
X0429294Y0163065D02*
D03*
X0430564D02*
D03*
X0431834D02*
D03*
X0433104D02*
D03*
X0434374D02*
D03*
X0435644D02*
D03*
X0436914D02*
D03*
X0438184D02*
D03*
X0439454D02*
D03*
X0440724D02*
D03*
X0429294Y0164335D02*
D03*
X0430564D02*
D03*
X0431834D02*
D03*
X0433104D02*
D03*
X0434374D02*
D03*
X0435644D02*
D03*
X0436914D02*
D03*
X0438184D02*
D03*
X0439454D02*
D03*
X0440724D02*
D03*
X0429294Y0165605D02*
D03*
X0430564D02*
D03*
X0431834D02*
D03*
X0433104D02*
D03*
X0434374D02*
D03*
X0435644D02*
D03*
X0436914D02*
D03*
X0438184D02*
D03*
X0439454D02*
D03*
X0440724D02*
D03*
X0429294Y0166875D02*
D03*
X0430564D02*
D03*
X0431834D02*
D03*
X0433104D02*
D03*
X0434374D02*
D03*
X0435644D02*
D03*
X0436914D02*
D03*
X0438184D02*
D03*
X0439454D02*
D03*
X0440724D02*
D03*
X0429294Y0168145D02*
D03*
X0430564D02*
D03*
X0431834D02*
D03*
X0433104D02*
D03*
X0434374D02*
D03*
X0435644D02*
D03*
X0436914D02*
D03*
X0438184D02*
D03*
X0439454D02*
D03*
X0440724D02*
D03*
X0429294Y0169415D02*
D03*
X0430564D02*
D03*
X0431834D02*
D03*
X0433104D02*
D03*
X0434374D02*
D03*
X0435644D02*
D03*
X0436914D02*
D03*
X0438184D02*
D03*
X0439454D02*
D03*
X0440724D02*
D03*
X0429294Y0170685D02*
D03*
X0430564D02*
D03*
X0431834D02*
D03*
X0433104D02*
D03*
X0434374D02*
D03*
X0435644D02*
D03*
X0436914D02*
D03*
X0438184D02*
D03*
X0439454D02*
D03*
X0440724D02*
D03*
X0429294Y0171955D02*
D03*
X0430564D02*
D03*
X0431834D02*
D03*
X0433104D02*
D03*
X0434374D02*
D03*
X0435644D02*
D03*
X0436914D02*
D03*
X0438184D02*
D03*
X0439454D02*
D03*
X0440724D02*
D03*
X0429294Y0173225D02*
D03*
X0430564D02*
D03*
X0431834D02*
D03*
X0433104D02*
D03*
X0434374D02*
D03*
X0435644D02*
D03*
X0436914D02*
D03*
X0438184D02*
D03*
X0439454D02*
D03*
X0440724D02*
D03*
X0429294Y0174495D02*
D03*
X0430564D02*
D03*
X0431834D02*
D03*
X0433104D02*
D03*
X0434374D02*
D03*
X0435644D02*
D03*
X0436914D02*
D03*
X0438184D02*
D03*
X0439454D02*
D03*
X0440724D02*
D03*
X0429294Y0175765D02*
D03*
X0430564D02*
D03*
X0431834D02*
D03*
X0433104D02*
D03*
X0434374D02*
D03*
X0435644D02*
D03*
X0436914D02*
D03*
X0438184D02*
D03*
X0439454D02*
D03*
X0440724D02*
D03*
D14*
X0431961Y0123809D02*
D03*
X0435009Y0178191D02*
D03*
X0327000Y0123809D02*
D03*
X0330048Y0178191D02*
D03*
D15*
X0440200Y0157400D02*
D03*
X0429900Y0158600D02*
D03*
X0431200D02*
D03*
X0440100Y0142100D02*
D03*
X0431200Y0145900D02*
D03*
X0438800Y0157300D02*
D03*
X0441400Y0143400D02*
D03*
X0433750Y0170060D02*
D03*
X0437600Y0126900D02*
D03*
X0440100D02*
D03*
X0441609Y0134771D02*
D03*
Y0134221D02*
D03*
X0438809Y0126906D02*
D03*
X0436911Y0176404D02*
D03*
X0431834Y0176416D02*
D03*
X0431209Y0168806D02*
D03*
Y0171306D02*
D03*
Y0170006D02*
D03*
X0433709Y0171306D02*
D03*
X0440085Y0173870D02*
D03*
X0432464Y0140841D02*
D03*
X0437554Y0139581D02*
D03*
X0436274D02*
D03*
X0434998Y0139572D02*
D03*
X0438824Y0138311D02*
D03*
X0433744Y0166241D02*
D03*
X0437554Y0166251D02*
D03*
X0440084Y0166241D02*
D03*
X0437544Y0161171D02*
D03*
X0437554Y0163701D02*
D03*
X0440084Y0161171D02*
D03*
X0433734Y0161161D02*
D03*
X0437544Y0158621D02*
D03*
X0440084D02*
D03*
X0437544Y0153551D02*
D03*
X0438814Y0154821D02*
D03*
X0440084Y0154811D02*
D03*
X0435004Y0153551D02*
D03*
X0433744Y0135761D02*
D03*
X0440084Y0134501D02*
D03*
X0436274Y0135771D02*
D03*
X0436241Y0170057D02*
D03*
X0431204Y0173861D02*
D03*
X0433744D02*
D03*
X0440093Y0170045D02*
D03*
X0429933Y0176395D02*
D03*
X0433735Y0175147D02*
D03*
X0436283Y0175125D02*
D03*
X0437553Y0173855D02*
D03*
X0438815Y0175147D02*
D03*
X0440093Y0150995D02*
D03*
X0437553D02*
D03*
X0434998Y0149732D02*
D03*
X0432465Y0148477D02*
D03*
X0440093Y0147185D02*
D03*
X0437553D02*
D03*
X0435013D02*
D03*
X0440093Y0143375D02*
D03*
X0437553D02*
D03*
X0435013D02*
D03*
X0433743Y0138295D02*
D03*
X0441363Y0137025D02*
D03*
X0436205Y0134507D02*
D03*
X0438808Y0131952D02*
D03*
X0435020Y0133230D02*
D03*
X0437545Y0128157D02*
D03*
X0438818Y0163692D02*
D03*
X0433104Y0128156D02*
D03*
X0430564Y0163716D02*
D03*
Y0133236D02*
D03*
X0438184Y0176416D02*
D03*
X0432478Y0145291D02*
D03*
X0433104Y0176416D02*
D03*
X0440078Y0148462D02*
D03*
X0431834Y0125597D02*
D03*
X0441348Y0144652D02*
D03*
X0430564Y0148476D02*
D03*
Y0128156D02*
D03*
X0436914Y0130677D02*
D03*
X0438818Y0156072D02*
D03*
X0435644Y0176416D02*
D03*
X0429294Y0145917D02*
D03*
X0440078Y0167512D02*
D03*
X0441348Y0163702D02*
D03*
X0431834Y0130677D02*
D03*
Y0135757D02*
D03*
X0429294Y0125597D02*
D03*
Y0171317D02*
D03*
X0438818Y0148452D02*
D03*
X0436268Y0157352D02*
D03*
X0429294Y0135757D02*
D03*
Y0161157D02*
D03*
X0437538Y0133222D02*
D03*
X0440724Y0128156D02*
D03*
X0430564Y0138316D02*
D03*
X0431834Y0156077D02*
D03*
X0441368Y0163071D02*
D03*
X0431834Y0161157D02*
D03*
X0429294Y0156077D02*
D03*
X0434998Y0135762D02*
D03*
X0441348Y0171322D02*
D03*
X0434374Y0125597D02*
D03*
X0435644Y0128156D02*
D03*
X0431834Y0150997D02*
D03*
X0434998Y0137032D02*
D03*
X0441348Y0170042D02*
D03*
X0433728Y0154812D02*
D03*
X0429294Y0140837D02*
D03*
X0441348Y0159892D02*
D03*
X0433728Y0143382D02*
D03*
X0437538Y0154812D02*
D03*
X0436268Y0137032D02*
D03*
X0441342Y0168771D02*
D03*
X0439454Y0130677D02*
D03*
X0430564Y0143396D02*
D03*
X0440078Y0140842D02*
D03*
X0432478Y0160531D02*
D03*
X0438818Y0133212D02*
D03*
X0441368Y0132591D02*
D03*
X0440078Y0133222D02*
D03*
X0438818Y0137022D02*
D03*
X0431834Y0166237D02*
D03*
X0440078Y0137032D02*
D03*
X0440088Y0138292D02*
D03*
X0429294Y0130677D02*
D03*
Y0166237D02*
D03*
X0436278Y0133212D02*
D03*
X0432458Y0163702D02*
D03*
X0438818Y0167502D02*
D03*
X0434998Y0154812D02*
D03*
X0437538Y0156082D02*
D03*
X0433728Y0126862D02*
D03*
X0432468Y0158612D02*
D03*
X0433728Y0158622D02*
D03*
X0432458Y0162432D02*
D03*
X0434998Y0151002D02*
D03*
Y0152272D02*
D03*
X0441348Y0164972D02*
D03*
X0434998Y0156082D02*
D03*
X0433728Y0153542D02*
D03*
X0432468Y0143372D02*
D03*
X0441348Y0138302D02*
D03*
X0432468Y0139562D02*
D03*
X0433728Y0139572D02*
D03*
X0440078Y0163702D02*
D03*
X0441348Y0145922D02*
D03*
X0429294Y0150997D02*
D03*
X0436268Y0138302D02*
D03*
X0434998Y0140842D02*
D03*
X0441348Y0125602D02*
D03*
X0438808D02*
D03*
X0430564Y0153556D02*
D03*
X0436268Y0126862D02*
D03*
X0437538Y0138292D02*
D03*
X0438818Y0128132D02*
D03*
X0437538Y0137022D02*
D03*
X0440078Y0128142D02*
D03*
X0436268Y0152272D02*
D03*
Y0153542D02*
D03*
Y0156082D02*
D03*
X0438818Y0159882D02*
D03*
X0441348Y0161162D02*
D03*
X0432459Y0156721D02*
D03*
X0440078Y0159892D02*
D03*
X0433104Y0133236D02*
D03*
X0440078Y0156082D02*
D03*
X0438818Y0144642D02*
D03*
X0440078Y0144652D02*
D03*
X0438818Y0140832D02*
D03*
X0434374Y0130677D02*
D03*
X0436247Y0143383D02*
D03*
X0436254Y0142120D02*
D03*
X0429918Y0168800D02*
D03*
X0441348Y0176392D02*
D03*
D16*
X0331500Y0190500D02*
D03*
X0333000D02*
D03*
X0334500D02*
D03*
X0431100Y0112250D02*
D03*
X0429600D02*
D03*
X0428100D02*
D03*
X0331500Y0112250D02*
D03*
X0333000D02*
D03*
X0334500D02*
D03*
X0428100Y0190500D02*
D03*
X0429600D02*
D03*
X0431100D02*
D03*
X0441600Y0190500D02*
D03*
X0440100D02*
D03*
X0438600D02*
D03*
X0441600Y0112250D02*
D03*
X0440100D02*
D03*
X0438600D02*
D03*
X0321000D02*
D03*
X0322500D02*
D03*
X0324000D02*
D03*
X0324000Y0190500D02*
D03*
X0322500D02*
D03*
X0321000D02*
D03*
D17*
X0435000Y0184000D02*
D03*
Y0118000D02*
D03*
X0327000Y0184000D02*
D03*
X0327000Y0118000D02*
D03*
M02*
