G04*
G04 #@! TF.GenerationSoftware,Altium Limited,Altium Designer,21.8.1 (53)*
G04*
G04 Layer_Color=8388736*
%FSAX43Y43*%
%MOMM*%
G71*
G04*
G04 #@! TF.SameCoordinates,1811E041-B113-4E41-AA8A-15301D721C4D*
G04*
G04*
G04 #@! TF.FilePolarity,Negative*
G04*
G01*
G75*
%ADD12C,3.000*%
%ADD13C,0.737*%
%ADD14C,0.100*%
%ADD15C,1.100*%
%ADD16C,5.100*%
D12*
X0430000Y0116000D02*
D03*
Y0186000D02*
D03*
X0321000Y0115500D02*
D03*
X0338000Y0186000D02*
D03*
D13*
X0429294Y0126235D02*
D03*
X0430564D02*
D03*
X0431834D02*
D03*
X0433104D02*
D03*
X0434374D02*
D03*
X0435644D02*
D03*
X0436914D02*
D03*
X0438184D02*
D03*
X0439454D02*
D03*
X0440724D02*
D03*
X0429294Y0127505D02*
D03*
X0430564D02*
D03*
X0431834D02*
D03*
X0433104D02*
D03*
X0434374D02*
D03*
X0435644D02*
D03*
X0436914D02*
D03*
X0438184D02*
D03*
X0439454D02*
D03*
X0440724D02*
D03*
X0429294Y0128775D02*
D03*
X0430564D02*
D03*
X0431834D02*
D03*
X0433104D02*
D03*
X0434374D02*
D03*
X0435644D02*
D03*
X0436914D02*
D03*
X0438184D02*
D03*
X0439454D02*
D03*
X0440724D02*
D03*
X0429294Y0130045D02*
D03*
X0430564D02*
D03*
X0431834D02*
D03*
X0433104D02*
D03*
X0434374D02*
D03*
X0435644D02*
D03*
X0436914D02*
D03*
X0438184D02*
D03*
X0439454D02*
D03*
X0440724D02*
D03*
X0429294Y0131315D02*
D03*
X0430564D02*
D03*
X0431834D02*
D03*
X0433104D02*
D03*
X0434374D02*
D03*
X0435644D02*
D03*
X0436914D02*
D03*
X0438184D02*
D03*
X0439454D02*
D03*
X0440724D02*
D03*
X0429294Y0132585D02*
D03*
X0430564D02*
D03*
X0431834D02*
D03*
X0433104D02*
D03*
X0434374D02*
D03*
X0435644D02*
D03*
X0436914D02*
D03*
X0438184D02*
D03*
X0439454D02*
D03*
X0440724D02*
D03*
X0429294Y0133855D02*
D03*
X0430564D02*
D03*
X0431834D02*
D03*
X0433104D02*
D03*
X0434374D02*
D03*
X0435644D02*
D03*
X0436914D02*
D03*
X0438184D02*
D03*
X0439454D02*
D03*
X0440724D02*
D03*
X0429294Y0135125D02*
D03*
X0430564D02*
D03*
X0431834D02*
D03*
X0433104D02*
D03*
X0434374D02*
D03*
X0435644D02*
D03*
X0436914D02*
D03*
X0438184D02*
D03*
X0439454D02*
D03*
X0440724D02*
D03*
X0429294Y0136395D02*
D03*
X0430564D02*
D03*
X0431834D02*
D03*
X0433104D02*
D03*
X0434374D02*
D03*
X0435644D02*
D03*
X0436914D02*
D03*
X0438184D02*
D03*
X0439454D02*
D03*
X0440724D02*
D03*
X0429294Y0137665D02*
D03*
X0430564D02*
D03*
X0431834D02*
D03*
X0433104D02*
D03*
X0434374D02*
D03*
X0435644D02*
D03*
X0436914D02*
D03*
X0438184D02*
D03*
X0439454D02*
D03*
X0440724D02*
D03*
X0429294Y0138935D02*
D03*
X0430564D02*
D03*
X0431834D02*
D03*
X0433104D02*
D03*
X0434374D02*
D03*
X0435644D02*
D03*
X0436914D02*
D03*
X0438184D02*
D03*
X0439454D02*
D03*
X0440724D02*
D03*
X0429294Y0140205D02*
D03*
X0430564D02*
D03*
X0431834D02*
D03*
X0433104D02*
D03*
X0434374D02*
D03*
X0435644D02*
D03*
X0436914D02*
D03*
X0438184D02*
D03*
X0439454D02*
D03*
X0440724D02*
D03*
X0429294Y0141475D02*
D03*
X0430564D02*
D03*
X0431834D02*
D03*
X0433104D02*
D03*
X0434374D02*
D03*
X0435644D02*
D03*
X0436914D02*
D03*
X0438184D02*
D03*
X0439454D02*
D03*
X0440724D02*
D03*
X0429294Y0142745D02*
D03*
X0430564D02*
D03*
X0431834D02*
D03*
X0433104D02*
D03*
X0434374D02*
D03*
X0435644D02*
D03*
X0436914D02*
D03*
X0438184D02*
D03*
X0439454D02*
D03*
X0440724D02*
D03*
X0429294Y0144015D02*
D03*
X0430564D02*
D03*
X0431834D02*
D03*
X0433104D02*
D03*
X0434374D02*
D03*
X0435644D02*
D03*
X0436914D02*
D03*
X0438184D02*
D03*
X0439454D02*
D03*
X0440724D02*
D03*
X0429294Y0145285D02*
D03*
X0430564D02*
D03*
X0431834D02*
D03*
X0433104D02*
D03*
X0434374D02*
D03*
X0435644D02*
D03*
X0436914D02*
D03*
X0438184D02*
D03*
X0439454D02*
D03*
X0440724D02*
D03*
X0429294Y0146555D02*
D03*
X0430564D02*
D03*
X0431834D02*
D03*
X0433104D02*
D03*
X0434374D02*
D03*
X0435644D02*
D03*
X0436914D02*
D03*
X0438184D02*
D03*
X0439454D02*
D03*
X0440724D02*
D03*
X0429294Y0147825D02*
D03*
X0430564D02*
D03*
X0431834D02*
D03*
X0433104D02*
D03*
X0434374D02*
D03*
X0435644D02*
D03*
X0436914D02*
D03*
X0438184D02*
D03*
X0439454D02*
D03*
X0440724D02*
D03*
X0429294Y0149095D02*
D03*
X0430564D02*
D03*
X0431834D02*
D03*
X0433104D02*
D03*
X0434374D02*
D03*
X0435644D02*
D03*
X0436914D02*
D03*
X0438184D02*
D03*
X0439454D02*
D03*
X0440724D02*
D03*
X0429294Y0150365D02*
D03*
X0430564D02*
D03*
X0431834D02*
D03*
X0433104D02*
D03*
X0434374D02*
D03*
X0435644D02*
D03*
X0436914D02*
D03*
X0438184D02*
D03*
X0439454D02*
D03*
X0440724D02*
D03*
X0429294Y0151635D02*
D03*
X0430564D02*
D03*
X0431834D02*
D03*
X0433104D02*
D03*
X0434374D02*
D03*
X0435644D02*
D03*
X0436914D02*
D03*
X0438184D02*
D03*
X0439454D02*
D03*
X0440724D02*
D03*
X0429294Y0152905D02*
D03*
X0430564D02*
D03*
X0431834D02*
D03*
X0433104D02*
D03*
X0434374D02*
D03*
X0435644D02*
D03*
X0436914D02*
D03*
X0438184D02*
D03*
X0439454D02*
D03*
X0440724D02*
D03*
X0429294Y0154175D02*
D03*
X0430564D02*
D03*
X0431834D02*
D03*
X0433104D02*
D03*
X0434374D02*
D03*
X0435644D02*
D03*
X0436914D02*
D03*
X0438184D02*
D03*
X0439454D02*
D03*
X0440724D02*
D03*
X0429294Y0155445D02*
D03*
X0430564D02*
D03*
X0431834D02*
D03*
X0433104D02*
D03*
X0434374D02*
D03*
X0435644D02*
D03*
X0436914D02*
D03*
X0438184D02*
D03*
X0439454D02*
D03*
X0440724D02*
D03*
X0429294Y0156715D02*
D03*
X0430564D02*
D03*
X0431834D02*
D03*
X0433104D02*
D03*
X0434374D02*
D03*
X0435644D02*
D03*
X0436914D02*
D03*
X0438184D02*
D03*
X0439454D02*
D03*
X0440724D02*
D03*
X0429294Y0157985D02*
D03*
X0430564D02*
D03*
X0431834D02*
D03*
X0433104D02*
D03*
X0434374D02*
D03*
X0435644D02*
D03*
X0436914D02*
D03*
X0438184D02*
D03*
X0439454D02*
D03*
X0440724D02*
D03*
X0429294Y0159255D02*
D03*
X0430564D02*
D03*
X0431834D02*
D03*
X0433104D02*
D03*
X0434374D02*
D03*
X0435644D02*
D03*
X0436914D02*
D03*
X0438184D02*
D03*
X0439454D02*
D03*
X0440724D02*
D03*
X0429294Y0160525D02*
D03*
X0430564D02*
D03*
X0431834D02*
D03*
X0433104D02*
D03*
X0434374D02*
D03*
X0435644D02*
D03*
X0436914D02*
D03*
X0438184D02*
D03*
X0439454D02*
D03*
X0440724D02*
D03*
X0429294Y0161795D02*
D03*
X0430564D02*
D03*
X0431834D02*
D03*
X0433104D02*
D03*
X0434374D02*
D03*
X0435644D02*
D03*
X0436914D02*
D03*
X0438184D02*
D03*
X0439454D02*
D03*
X0440724D02*
D03*
X0429294Y0163065D02*
D03*
X0430564D02*
D03*
X0431834D02*
D03*
X0433104D02*
D03*
X0434374D02*
D03*
X0435644D02*
D03*
X0436914D02*
D03*
X0438184D02*
D03*
X0439454D02*
D03*
X0440724D02*
D03*
X0429294Y0164335D02*
D03*
X0430564D02*
D03*
X0431834D02*
D03*
X0433104D02*
D03*
X0434374D02*
D03*
X0435644D02*
D03*
X0436914D02*
D03*
X0438184D02*
D03*
X0439454D02*
D03*
X0440724D02*
D03*
X0429294Y0165605D02*
D03*
X0430564D02*
D03*
X0431834D02*
D03*
X0433104D02*
D03*
X0434374D02*
D03*
X0435644D02*
D03*
X0436914D02*
D03*
X0438184D02*
D03*
X0439454D02*
D03*
X0440724D02*
D03*
X0429294Y0166875D02*
D03*
X0430564D02*
D03*
X0431834D02*
D03*
X0433104D02*
D03*
X0434374D02*
D03*
X0435644D02*
D03*
X0436914D02*
D03*
X0438184D02*
D03*
X0439454D02*
D03*
X0440724D02*
D03*
X0429294Y0168145D02*
D03*
X0430564D02*
D03*
X0431834D02*
D03*
X0433104D02*
D03*
X0434374D02*
D03*
X0435644D02*
D03*
X0436914D02*
D03*
X0438184D02*
D03*
X0439454D02*
D03*
X0440724D02*
D03*
X0429294Y0169415D02*
D03*
X0430564D02*
D03*
X0431834D02*
D03*
X0433104D02*
D03*
X0434374D02*
D03*
X0435644D02*
D03*
X0436914D02*
D03*
X0438184D02*
D03*
X0439454D02*
D03*
X0440724D02*
D03*
X0429294Y0170685D02*
D03*
X0430564D02*
D03*
X0431834D02*
D03*
X0433104D02*
D03*
X0434374D02*
D03*
X0435644D02*
D03*
X0436914D02*
D03*
X0438184D02*
D03*
X0439454D02*
D03*
X0440724D02*
D03*
X0429294Y0171955D02*
D03*
X0430564D02*
D03*
X0431834D02*
D03*
X0433104D02*
D03*
X0434374D02*
D03*
X0435644D02*
D03*
X0436914D02*
D03*
X0438184D02*
D03*
X0439454D02*
D03*
X0440724D02*
D03*
X0429294Y0173225D02*
D03*
X0430564D02*
D03*
X0431834D02*
D03*
X0433104D02*
D03*
X0434374D02*
D03*
X0435644D02*
D03*
X0436914D02*
D03*
X0438184D02*
D03*
X0439454D02*
D03*
X0440724D02*
D03*
X0429294Y0174495D02*
D03*
X0430564D02*
D03*
X0431834D02*
D03*
X0433104D02*
D03*
X0434374D02*
D03*
X0435644D02*
D03*
X0436914D02*
D03*
X0438184D02*
D03*
X0439454D02*
D03*
X0440724D02*
D03*
X0429294Y0175765D02*
D03*
X0430564D02*
D03*
X0431834D02*
D03*
X0433104D02*
D03*
X0434374D02*
D03*
X0435644D02*
D03*
X0436914D02*
D03*
X0438184D02*
D03*
X0439454D02*
D03*
X0440724D02*
D03*
D14*
X0327000Y0123809D02*
D03*
X0330048Y0178191D02*
D03*
D15*
X0331500Y0190500D02*
D03*
X0333000D02*
D03*
X0334500D02*
D03*
X0431100Y0112250D02*
D03*
X0429600D02*
D03*
X0428100D02*
D03*
X0331500Y0112250D02*
D03*
X0333000D02*
D03*
X0334500D02*
D03*
X0428100Y0190500D02*
D03*
X0429600D02*
D03*
X0431100D02*
D03*
X0441600Y0190500D02*
D03*
X0440100D02*
D03*
X0438600D02*
D03*
X0441600Y0112250D02*
D03*
X0440100D02*
D03*
X0438600D02*
D03*
X0321000D02*
D03*
X0322500D02*
D03*
X0324000D02*
D03*
X0324000Y0190500D02*
D03*
X0322500D02*
D03*
X0321000D02*
D03*
D16*
X0435000Y0184000D02*
D03*
Y0118000D02*
D03*
X0327000Y0184000D02*
D03*
X0327000Y0118000D02*
D03*
M02*
