M48
;Layer_Color=9474304
;FILE_FORMAT=4:2
METRIC
;TYPE=PLATED
T1F00S00C0.20
T2F00S00C1.00
T3F00S00C2.70
;TYPE=NON_PLATED
T4F00S00C1.27
%
T01
X044135Y012560
X043881
X043881Y012691
X043760Y012690
X043755Y012816
X043882Y012813
X044008Y012814
X044072Y012816
X044010Y012690
X043945Y013068
X043881Y013195
X043882Y013321
X044008Y013322
X044008Y013450
X044161Y013477
Y013422
X044137Y013259
X044136Y013703
X044008Y013703
X043882Y013702
X043754
Y013829
X043755Y013958
X043882Y014083
X044008Y014084
X044010Y014210
X044009Y014338
X044008Y014465
X044135
Y014592
X044009Y014719
X044008Y014846
X043882Y014845
X043755Y014719
X043882Y014464
X043755Y014338
X044140Y014340
X044135Y013830
X044009Y013829
X043882Y013831
X043754Y013322
X043691Y013068
X043755Y015100
X044009
X044008Y015481
X044008Y015608
X043882Y015607
X043880Y015730
X044020Y015740
X044008Y015862
X043754
X043754Y015608
Y015481
X043754Y015355
X043881Y015482
X043627Y015608
Y015735
X043500Y015608
Y015481
X043500Y015355
X043627Y015354
Y015227
X043500
Y015100
Y014973
X043501Y014719
Y014338
X043625Y014338
X043625Y014212
X043500Y014084
Y013957
X043373
X043247Y013956
X043246Y014084
X043247Y014337
X043373Y014338
X043248Y014529
X043120Y014590
X042929Y014592
X043056Y014340
X042929Y014084
X043056Y013832
X043374Y013830
X043500Y013703
Y013576
X043374Y013576
X043183Y013576
X042929
X043056Y013324
X043310
X043502Y013323
X043628Y013321
X043620Y013451
X043627Y013577
X043627Y013703
Y013830
X043627Y013958
X043437Y013068
X043183
X042929
X043056Y012816
X043310
X043373Y012686
X043437Y012560
X043183
X042929
X043627Y012686
X043564Y012816
X043247Y014848
X043056Y014848
X043183Y015100
X042929
X043056Y015356
X043373Y015354
Y015481
X043183Y015608
X043246Y015672
X043247Y015861
X043373Y015862
X043120Y015860
X042990
X042929Y015608
X033480Y015870
X033390
X033208Y015861
X032954
X032826Y015735
Y015608
X032953
Y015481
X032954Y015354
X032826Y015354
Y015227
X032699
Y015100
Y014973
X032700Y014718
X032954
X033080Y014720
X033081Y014464
X033207Y014465
X033334
Y014592
X033336Y014779
X033210Y014850
Y014970
X033208Y015099
X032954
X033081Y015481
X033081Y015607
X033207Y015608
X033208Y015480
X032699Y015481
X032700Y015354
X032572Y015354
Y015481
X032699Y015608
X032383Y015607
X032445Y015671
X032446Y015861
X032572Y015862
X032256Y015863
X032129Y015607
X032256Y015355
X032383Y015099
X032129
X032256Y014847
X032446Y014847
X032383Y014591
X032447Y014528
X032446Y014337
X032572Y014338
X032700Y014337
X032826Y014211
Y014084
X032827Y013957
X032954
X032953Y013829
Y013702
X032826Y013703
X032827Y013576
X032699Y013576
X032573Y013575
X032383Y013575
X032129
X032256Y013323
X032510
X032701Y013322
X032827Y013321
X032953Y013322
X033081Y013321
X033080Y013195
X033145Y013067
X033210Y012940
Y012820
X033271Y012815
X033208Y012686
X033080Y012690
X033080Y012560
X032890Y012559
X032826Y012686
X032764Y012815
X032954Y012815
X032890Y013067
X032637
X032383
X032129
X032256Y012815
X032510
X032572Y012686
X032637Y012559
X032383
X032129
X033334Y012560
X033336Y013258
X033360Y013421
Y013476
X033208Y013449
X033207Y013322
Y013703
X033081Y013702
X033081Y013830
X033209Y013830
X033335Y013829
X033335Y013702
X033207Y014084
X033081Y014083
X032954Y014337
X033208
X033500Y014350
Y014290
X032699Y014084
Y013957
X032572
X032446Y013956
X032446Y014083
X032129Y014083
X032256Y013831
X032573Y013829
X032699Y013703
X032826Y013830
X032820Y013450
X032256Y014339
X032129Y014591
Y016115
X032383
X032445Y015988
Y016243
Y016370
X032256Y016371
X032383Y016623
X032573Y016623
X032954Y016624
X033081Y016750
X033207Y016751
X033208Y016623
X033334Y016497
Y016370
X033336Y016306
X033207Y016370
X033081Y016369
X032954Y016369
X032954Y016116
X033208
X033334Y016116
Y015989
X033207
X033081Y015988
X032573Y016115
X032574Y017005
X032570Y017130
X032320
Y017000
Y016880
X032190
X032129Y017131
X032319Y017385
X032573
X032573Y017514
X032510Y017641
X032383
X032192Y017639
X032764Y017641
X032890Y017640
X033018Y017641
X033081Y017514
X033208Y017386
X032954Y017385
X032827Y017512
X032823Y017005
X033208Y017004
X033334Y017004
X033333Y016876
X033334Y017132
Y017639
X032129Y016623
X042929Y016624
X043183
X043374Y016624
X043246Y016370
Y016243
X043183Y016116
X043248Y016053
X043373Y016116
X042929Y016116
X043056Y016372
X042992Y016880
X043121Y016881
Y017001
Y017131
X042929Y017132
X043371Y017131
X043375Y017006
X043624Y017006
X043628Y017513
X043564Y017642
X043310
X043183
X042993Y017640
X043120Y017386
X043374
X043374Y017515
X043691Y017640
X043818Y017642
X043882Y017515
X044009Y017387
X043755Y017386
X044135Y017132
Y017004
X044009Y017005
X044134Y016877
X044008Y016751
X043882Y016750
X043755Y016625
X044008Y016624
X044135Y016497
Y016370
X044137Y016307
X044008Y016370
X043882Y016369
X043755Y016370
X043754Y016117
X044008
X044135Y016116
Y015989
X044008
X043882Y015988
X044135Y017639
T02
X032100Y011225
X032250
X032400
X033150Y011225
X033300
X033450
X042810Y011225
X042960
X043110
X043860Y011225
X044010
X044160
X033450Y019050
X033300
X033150
X032400Y019050
X032250
X032100
X042810Y019050
X042960
X043110
X043860Y019050
X044010
X044160
T03
X032700Y011800
X043500
X032700Y018400
X043500Y018400
T04
X043196Y012381
X032700Y012381
X033005Y017819
X043501Y017819
M30
